<svg xmlns="http://www.w3.org/2000/svg" viewBox="0 0 500 500" xmlns:v="https://vecta.io/nano"><style><![CDATA[.B{fill:#ba68c8}.C{fill:#455a64}.D{fill:#263238}.E{fill:#fff}.F{fill:#37474f}.G{fill:#af6152}.H{fill:#fafafa}.I{fill:#e0e0e0}.J{fill:#ffa8a7}.K{fill:#c8856a}.L{fill:#f28f8f}]]></style><path d="M89.031 261.412C.133 312.737.135 395.952 89.036 447.278s233.035 51.326 321.933 0 88.896-134.54-.005-185.866-233.035-51.326-321.933 0z" class="H"/><path d="M386.306 341.737L149.618 205.07c-3.587-2.071-9.445-2.066-13.029.001L14.431 275.436c-4.863 2.803-4.868 7.401-.011 10.205l235.138 135.771c3.16 1.825 8.331 1.824 11.495-.007l125.253-72.146c3.584-2.066 3.587-5.451 0-7.522zm-4.101 28.695c-11.617 6.707-17.425 15.497-17.424 24.288s5.809 17.581 17.427 24.288c23.234 13.414 60.904 13.414 84.138 0 11.617-6.707 17.425-15.497 17.424-24.288s-5.809-17.581-17.427-24.288c-23.235-13.414-60.905-13.414-84.138 0zm-314.479.74c-11.581 6.686-17.372 15.45-17.372 24.214s5.792 17.528 17.374 24.215c23.164 13.373 60.72 13.373 83.883 0 11.581-6.687 17.372-15.45 17.372-24.214s-5.792-17.528-17.374-24.215c-23.164-13.374-60.72-13.374-83.883 0z" class="I"/><path d="M167.901 146.133l219.888 172.728c5.519 4.335 4.887 8.932 4.381 13.055s-2.803 9.765-7.519 12.487l-120.719 69.698c-4.715 2.723-11.776 2.386-15.771-.752L28.271 240.621c-3.995-3.138-4.381-8.096-3.875-12.22s2.298-10.601 7.013-13.323l120.72-69.697c4.716-2.723 10.207-3.617 15.772.752z" class="F"/><path d="M161.444 151.527l-124.136 71.67 220.839 173.42-2.372 19.305c-2.853-.137-5.617-1.005-7.614-2.574L28.271 240.621c-3.995-3.138-4.381-8.096-3.875-12.22s2.298-10.601 7.013-13.323l120.72-69.697c2.946-1.701 6.499-2.878 10.313-1.974l-.073.597-.925 7.523z" class="D"/><path d="M385.63 319.852L166.114 147.417c-3.167-2.488-8.807-2.752-12.542-.598L35.73 214.86c-5.067 2.92-5.705 8.078-1.417 11.446L252.46 397.665c2.79 2.192 7.767 2.429 11.065.52l121.068-69.896c3.736-2.153 4.205-5.95 1.037-8.437zM94.66 278.031c1.574 1.236 2.634 3.994 2.368 6.16-.129 1.046-.544 1.755-1.115 2.071l-2.358 1.374c-.61.339-1.396.23-2.205-.405L73.871 273.5c-1.574-1.236-2.634-3.994-2.368-6.16.122-.998.507-1.689 1.039-2.025l2.43-1.416c.61-.342 1.398-.234 2.209.403l17.479 13.729z" class="C"/><path d="M92.314 279.386l-17.479-13.729c-1.574-1.236-3.066-.483-3.332 1.683s.794 4.924 2.368 6.16l17.479 13.73c1.574 1.236 3.066.483 3.332-1.683s-.794-4.924-2.368-6.161z" class="F"/><path d="M64.067 254.002c1.574 1.236 2.634 3.994 2.368 6.16-.128 1.046-.543 1.755-1.115 2.071l-2.358 1.374c-.61.339-1.396.23-2.205-.405l-17.479-13.729c-1.574-1.236-2.634-3.994-2.368-6.16.123-.998.507-1.689 1.039-2.025l2.43-1.416c.61-.341 1.398-.234 2.209.403l17.479 13.727z" class="C"/><path d="M61.722 255.357l-17.479-13.729c-1.574-1.236-3.066-.483-3.332 1.683s.794 4.924 2.368 6.16L60.758 263.2c1.574 1.236 3.065.483 3.332-1.683s-.794-4.923-2.368-6.16z" class="F"/><path d="M170.107 156.882l204.985 161.021c3.027 2.378 2.589 5.998-.979 8.049l-109.534 63.241c-3.56 2.071-8.914 1.816-11.949-.567L46.178 226.454c-2.454-1.928-2.646-4.667-.693-6.734.158-.159.302-.316.467-.469.359-.298.768-.584 1.213-.841l30.809-17.789 2.01-1.159c1.106-.642 2.765-.565 3.709.176.937.736 2.666.786 3.848.096l35.907-20.729c1.175-.681 1.387-1.837.451-2.572-.879-.69-.819-1.722.095-2.379.062-.046.132-.085.201-.125l30.142-17.396.639-.374c4.511-2.602 11.312-2.276 15.131.723z"/><path d="M83.082 204.597c-.944-.741-2.603-.818-3.709-.176l-2.01 1.158-30.809 17.789c-.445.257-.854.543-1.213.841l-.466.469c-.051.054-.084.112-.132.167.334.572.808 1.117 1.434 1.608l206.451 162.172c3.035 2.384 8.389 2.638 11.949.567l109.534-63.241c.742-.427 1.34-.923 1.809-1.461-.333-.58-.806-1.133-1.439-1.631L169.497 161.84c-3.819-2.999-10.619-3.325-15.133-.722l-.64.374-29.349 16.939-.512 4.204c-.061.488-.412.973-1.027 1.33L86.93 204.693c-1.182.69-2.911.64-3.848-.096z" fill="#ebebeb"/><g class="C"><path d="M75.404 221.48c-.045-.005-.091-.028-.137-.071l-.438-.402-1.365.789a.16.16 0 0 1-.206-.021l-.157-.144c-.035-.033-.059-.061-.07-.083a.35.35 0 0 1-.023-.092l-.115-2.279c-.002-.041.002-.072.012-.093s.035-.044.079-.069l.19-.109c.057-.034.109-.047.159-.041s.098.032.146.077l1.528 1.405.301-.174c.058-.033.109-.047.153-.04s.092.033.141.077l.104.096c.046.042.067.079.064.111s-.032.065-.09.098l-.301.174.438.402c.046.042.068.08.063.113s-.036.067-.096.102l-.23.132c-.055.033-.105.047-.15.042zm-.857-.867l-1.09-1.002.099 1.574.991-.572z"/><path d="M76.761 220.3c-.503-.062-.973-.294-1.411-.696s-.637-.787-.605-1.159.291-.699.776-.979c.195-.113.395-.202.602-.267a2.02 2.02 0 0 1 .575-.103c.041-.001.07.007.089.024.012.011.022.029.029.052l.067.249c.005.031.001.052-.017.062-.009.005-.035.01-.075.015-.293.023-.575.113-.844.269-.327.189-.503.413-.525.673s.136.544.471.852.68.489 1.024.535.674-.022.991-.204c.115-.066.218-.138.311-.217a.9.9 0 0 0 .197-.22l-.71-.653-.569.328c-.058.034-.108.047-.153.04s-.092-.032-.141-.077l-.1-.092c-.048-.045-.071-.083-.066-.113s.034-.063.091-.097l.909-.525c.063-.036.123-.05.177-.041a.33.33 0 0 1 .166.091l1.013.932c.038.035.063.064.073.087s.009.049-.004.08c-.116.289-.401.564-.855.827-.489.28-.984.39-1.486.327zm11.35-6.793c.338.31.257.767-.181 1.02s-1.066.206-1.404-.105-.257-.767.181-1.02 1.066-.206 1.404.105zm-2.406-1.025c-.799.461-1.147 1.179-.991 1.849.032.136.196.233.387.23h.002c.241-.003.429-.162.388-.333-.115-.473.132-.98.694-1.304s1.296-.383 1.901-.194c.22.069.477-.029.536-.2l.001-.002c.047-.134-.046-.273-.219-.326-.86-.264-1.9-.181-2.699.28zm-.979-.9c-1.187.685-1.753 1.729-1.631 2.737.018.148.183.262.389.26h.004c.234-.003.414-.152.392-.32-.106-.822.355-1.675 1.326-2.236s2.218-.694 3.294-.431c.219.053.459-.04.516-.205h0c.05-.145-.063-.288-.257-.335-1.314-.32-2.843-.157-4.033.53zM60.642 230.49l-.843-.776 1.457-.841.843.775zm2.187-1.263l-1.687-1.55 1.458-.841 1.686 1.55zm2.186-1.262l-2.53-2.325 1.458-.842 2.53 2.326zm2.186-1.262l-3.373-3.101 1.458-.842 3.372 3.101zm88.753-55.298c-.312-.056-.59-.025-.785.088l-5.45 3.137c-.353.204-.346.624.017.957l1.533 1.409c.202.186.484.319.795.376a1.58 1.58 0 0 0 .383.024c.157-.011.292-.049.402-.112l5.449-3.137c.353-.204.346-.624-.017-.958l-1.533-1.409c-.201-.185-.483-.318-.794-.375zm-3.895 5.739c-.113-.02-.236-.086-.337-.179l-1.533-1.409c-.267-.245-.274-.579-.013-.729l5.449-3.137a.49.49 0 0 1 .211-.064c.041-.003.081-.001.122.007a.71.71 0 0 1 .337.178l1.533 1.409c.268.246.274.58.014.73l-5.449 3.137a.49.49 0 0 1-.334.057zm-.583-2.669l1.814 1.667-.857.492c-.073.042-.22.047-.262.009l-1.348-1.24c-.193-.178-.198-.431-.013-.543l.666-.385zm.401-.224l1.02-.592 1.813 1.667-1.025.587zm1.421-.817l1.02-.592 1.819 1.672-1.025.588zm2.561-1.298l1.307 1.201c.24.221.129.509-.288.749l-.345.198-1.814-1.667.814-.47c.095-.052.274-.059.326-.011z"/><path d="M156.962 171.673c.149-.088.526.075.841.364l.285.262c.315.289.452.601.307.696l-.263.172-1.441-1.335.271-.159zm-15.118 9.03l4.47-3.812 1.346 3.68-2.43-1.079z"/></g><path d="M87.266 192.091l16.459-9.503c.982-.567 2.411-.53 3.191.083s.617 1.57-.365 2.137l-16.46 9.503c-.982.567-2.411.529-3.191-.084s-.616-1.569.366-2.136zm24.332-14.828c1.106-.639 2.763-.56 3.7.177s.8 1.851-.306 2.489-2.762.56-3.7-.177-.8-1.851.306-2.489z" class="D"/><path d="M135.338 208.15l-.019.011-1.944-1.527c-.692-.544-1.831-.654-2.538-.245l-2.384 1.376c-.708.409-.72 1.183-.028 1.727l1.944 1.527-.018.01c-.541.312-.55.903-.021 1.318l3.921 3.08c.529.416 1.397.5 1.938.187l4.987-2.879c.541-.312.551-.903.021-1.318l-3.921-3.079c-.53-.417-1.397-.501-1.938-.188zm-6.36 1.022c-.394-.309-.387-.75.016-.982l2.384-1.376c.402-.232 1.05-.17 1.444.14l1.944 1.527-3.844 2.219-1.944-1.528zm20.639 48.781c.422.332.382.64-.114.927l-.644.372c-.496.286-.954.267-1.378-.066l-17.11-13.441-2.108 6.614c-.155.431-.545.602-1.163.516l-.777-.1c-.287-.042-.5-.134-.641-.275a.45.45 0 0 1-.112-.503l2.51-7.868a.9.9 0 0 1 .268-.388 3.31 3.31 0 0 1 .412-.277l.645-.372c.496-.286.956-.265 1.378.066l18.834 14.795zm-8.937-13.621a6.82 6.82 0 0 1-1.564-1.875c-.414-.725-.615-1.491-.599-2.296s.298-1.619.853-2.448 1.473-1.613 2.761-2.357 2.547-1.247 3.774-1.516 2.401-.352 3.513-.265a9.99 9.99 0 0 1 3.12.743c.969.408 1.823.902 2.571 1.488 1.187.932 1.934 1.934 2.243 3.01s.331 2.353.064 3.836l-1.095 9.945 11.353-6.553c.519-.301 1-.278 1.439.069l.431.338c.422.33.372.646-.147.946l-13.894 8.022c-.498.286-.956.264-1.378-.066l-.431-.338a1.03 1.03 0 0 1-.374-.549c-.058-.213-.053-.509.015-.888l1.34-10.907c.134-.758.204-1.41.21-1.96s-.06-1.041-.197-1.471-.344-.818-.628-1.163a6.92 6.92 0 0 0-1.085-1.037c-1.283-1.007-2.717-1.55-4.302-1.625s-3.192.356-4.82 1.296c-1.558.899-2.402 1.901-2.526 3.003s.342 2.195 1.407 3.276c.184.207.246.399.182.582a.7.7 0 0 1-.301.386l-.678.391c-.474.273-.894.266-1.257-.017zm26.269-10.079c.191.149.271.314.237.488s-.16.327-.386.458l-1.626.94c-.498.286-.956.264-1.378-.066l-1.378-1.083c-.192-.151-.281-.314-.269-.489s.128-.331.354-.46l1.626-.94c.227-.131.476-.189.749-.176a1.18 1.18 0 0 1 .694.245l1.377 1.083zm10.05 7.892c.192.151.27.313.238.49s-.16.327-.387.456l-1.626.94c-.498.286-.956.266-1.378-.066l-1.378-1.081c-.191-.151-.283-.314-.271-.492s.128-.329.355-.46l1.626-.94c.225-.129.474-.187.747-.174s.504.094.695.245l1.379 1.082zm-.965-25.971c.52-.3 1-.277 1.441.069l.429.338c.116.089.187.185.217.285a1.53 1.53 0 0 1 .059.3l-.059 9.698.678-.391c1.151-.665 2.323-1.184 3.512-1.559s2.36-.572 3.507-.595a10.27 10.27 0 0 1 3.357.489c1.09.347 2.113.899 3.069 1.65s1.601 1.534 1.931 2.348a3.78 3.78 0 0 1 .172 2.444c-.215.816-.687 1.616-1.413 2.4s-1.664 1.509-2.815 2.175c-1.266.73-2.535 1.275-3.807 1.63s-2.481.553-3.628.589-2.204-.066-3.159-.31-1.762-.606-2.417-1.089c-.172-.135-.238-.28-.198-.433s.161-.289.365-.406l.473-.274c.182-.105.396-.174.641-.213s.559.03.936.203c.813.393 1.622.622 2.432.687a9.22 9.22 0 0 0 2.392-.107c.783-.139 1.534-.358 2.252-.655s1.384-.622 1.996-.975c.88-.508 1.596-1.04 2.146-1.592s.913-1.121 1.091-1.707.146-1.171-.098-1.763-.717-1.163-1.426-1.719c-1.416-1.113-2.933-1.619-4.551-1.52s-3.298.65-5.036 1.654l-2.983 1.722c-.498.286-.956.264-1.376-.066l-.431-.338c-.154-.121-.255-.237-.304-.353a1.07 1.07 0 0 1-.08-.365l.005-9.509-10.235 5.909c-.496.286-.956.264-1.378-.066l-.431-.338c-.439-.346-.41-.662.086-.949l12.638-7.298zm33.056 7.443c.42.332.382.64-.114.927l-.645.372c-.497.286-.956.264-1.378-.066l-17.112-13.441-2.106 6.612c-.155.431-.545.604-1.164.517l-.776-.099c-.287-.042-.501-.133-.643-.276a.45.45 0 0 1-.111-.501l2.51-7.868c.062-.165.151-.295.268-.388a3.31 3.31 0 0 1 .412-.277l.645-.372c.496-.286.956-.265 1.376.066l18.838 14.794z" class="C"/><path d="M151.423 286.203l86.893-50.169c2.339-1.351 5.843-1.183 7.825.373l19.757 15.518c1.982 1.557 1.693 3.914-.647 5.265l-86.895 50.169c-2.34 1.351-5.843 1.183-7.825-.374l-19.755-15.517c-1.982-1.558-1.693-3.915.647-5.265zm35.598 27.967l86.893-50.169c2.34-1.351 5.843-1.184 7.825.373l19.757 15.518c1.982 1.557 1.692 3.914-.647 5.265l-86.895 50.168c-2.339 1.351-5.843 1.184-7.825-.373l-19.755-15.517c-1.982-1.557-1.692-3.914.647-5.265zm35.598 27.967l86.893-50.169c2.339-1.351 5.843-1.184 7.825.373l19.757 15.518c1.982 1.557 1.693 3.914-.647 5.265l-86.895 50.169c-2.339 1.351-5.843 1.184-7.825-.374l-19.755-15.517c-1.982-1.557-1.692-3.914.647-5.265z" class="E"/><path d="M257.948 344.365c-.013-.001-.027-.001-.042 0-2.111.082-4.174-.394-5.541-1.468l-2.538-1.993c-2.895-2.274-8.013-2.518-11.43-.545h0c-3.417 1.973-3.84 5.416-.945 7.69l2.268 1.782c1.426 1.12 1.981 2.619 1.582 4.081l.466 1.068c.729.573 2.019.634 2.88.137l14.452-8.344c.861-.497.968-1.364.238-1.937-.364-.288-.869-.447-1.39-.471zm-2.559 9.34c1.64-.947 1.843-2.6.453-3.692l-5.941 3.43c1.391 1.091 3.847 1.209 5.488.262zm-32.981-37.966c-.013-.001-.027-.001-.042 0-2.111.082-4.174-.394-5.541-1.468l-2.538-1.993c-2.895-2.274-8.013-2.518-11.43-.546h0c-3.417 1.973-3.84 5.416-.945 7.69l2.268 1.782c1.426 1.12 1.981 2.619 1.582 4.081l.466 1.068c.729.573 2.019.634 2.88.137l14.453-8.344c.861-.497.968-1.364.238-1.937-.365-.287-.87-.445-1.391-.47zm-2.559 9.34c1.64-.947 1.844-2.6.454-3.692l-5.941 3.43c1.389 1.092 3.846 1.209 5.487.262z" class="I"/><g opacity=".3" class="E"><path d="M254.359 223.059l-26.178-20.562-41.857 134.035 26.178 20.562zm79.038 67.528l-44.368-34.852-40.495 129.674 4.096 3.217c3.035 2.384 8.389 2.638 11.949.567l46.39-26.784 22.428-71.822zm-170.892 27.236l41.857-134.035-34.256-26.907c-3.819-2.999-10.619-3.325-15.133-.722l-.64.374-18.159 10.48-32.633 104.497 58.964 46.313z"/></g><use href="#B" class="B"/><g class="E"><use href="#B" opacity=".65"/><path d="M69.76 375.243l-1.391.802c4.969-35.402-7.134-66.104-19.081-78.785a.61.61 0 0 1 .022-.858c.252-.23.634-.219.864.022 11.942 12.687 24.04 43.596 19.586 78.819z"/></g><use href="#C" class="B"/><g class="E"><use href="#C" opacity=".3"/><path d="M63.927 378.608l-1.139.662c-3.281-19.356-16.428-41.751-24.6-47.04-.286-.185-.37-.572-.179-.864a.61.61 0 0 1 .858-.185c8.459 5.485 21.577 27.774 25.06 47.427z"/></g><use href="#D" class="B"/><use href="#D" opacity=".3"/><use href="#E" class="B"/><use href="#E" opacity=".2"/><path d="M71.737 353.911c-10.474 6.047-15.711 13.973-15.711 21.899s5.238 15.852 15.713 21.899c20.949 12.094 54.914 12.094 75.862 0 10.474-6.047 15.711-13.973 15.711-21.899s-5.238-15.852-15.713-21.899c-20.95-12.095-54.914-12.095-75.862 0z" class="B"/><path d="M128.008 381.454c-.878-.196-1.86-.305-2.801.068s-1.544.567-2.295 1.091l-2.255 1.574c-.616.518-1.293 1.059-3.078.588s-7.658-2.105-12.878-4.71c-6.706-3.347-9.487-6.323-10.624-7.233s-1.206-1.471-.351-2.082 3.758-2.623 5.112-3.341.861-1.338.017-2.182-6.366-5.317-7.502-6.227-1.762-1.522-2.508-1.725-3.914-.035-7.323.954-5.405 4.968-5.198 6.82c.187 1.66.768 3.743 2.797 5.958a68.96 68.96 0 0 0 5.297 5.246c10.31 9.178 28.548 14.562 29.776 14.981s9.986 3.429 17.774 3.016 10.725-3.074 11.993-4.029 1.291-2.007 1.061-2.642-.469-1.268-.716-1.82c-.26-.581-.126-1.387-3.491-1.996l-12.807-2.309z" fill-rule="evenodd" class="E"/><ellipse cx="196.227" cy="276.734" rx="56.988" ry="29.871" opacity=".2"/><path d="M221.618 295.522s18.081-6.516 23.975-16.072c1.285-15.649-1.968-24.33-3.423-29.724l-32.375 3.778 7.201 29.875 4.622 12.143z" class="F"/><path d="M234.907 276.84c3.196-5.535 5.972-18.814 5.981-23.332l-91.132 1.399s-3.201 15.439-2.629 26.53c0 .033.009.06.009.093 1.929 4.767 6.458 7.687 16.785 12.166 19.109 8.28 45.038 7.016 57.701 1.826v-4.221c-.001.001 10.089-8.927 13.285-14.461z" class="C"/><path d="M332.644 178.047c-.952.053-1.641.643-3.468 1.378 1.897-1.392 4.598-3.459 5.872-6.108.191-.398.37-1.02.313-1.457-.053-.412-.391-1.558-1.067-1.734l1.725-2.247c.663-.844 2.014-2.89.493-3.503-1.205-.485-2.789.227-4.469 1.382.799-1.006 1.322-1.89 1.27-2.455-.154-1.691-1.328-2.458-4.441-.522-3.164 1.968-6.292 4.029-9.681 5.598-2.91 1.347-6.854 2.973-10.094 2.105-.379-.102-.743-.329-.917-.681-.094-.191-.128-.406-.135-.619-.029-.854.346-1.668.778-2.404 1.461-2.49 4.496-5.837 2.044-8.575-.437-.488-1.087-.836-1.61-.326l-6.346 6.025c-1.983 1.912-4.347 4.001-5.964 6.238-1.861 2.574-3.428 5.237-6.149 8.824s-6.24 6.542-12.24 12.952l-9.027 9.763-16.124-27.724c-8.357-14.392-15.321-17.952-28.797-19.348l4.674 33.242s15.525 30.368 21.499 40.221 11.078 11.3 14.916 10.709c12.011-2.001 18.282-17.887 34.287-41.25 1.304-1.904 4.511-5.645 10.23-6.395 2.241-.294 4.732-.796 6.198-1.062 1.774-.322 4.909-1.391 6.571-2.089 3.514-1.476 3.58-1.205 8.392-5.461.594-.525 2.97-2.866 2.716-3.617-.213-.63-.782-.898-1.449-.86z" class="K"/><path d="M329.176 179.425c-1.589.87-3.162 1.659-4.834 2.264l-5.042 1.843c1.809-.154 3.57-.602 5.282-1.224 1.677-.687 3.327-1.568 4.594-2.883zm-31.528 5.35c.007-.347.048-.696.14-1.032.177-.647.499-1.277.864-1.837a8.75 8.75 0 0 1 2.891-2.744c2.488-1.458 5.947-1.609 8.454-.12.07.042.162.307.012.285-2.726-.387-5.457-.635-7.951.809-2.063 1.194-3.278 3.473-3.863 5.727-.055.212-.278.158-.326-.029-.1-.383-.229-.652-.221-1.059zm18.693-10.446c2.74-1.003 5.395-2.475 7.956-3.869l7.199-4.334c.029-.018.069.052.047.073-2.25 2.075-4.754 3.704-7.454 5.143-2.486 1.324-5.064 2.141-7.718 3.041-.024.01-.054-.045-.03-.054zm.384 4.942c2.74-1.004 5.395-2.475 7.956-3.869l2.912-1.679 2.794-1.774.811-.613c.348-.263.655-.551 1.048-.752a3.68 3.68 0 0 1 1.288-.382c.042-.004.104.018.087.057-.549.144-1.053.426-1.509.764-.305.226-.589.477-.866.735-.251.234-.508.423-.774.638l-2.565 1.864-3.434 2.024c-2.486 1.325-5.064 2.141-7.718 3.042-.024.008-.053-.047-.03-.055z" class="G"/><path d="M223.33 153.552c14.994.213 20.252 3.986 26.152 12.501 5.561 8.025 20.304 34.78 20.304 34.78l9.476-9.92s-.658 3.557 3.559 9.914 10.785 6.983 10.785 6.983-4.81 11.524-11.295 19.42-13.116 13.839-20.536 11.693c-6.576-1.902-13.269-10.419-17.84-18.611s-18.018-29.918-18.018-29.918l-2.587-36.842z" class="B"/><path d="M257.957 222.6c1.199-7.907 5.912-17.733 11.829-21.766l-1.587-2.863c-9.015 6.613-10.564 17.488-10.242 24.629z" opacity=".2"/><path d="M147.264 138.495l-.113-.851c-.369-3.965 2.107-8.03 5.799-9.523 1.894-.766 4.121-.96 5.583-2.386 2.09-2.039 1.605-5.508 2.788-8.178 2.927-6.603 12.644-4.896 18.183-3.454 5.866 1.528 11.336 5.827 9.495 12.516-.487 1.769-1.54 3.588-.928 5.319.263.745.808 1.351 1.348 1.927 2.627 2.804 5.496 5.473 7.326 8.851s2.437 7.732.393 10.986c-1.924 3.063-5.826 4.653-7.214 7.993-1.906 4.59 1.834 10.29-.561 14.644-1.918 3.488-5.1 3.6-8.482 3.322-3.907-.321-6.268 4.038-10.521 2.749-1.858-.563-3.84-.468-5.779-.564-3.961-.196-9.673-1.872-12.795-4.347-2.272-1.801-3.869-4.516-4.057-7.409-.085-1.306.108-2.637-.173-3.915-.68-3.095-3.573-5.207-4.429-8.352-.628-2.307-.469-4.898.802-6.923 1.19-1.894 3.274-3.224 3.993-5.343.771-2.269-.254-4.67-.658-7.062z" class="D"/><path d="M197.947 280.115c-26.727 0-45.291-8.784-49.917-17.507 1.752-9.652 3.815-16.313 5.475-21.67 2.142-6.915 3.69-11.913 3.334-18.897-.164-3.206-.701-7.951-1.269-12.974-.967-8.545-2.063-18.23-1.479-22.09 2.556-16.888 6.736-26.965 13.147-31.693l8.768-1.088c.11-.005 14.304-.756 29.964-.756l7.094.055 10.09.5c9.778 8.452 20.261 22.827 23.904 32.796 5.851 16.012-5.508 27.607-5.624 27.723l-.117.117-.013.165c-.582 7.165-1.836 17.408-2.349 21.479l-.038.321.035.098c.033.092 3.345 9.302 5.63 22.075-3.007 9.375-16.119 20.538-43.277 21.302l-3.358.044z" class="H"/><path d="M205.967 153.887l7.059.054 9.95.492c9.539 8.29 20.113 22.807 23.66 32.51 5.742 15.711-5.407 27.137-5.52 27.251l-.233.234-.027.328c-.578 7.115-1.831 17.357-2.342 21.43l-.032.259-.021.205.07.194c.033.091 3.314 9.218 5.591 21.891-3.027 9.212-16.008 20.13-42.828 20.885l-3.348.047c-26.41 0-44.765-8.574-49.447-17.133 1.74-9.542 3.786-16.146 5.433-21.463 2.156-6.96 3.714-11.989 3.354-19.053-.164-3.221-.702-7.972-1.271-13.003-.964-8.517-2.056-18.17-1.481-21.971 2.524-16.68 6.619-26.647 12.876-31.33l8.619-1.07c.753-.04 14.644-.757 29.937-.757h.001m-.004-.897c-15.853 0-30.014.76-30.014.76l-8.884 1.103c-7.646 5.558-11.289 17.977-13.42 32.058-.935 6.177 2.298 26.422 2.743 35.154.632 12.409-4.857 18.611-8.829 40.616 4.892 9.515 24.655 17.885 50.385 17.885l3.373-.048c27.363-.77 40.715-12.11 43.726-21.72-2.32-13.022-5.67-22.258-5.67-22.258.012-.118 1.682-13.161 2.376-21.709 0 0 11.746-11.728 5.728-28.194-3.64-9.959-14.306-24.618-24.149-33.083l-10.259-.508-7.106-.056h0z" class="I"/><path d="M241.437 84.27c-.802-8.949-10.825-9.875-13.505-9.706-3.66.232-7.8-1.94-10.067-4.888-2.501-3.254-7.535-5.259-12.118-4.324-7.236 1.475-5.746 4.553-11.894 6.265-5.48 1.526-9.076 1.932-14.232 6.34-3.096 2.647-4.988 5.016-4.582 9.109-3.801 2.072-9.454 15.331-2.712 30.584 3.466 7.84 7.933 11.654 13.402 18.288l5.621.315c2.096-4.671 6.826-3.518 11.273-4.372 2.862-1.108 4.626-4.154 7.487-5.263 2.907-1.127 6.188.007 9.283-.366 2.403-.289 4.887-1.578 7.329-.819 5.525 2.596 14.285-1.856 13.998-8.404-.107-1.985-1.09-3.96-.606-5.888.635-2.527 3.432-3.79 5.004-5.868 1.765-2.332 1.898-5.932.027-8.179-3.814-4.583-3.252-7.735-3.708-12.824z" class="D"/><path d="M217.905 153.267l-3.11-.353c-2.507-.341-2.191-2.381-2.291-4.849l-.002-3.404c5.198.284 9.676-.687 12.491-2.558 4.725-3.141 8.271-8.019 8.846-23.917.232-6.42-1.495-9.507-1.327-10.946.992-8.56.406-10.12-1.365-14.663-3.225-7.257-12.154-10.306-16.449-2.918-10.737-9.309-23.715 1.519-23.928 14.788.945 11.008-2.113 8.977-4.285 9.34-2.792-6.979-10.227-8.051-13.426-3.801-2.895 3.846-3.139 9.986 1.758 15.848 4.77 5.711 10.575 2.497 10.702 1.396l.092 20.531c-.038 2.945-.73 4.553-3.915 5.114-2.922.514-5.746.874-5.746.874 12.543 17.943 48.432 12.377 41.955-.482z" class="K"/><path d="M177.937 123.56c-.087 1.435 1.006 2.668 2.441 2.755s2.669-1.007 2.755-2.442-1.007-2.668-2.441-2.755-2.668 1.007-2.755 2.442z" class="B"/><path d="M206.942 124.022l8.843 2.861c-.746 2.531-3.33 3.942-5.771 3.153s-3.817-3.482-3.072-6.014z" class="G"/><path d="M207.497 126.072c2.479-.051 4.58 1.674 5.095 4.006-.818.231-1.706.24-2.578-.042-1.753-.566-2.94-2.118-3.204-3.881.227-.036.451-.078.687-.083z" class="J"/><path d="M231.611 98.78l-6.321-2.07c.51-1.781 2.339-2.76 4.085-2.189s2.746 2.479 2.236 4.259zm-32.399.653l6.299-2.384c-.598-1.778-2.493-2.686-4.233-2.027s-2.664 2.634-2.066 4.411zm9.769 8.942c-.138 1.426-1.406 2.471-2.833 2.333s-2.471-1.406-2.333-2.833 1.406-2.471 2.833-2.333 2.472 1.407 2.333 2.833zm19.898.559c-.138 1.426-1.406 2.471-2.833 2.333s-2.471-1.406-2.333-2.833 1.406-2.471 2.833-2.333 2.471 1.406 2.333 2.833z" class="D"/><path d="M212.502 144.66c-10.537-1.109-22.162-6.179-24.708-12.637 0 0 .303 6.54 7.457 10.712 8.582 5.005 17.251 5.054 17.251 5.054v-3.129z" class="G"/><path d="M218.741 107.338a8.57 8.57 0 0 1 2.987-5.887c1.749-1.499 3.978-2.227 6.275-2.049 4.734.395 8.301 4.52 7.937 9.262a8.64 8.64 0 0 1-9.262 7.936l-.224-.02a8.64 8.64 0 0 1-7.713-9.242zm9.163-6.648c-1.953-.15-3.848.468-5.335 1.742a7.29 7.29 0 0 0-2.539 5.004h0c-.311 4.031 2.731 7.551 6.746 7.874 4.031.31 7.563-2.716 7.874-6.746.306-3.968-2.622-7.452-6.556-7.857l-.19-.017z" class="C"/><path d="M224.993 117.632l-8.784 4.141-1.714-16.894z" class="G"/><g class="C"><path d="M196.718 107.395c.366-4.742 4.522-8.302 9.262-7.936 2.282.173 4.387 1.237 5.887 2.987s2.227 3.978 2.05 6.274a8.64 8.64 0 0 1-9.262 7.936l-.224-.02c-4.63-.477-8.073-4.575-7.713-9.241zm9.163-6.648a7.34 7.34 0 0 0-7.874 6.746l-.645-.049.645.049c-.311 4.032 2.732 7.534 6.745 7.874 4.031.31 7.563-2.716 7.874-6.746.152-1.953-.468-3.847-1.742-5.334a7.28 7.28 0 0 0-4.811-2.523l-.192-.017z"/><path d="M213.901 108.684c.425-1.325 1.481-1.829 2.326-1.858.863-.03 1.989.434 2.545 1.827l1.201-.479c-.674-1.687-2.127-2.704-3.791-2.639-1.614.056-2.991 1.138-3.51 2.756l1.229.393zm-27.761 3.365a.63.63 0 0 0 .145-.033l10.822-3.807c.338-.117.516-.486.398-.823s-.485-.516-.823-.398l-10.822 3.807c-.338.118-.516.486-.398.823a.65.65 0 0 0 .678.431zm-2.871-1.44l-8.523.253s-1.911-8.429-2.665-13.489c-.149-.977-.307-3.045-.333-3.334-.471-5.352.439-11.433 4.1-14.702 2.656-2.364 5.752-3.854 8.864-4.806-1.362.76-1.811.982-3.903 3.241-1.349 1.585-2.102 3.376-2.53 5.34-.645 2.96-.328 4.427-.085 6.661.1.925.248 2.025.476 3.229 1.314 7.065 4.599 17.607 4.599 17.607z"/></g><path d="M187.732 125.375c1.707-5.576-.082-13.59-3.989-17.863-1.15-1.258-2.378-2.097-3.648-2.493-.933-.291-1.836-.323-2.68-.123l-2.972.686c-2.021.481-3.692 2.3-4.564 5.146-1.707 5.576.082 13.589 3.989 17.863 1.151 1.258 2.378 2.097 3.648 2.494.939.293 1.848.324 2.696.119l2.935-.677c2.031-.475 3.711-2.296 4.585-5.152z" class="F"/><path d="M177.518 131.084c-1.27-.396-2.497-1.235-3.648-2.494-3.907-4.274-5.697-12.287-3.989-17.863 1.238-4.042 4.088-6.014 7.262-5.024 1.27.396 2.497 1.235 3.647 2.493 3.907 4.274 5.697 12.287 3.99 17.863-1.239 4.043-4.089 6.015-7.262 5.025z" class="D"/><path d="M184.163 125.867c1.649-5.385-.074-13.097-3.847-17.225-1.888-2.065-3.931-2.84-5.709-2.426l-1.469.341c-1.779.41-3.292 2.01-4.117 4.705-1.649 5.385.073 13.097 3.847 17.225 1.887 2.064 3.93 2.84 5.706 2.426l1.478-.343c1.776-.412 3.287-2.011 4.111-4.703z" fill="#f0f0f0"/><path d="M178.839 108.984c3.774 4.128 5.496 11.84 3.847 17.225s-6.045 6.405-9.818 2.277-5.496-11.84-3.847-17.225 6.045-6.405 9.818-2.277z" class="I"/><path d="M182.686 126.209c1.649-5.385-.073-13.097-3.847-17.225-1.885-2.061-3.924-2.837-5.699-2.427-.497.115-1.409.391-1.906.507-1.775.413-3.284 2.011-4.108 4.702-1.649 5.385.073 13.097 3.847 17.225 1.884 2.061 3.923 2.837 5.697 2.428.498-.115 1.408-.391 1.904-.506 1.777-.413 3.288-2.012 4.112-4.704z" class="B"/><path d="M176.945 109.488c3.774 4.128 5.496 11.84 3.847 17.226s-6.045 6.405-9.819 2.277-5.496-11.84-3.847-17.225 6.046-6.406 9.819-2.278z" opacity=".15" class="E"/><path d="M174.46 114.545c1.982 2.168 2.887 6.219 2.021 9.047s-3.175 3.364-5.157 1.196-2.887-6.219-2.021-9.048 3.175-3.363 5.157-1.195z" class="D"/><path d="M176.053 117.905l-3.389 1.813-1.427-6.392c.932-.22 2.006.188 2.995 1.271.791.87 1.413 2.037 1.821 3.308z" class="C"/><path d="M176.253 123.647c-.433 1.413-1.227 2.255-2.16 2.467l-1.429-6.396 3.389-1.813c.602 1.904.72 4.044.2 5.742z" class="F"/><path d="M174.093 126.114c-.935.219-2.006-.188-2.998-1.271-.795-.868-1.413-2.037-1.816-3.311l3.385-1.814 1.429 6.396z" class="C"/><path d="M172.664 119.718l-3.385 1.814c-.605-1.905-.722-4.041-.202-5.736.434-1.416 1.227-2.254 2.161-2.47l1.426 6.392z" class="F"/><path d="M233.477 123.474s2.584 1.481 4.818 3.695 1.689 5.14.231 6.771l-1.955-.85s1.577-2.163.63-3.713-4.063-3.291-4.063-3.291l.339-2.612z"/><use href="#F" class="B"/><use href="#F" opacity=".1"/><path d="M211.844 200.863c5.452-3.229 8.154-4.42 10.59-4.848s11.09-3.017 14.356-3.487c2.072-.298 2.584 2.941-.204 4.864-2.148 1.481-7.52 3.172-9.902 4.169s-7.342 5.864-7.342 5.864l-7.498-6.562z" class="G"/><path d="M141.285 174.535c6.071-10.063 15.238-14.139 24.005-15.974 3.801 11.434-1.063 35.986-1.063 35.986l-8.064 25.301s30.229-1.343 33.881-3.167 13.836-10.674 17.217-13.291c4.603-3.562 6.642-2.826 8.754-2.301 6.915 1.717 8.398 2.446 9.793 3.516s1.103 2.814 1.103 2.814c1.841.41 4.635.624 4.702 3.665.044 2.006-.123 2.418-.123 2.418s.663.131 1.145.8c1.379 1.914-1.874 7.758-3.708 9.082-1.288.929-2.991.896-5.182.384-1.863-.435-.802-2.235-.802-2.235l-2.656-.103c-6.094 3.423-7.15 11.28-14.861 12.284-1.628.212-4.898-.151-9.384.858-16.764 3.774-44.968 17.418-59.559 17.232-14.242-.182-13.117-7.531-12.51-16.046.539-7.598 11.257-51.188 17.312-61.223z" class="K"/><path d="M226.91 207.42l-8.171-2.462 8.107 1.313c.091.396.115.78.064 1.149zm4.578 6.082l-9.471-2.155 9.589 1.064c.008.344-.038.71-.118 1.091zm-9.195 6.583c1.229-1.029 1.368-1.694 1.368-1.694l3.364.106c.441-.05.884-.128 1.315-.239.528-.156 1.062-.347 1.482-.732-.338.456-.858.775-1.398.974-.477.19-.976.291-1.488.357l-.66 1.102c.361.072.692.234.958.475.392.355.606.837.716 1.311a2.98 2.98 0 0 0-.876-1.121c-.371-.259-.843-.398-1.265-.359-2.161.279-2.867 1.266-2.867 1.266l-2.656-.103c0 .001 1.349-.793 2.007-1.343z" class="G"/><path d="M167.066 154.852c-14.463 2.126-20.883 5.449-27.018 18.507s-10.28 31.403-13.901 47.542-4.173 24.808-.356 28.546 13.033 4.796 21.475 2.373 38.695-13.387 38.695-13.387 2.899-2.885 2.055-11.366c-.838-8.42-3.573-9.727-3.573-9.727l-26.137.656 7.925-23.227c2.952-8.889 5.565-32.345.835-39.917z" class="B"/><path d="M159.532 214.447l-1.226 3.548c-6.836 1.036-16.32 9.798-18.27 13.223 1.798-5.556 7.453-14.838 19.496-16.771z" opacity=".2"/><g class="D"><path d="M340.687 125.977c-3.008 3.185-6.203 5.171-9.113 5.918a5.78 5.78 0 0 1-.393.098c-.098.03-.187.039-.275.059-.206.049-.413.079-.629.108a6.22 6.22 0 0 1-.718.069c-.157.01-.305.02-.452.02h-.207c-2.88-.029-5.279-1.494-6.606-4.444-.059-.128-.108-.256-.157-.383.187-.029.374-.049.56-.098.088-.02.187-.029.275-.059.138-.03.265-.059.393-.098 2.91-.747 6.115-2.743 9.123-5.918 7.049-7.432 10.47-18.63 7.776-25.266a8.33 8.33 0 0 1 1.701-.088c.02 0 .039 0 .059.01.079 0 .167 0 .246.01.089.01.177.01.256.029a1.22 1.22 0 0 1 .275.03c2.389.354 4.345 1.789 5.515 4.355 2.969 6.586-.443 18.068-7.629 25.648zm-1.647 14.431c-.25-.389-.916-.361-1.498.042l-2.116 1.339 7.387 4.279-.007-.014a.47.47 0 0 1-.173-.16l-3.593-5.486zm-20.697 15.176l2.213-10.043c.118-.513-.222-1.061-.721-1.255-1.103-.43-2.13-1.02-3.066-1.783-.374-.305-1.061-.194-1.567.264l-7.165 6.555c-.27.243-.548.368-.784.368l11.382 6.582a.62.62 0 0 1-.292-.688zm41.9-51.431l6.013.34c.167.007.319.049.437.111l-7.324-4.238-.139 2.809c-.048.507.403.944 1.013.978z"/><path d="M306.996 149.626a.51.51 0 0 0 .25.062c-.069-.049-.139-.083-.208-.125-.014.028-.028.056-.042.063z"/><path d="M306.774 149.39l-3.19-7.047c-.187-.423-.007-1.172.409-1.672l6.714-8.136c.416-.499.7-1.29.652-1.776-.173-1.838-.166-3.787.014-5.799.041-.506-.402-.943-1.013-.978l-6.02-.34c-.604-.035-.978-.486-.819-1.006l3.316-11.167c.159-.52.825-1.075 1.491-1.235l6.589-1.588c.666-.16 1.408-.721 1.672-1.248 1.047-2.095 2.226-4.155 3.544-6.145.34-.52.52-1.304.388-1.748l-2.143-7.262c-.132-.444.132-1.2.596-1.686l7.699-8.136c.465-.479 1.04-.562 1.297-.174l3.586 5.479c.257.388.916.361 1.505-.035 1.456-.999 2.906-1.838 4.342-2.518.645-.305 1.339-.95 1.533-1.477l3.801-10.196c.194-.527.881-1.006 1.533-1.068l7.012-.701c.264-.021.493.021.666.118a.62.62 0 0 1 .305.707l-2.212 10.036c-.111.52.229 1.061.721 1.255 1.11.43 2.136 1.02 3.066 1.783.375.305 1.061.201 1.568-.264l7.172-6.548c.368-.34.763-.451 1.027-.319l-14.136-8.191c-.076-.042-.173-.055-.271-.055l-8.267-4.8c-.173-.104-.416-.16-.693-.132l-7.013.694c-.652.069-1.338.548-1.533 1.068l-3.801 10.196c-.201.527-.888 1.172-1.533 1.484a30.19 30.19 0 0 0-2.233 1.172l-7.359-4.259c-.291-.194-.756-.069-1.138.333l-7.699 8.129c-.465.485-.728 1.242-.596 1.692l2.143 7.255c.132.451-.048 1.235-.395 1.748-1.311 1.991-2.497 4.058-3.537 6.152-.263.527-1.006 1.082-1.671 1.242l-6.589 1.588c-.666.16-1.339.714-1.491 1.242l-3.316 11.16a.72.72 0 0 0 .25.811c.146.118 7.463 4.328 7.463 4.328a30.16 30.16 0 0 0 .125 2.989c.049.479-.236 1.269-.652 1.776l-6.721 8.129c-.409.506-.597 1.255-.402 1.672l3.191 7.054c.048.104.118.18.201.229l11.048 6.402c-.085-.044-.154-.113-.196-.217z"/></g><path d="M340.917 65.463c-.168-.115-.408-.168-.691-.142l-7.016.7a2.04 2.04 0 0 0-1.169.558l11.073 6.387c.31-.284.735-.496 1.152-.531l7.016-.7c.266-.018.487.018.655.106l-11.02-6.378zm-24.164 10.213c-.292-.186-.753-.062-1.134.337l-7.706 8.131c-.257.275-.443.62-.54.965l11.064 6.343a2.33 2.33 0 0 1 .54-.895l7.698-8.131c.363-.372.788-.505 1.081-.363l-11.003-6.387zm-9.92 35.795c.044-.16.142-.319.275-.47l-11.091-6.378c-.106.142-.195.292-.239.434l-3.313 11.17c-.097.319.009.62.248.806.018.009.053.035.124.08l7.299 4.225c.026.018.044.027.044.027l3.668 2.135a.72.72 0 0 1-.328-.859l3.313-11.17zm-.062 37.92l-3.189-7.051c-.097-.213-.097-.523 0-.841l-11.073-6.405c-.08.319-.08.62.018.833l3.189 7.051c.053.106.124.186.204.23l.035.018 10.985 6.369a.49.49 0 0 1-.169-.204z" class="F"/><path d="M366.728 104.625c-.007-.007-.021-.014-.035-.021-.118-.062-.27-.104-.437-.111l-6.013-.34c-.61-.035-1.061-.472-1.013-.978l.139-2.809a28.18 28.18 0 0 0-.132-2.99c-.042-.479.243-1.269.659-1.776l6.714-8.129c.416-.506.597-1.256.409-1.672l-3.191-7.054c-.042-.097-.111-.173-.194-.222l-.041-.021c-.264-.132-.659-.021-1.027.319l-7.172 6.548c-.506.465-1.193.569-1.568.264-.93-.763-1.956-1.353-3.066-1.783-.493-.194-.832-.735-.721-1.255l2.213-10.036a.62.62 0 0 0-.305-.707c-.173-.097-.402-.139-.666-.118l-7.012.701c-.652.062-1.339.541-1.533 1.068l-3.801 10.196c-.194.527-.888 1.172-1.533 1.477-1.436.68-2.885 1.519-4.342 2.518-.59.395-1.249.423-1.505.035l-3.586-5.479c-.257-.388-.832-.305-1.297.173l-7.699 8.136c-.465.485-.728 1.242-.596 1.685l2.143 7.262c.132.444-.049 1.228-.389 1.748-1.318 1.991-2.497 4.051-3.544 6.145-.264.527-1.006 1.089-1.672 1.248l-6.589 1.588c-.666.16-1.332.714-1.491 1.235l-3.315 11.167c-.16.52.215.971.818 1.006l6.021.34c.61.035 1.054.472 1.013.978-.18 2.012-.187 3.961-.014 5.799.048.485-.236 1.276-.652 1.776l-6.714 8.136c-.416.499-.596 1.248-.409 1.672l3.19 7.047c.042.104.111.173.194.222.014.014.021.014.028.014.076.042.159.062.25.062h.007c.236 0 .513-.125.784-.368l7.165-6.555c.506-.458 1.193-.569 1.567-.264a11.36 11.36 0 0 0 3.066 1.783c.499.194.839.742.721 1.255l-2.213 10.043c-.062.298.056.541.292.687.007.007.014.007.021.014.166.097.395.146.659.118l7.012-.694c.652-.069 1.339-.548 1.533-1.068l3.808-10.196c.194-.527.888-1.172 1.533-1.484l2.227-1.172 2.116-1.339c.582-.402 1.248-.43 1.498-.042l3.593 5.486a.48.48 0 0 0 .173.16c.291.18.742.055 1.117-.34l7.706-8.136c.458-.479.721-1.242.589-1.686l-2.143-7.255c-.132-.451.056-1.235.396-1.748 1.318-1.991 2.497-4.057 3.537-6.152.264-.527 1.006-1.082 1.678-1.242l6.582-1.588c.673-.16 1.339-.714 1.491-1.242l3.322-11.16a.74.74 0 0 0-.354-.879zm-35.158 27.272l-.388.097c-.097.028-.187.042-.277.063l-.624.104-.724.07-.449.016h-.211c-2.879-.032-5.275-1.492-6.607-4.442-.499-1.103-.819-2.344-.964-3.676-.083-.659-.118-1.339-.111-2.039.042-6.36 3.308-14.24 8.698-19.934 1.741-1.838 3.537-3.274 5.313-4.307a15.8 15.8 0 0 1 1.769-.902c1.748-.77 3.433-1.124 4.973-1.054.021 0 .035 0 .056.007a2.99 2.99 0 0 1 .25.014 2.93 2.93 0 0 1 .257.028c.09.007.18.014.27.035 2.393.347 4.349 1.789 5.514 4.356 2.975 6.582-.437 18.068-7.622 25.649-3.012 3.176-6.21 5.166-9.123 5.915z" class="C"/><path d="M342.46 103.576l-3.705-2.137-.039-.021-.003.006c-1.645-.929-3.902-.789-6.398.652-5.027 2.902-9.103 9.961-9.103 15.766 0 2.898 1.017 4.934 2.658 5.887v.001l.008.004.001.001 3.371 1.924.805-1.347a9.23 9.23 0 0 0 2.611-1.016c5.027-2.902 9.102-9.961 9.104-15.766 0-.862-.116-1.621-.286-2.325l.976-1.629z" class="B"/><path d="M323.214 117.841c0 2.899 1.014 4.934 2.655 5.886v.004l.01.003 3.372 1.926.805-1.346c.829-.192 1.696-.49 2.611-1.018 2.69-1.552 5.109-4.3 6.774-7.404l-13.202-7.62c-1.856 2.993-3.025 6.461-3.025 9.569z" opacity=".1"/><path d="M342.46 103.576l-3.704-2.138-.041-.021-.003.007c-1.645-.929-3.899-.791-6.397.651-2.337 1.347-4.468 3.594-6.075 6.195l13.202 7.62c1.449-2.697 2.33-5.664 2.33-8.36 0-.864-.116-1.621-.288-2.327l.976-1.627z" opacity=".4" class="E"/><path d="M335.836 104.094c-5.027 2.902-9.103 9.961-9.103 15.766s4.075 8.158 9.102 5.255 9.103-9.961 9.103-15.766-4.075-8.157-9.102-5.255z" class="B"/><path d="M340.338 106.68c-.683-.279-1.453-.008-1.717.603l-4.685 10.829-1.226-1.101c-.536-.482-1.376-.495-1.874-.027s-.459 1.242.078 1.725l2.656 2.385c.255.229.587.361.934.37.087.002.175-.003.264-.017.428-.069.779-.329.936-.696l5.389-12.455c.265-.612-.074-1.337-.755-1.616z" class="E"/><path d="M55.693 159.465l-.002-58.242c0-1.162.816-2.576 1.822-3.157L122.78 60.46c1.007-.581 2.634-.573 3.635.018l5.524 3.308c1.001.591 1.812 2.013 1.812 3.175l.003 58.242c0 1.162-.816 2.576-1.823 3.157l-65.267 37.606c-1.007.581-2.634.573-3.635-.018l-5.524-3.308c-1.001-.591-1.812-2.012-1.812-3.175z" class="B"/><use href="#G" opacity=".35" class="E"/><path d="M66.366 166.111c-.867.335-1.525-.15-1.528-1.198l.004-58.238c.003-.584.205-1.227.537-1.798l-9.191-5.387c-.31.559-.499 1.173-.496 1.735l.001 58.245c-.002 1.158.808 2.577 1.812 3.173l5.521 3.306c.911.534 2.336.595 3.34.162z" opacity=".15"/><use href="#G" class="B"/><g class="E"><use href="#G" opacity=".35"/><path d="M79.639 120.322c-2.486 1.435-4.501 5.286-4.501 8.601s2.015 4.838 4.501 3.403 4.501-5.286 4.501-8.601-2.015-4.838-4.501-3.403zm21.081-12.172c-2.486 1.435-4.501 5.286-4.501 8.601s2.015 4.838 4.501 3.403 4.502-5.286 4.502-8.601-2.016-4.838-4.502-3.403zm21.082-12.171c-2.486 1.435-4.501 5.286-4.501 8.601s2.015 4.838 4.501 3.403 4.501-5.286 4.501-8.601-2.015-4.838-4.501-3.403z"/></g><path d="M458.816 384.503a16.87 16.87 0 0 0 .022 1.591c-.023.469-.322 1.183-1.347 2.081-1.785 1.564-5.902 2.613-9.169 2.104-2.863-.447-3.954-1.116-5.453-2.477-1.703-1.547-3.075-3.284-3.769-3.849-1.039-.846-3.03-1.871-5.639-2.692-2.746-.864-8.021-2.602-10.261-6.535s-1.306-7-1.306-7l36.922 16.777z" class="D"/><path d="M439.754 365.34c5.893 1.555 11.561 11.263 18.264 8.124.363 3.792 1.664 6.305.798 11.039-2.595 3.829-9.599 4.914-13.607 2.743-2.047-1.358-2.772-2.791-4.768-4.244-1.578-1.149-3.342-1.79-5.316-2.442-1.807-.596-4.895-1.839-6.398-2.629-6.725-3.822-8.465-10.218-5.404-13.515 2.445-2.633 7.104-1.537 16.431.924z" class="C"/><path d="M436.897 364.595l-.845-.214c-2.906-.034-5.769 1.196-7.798 3.319-2.166 2.267-2.617 6.854-2.613 8.007l.208.187s-.159.965-1.599-.922-2.753-4.212-2.678-7.132 1.799-5.052 5.467-5.126c2.755-.056 9.981 1.294 9.858 1.881z" class="H"/><path d="M426.472 400.315c.09-.002-.046 2.002-.162 2.218-.293.546-1.036.833-1.565.993-3.132.953-6.438 1.035-9.551 1.963-2.047.61-4.065 1.332-6.023 2.213-2.007.903-3.851 1.877-5.98 2.446-4.601 1.23-10.067 1.274-13.482-.023-6.389-2.427-6.054-4.487-6.038-6.803s42.8-3.007 42.801-3.007z" class="D"/><path d="M425.08 384.899c1.184 4.708 2.502 11.77 1.391 15.414-1.264 1.407-5.619 2.344-9.421 3.002-3.57.618-6.801 1.712-10.003 3.629-7.313 3.489-19.69 2.831-23.148-2.405-2.37-7.536 11.893-8.085 20.129-13.989 2.064-1.479 2.398-2.857 2.993-5.156.002.001 13.194.773 18.059-.495z" class="C"/><path d="M402.453 408.476c.693-1.511 1.337-6.062-1.572-9.236s-6.965-3.822-8.711-3.43c-2.052.475-5.864 2.272-7.402 3.978s-2.225 4.468.486 6.524 8.027 4.199 17.199 2.164z" class="H"/><path d="M457.731 325.499c-.576-9.898-4.297-18.084-4.209-23.548.171-10.507-.379-17.476.471-26.203.905-9.296 1.219-16.999.798-23.578s-1.578-12.037-2.474-20.306c0 0-51.121-3.227-52.167 16.083s.298 68.521.938 77.005c.388 8.602 4.831 56.119 4.957 62.184 8.811 6.399 19.829 1.089 19.829 1.089 1.257-21.553 5.347-35.093 1.507-54.115.001.002 2.234-28.106 2.234-28.106l11.233 67.575c4.449 6.084 15.308 3.764 17.274-.007-.304-19.892.308-36.055-.391-48.073z" class="F"/><path d="M429.614 306.004l2.169-32.26s8.651-1.679 14.907-9.549c-1.621 6.225-8.473 11.743-12.854 13.345l-1.395 21.874.967 30.223-3.794-23.633z" class="D"/><path d="M395.011 232.218c-1.884-3.881-4.117-6.685-6.793-9.15-4.7 1.178-11.164 2.612-13.766 3.084-3.085.559-8.017 1.817-11.442.459-1.013-.402-1.944-.973-3.174-1.605-1-.514-1.864-.798-2.974-1.127-2.35-.697-4.855-.521-7.289-.603-.151-.005-.305-.01-.449.037-.313.103-.505.442-.515.771s.129.646.306.923c.656 1.028 2.079 1.416 3.167 1.807 1.198.431 2.453.853 3.383 1.763.074.072.151.164.136.266-.021.139-.189.195-.327.219-3.746.666-7.615-.137-11.186-1.448-.802-.295-1.604-.617-2.45-.736-.738-.103-1.721.009-2.367.4-.333.202-.492.482-.581.875-.143.629.253.894.778 1.207-.57-.084-1.148-.168-1.722-.104s-1.15.294-1.516.739-.468 1.13-.144 1.606c.195.287.511.466.821.623a13.36 13.36 0 0 0 .663.313c.22.096.442.187.666.271.372.14.725.281.999.581.267.294.182.752.245 1.124.091.541.429 1.016.849 1.368s.92.593 1.423.812c2.116.92 4.365 1.494 6.627 1.947.348.07.698.137 1.023.278.068.029.145.078.141.152-.004.086-.11.122-.195.135-1.522.23-2.005.314-3.511.021-.705-.134-1.805-.516-2.522-.524s-1.434.107-1.932.623c-.075.078-.146.168-.164.275-.117.719 2.158 1.454 2.632 1.62 2.244.786 4.995 1.201 7.915 1.126 3.225-.083 5.848-1.632 9.051-1.937 3.275-.312 3.494-.371 8.172-.705 5.696-.406 16.414-1.234 21.346-1.838 2.625-.322 4.725-.581 6.623-1.206a68.12 68.12 0 0 0-1.947-4.442z" class="J"/><path d="M354.122 232.856l-3.465-.218c-1.086-.107-2.165-.292-3.229-.533l-3.355-.922-3.517-1.133c-.031-.008-.033.041-.011.053 1.033.532 2.128.949 3.23 1.361 1.07.4 2.166.749 3.289 1.002 2.267.511 4.771.722 7.052.499.048-.005.059-.106.006-.109zm-1.163 3.242l-3.465-.217c-1.086-.106-2.165-.292-3.229-.533l-3.355-.923-3.516-1.135c-.032-.008-.033.042-.011.053 1.033.533 2.128.951 3.229 1.364 1.07.401 2.166.75 3.289 1.003 2.267.511 4.771.722 7.053.496.047-.003.058-.104.005-.108z" class="L"/><path d="M421.358 173.661l1.782 13.051 17.729-.902-1.917-14.134z" class="J"/><path d="M414.299 149.256c-1.362 1.732-5.603 6.96-5.765 7.962l3.462 2.119 2.303-10.081z" class="L"/><path d="M424.156 136.131c-5.478-.589-9.031 3.294-10.624 14.953-.062.457-.739 1.174-1.251 2.919-2.195 7.483-.967 14.607.298 16.503 3.174 2.552 6.702 3.504 11.814 3.069 3.896-.331 13.831-1.515 18.87-6.774 5.926-6.188 8.919-15.514 4.71-20.353-5.924-6.811-20.799-9.993-23.817-10.317z" class="J"/><path d="M412.58 170.505c.701 1.048 5.657 3.621 8.808 3.822l.001-2.452c0-.001-4.495-.018-8.809-1.37z" class="L"/><path d="M423.074 156.563c.381.892 1.284.971 1.83.303.656-.802 1.169-1.667 1.999-2.317.96-.752 2.171-1.237 3.387-1.145 4.599.35 3.477 6.408 1.219 8.516-3.695 3.45-5.659.47-5.659.47s-2.651 5.86 1.214 9.284c0 0 6.674 2.885 11.915 1.258 3.922-4.226 6.546-6.891 9.182-10.526 6.247-8.612 6.255-17.127 2.25-19.563.225-3.057-1.429-7.649-7.705-10.302-5.98-2.528-9.982-2.277-14.306-2.037s-9.638 2.213-13.651-1.141c-1.006 2.405-.749 5.299.665 7.489-1.277-.573-2.956.042-3.561 1.303s-.031 2.956 1.215 3.592c-.884.439-1.295 1.595-.979 2.531s1.264 1.588 2.248 1.66c1.042.076 1.692-.023 2.717-.173 1.261 3.532 5.247 4.767 7.614 4.618-.066-.013-.372.484-.417.549a7.2 7.2 0 0 0-.376.611 7.49 7.49 0 0 0-.566 1.318c-.292.911-.41 1.88-.334 2.834.026.3-.022.585.099.868z" class="D"/><path d="M443.346 178.943c6.59-.31 13.124 1.64 17.123 10.804 3.786 8.674 9.104 21.197 11.059 27.494.953 3.071 2.697 5.832-3.032 11.242-7.839 7.402-17.575 12.523-17.575 12.523l-5.76-12.334 9.002-8.636-3.972-8.25-6.845-32.843z" class="C"/><path d="M454.164 220.036c.945 1.558 3.121 3.726 5.337 4.507-2.531.613-5.311-2.111-6.16-3.718l.823-.789z" class="D"/><use href="#H" class="B"/><g opacity=".4" class="E"><use href="#H"/></g><path d="M410.552 183.17c-8.333 2.074-11.008 7.594-13.495 14.826-1.11 3.226-9.095 24.385-9.095 24.385l-14.607 3.475s-1.559 3.398-.162 7.666 3.285 6.296 3.285 6.296 15.363-1.115 19.905-2.076c2.385-.505 6.204-2.287 8.622-6.943s7.321-14.809 8.155-16.89c2.67-6.661 3.827-11.488 3.824-14.114-.007-6.455-1.094-14.488-6.432-16.625zm19.007-121.202c-14.576.024-26.404 11.913-26.367 26.477.036 13.068 9.604 23.924 22.088 26.003l2.978 7.646c.51 1.301 2.358 1.301 2.869-.012l2.942-7.659c12.485-2.127 22.003-13.032 21.966-26.088-.036-14.576-11.912-26.404-26.476-26.367zm.073 50.765c-13.457 0-24.349-10.904-24.349-24.349s10.892-24.349 24.349-24.349c13.445 0 24.337 10.904 24.337 24.349s-10.892 24.349-24.337 24.349z" class="C"/><circle cx="429.627" cy="88.385" r="24.348" class="E"/><path d="M419.703 75.917a17.77 17.77 0 0 1 1.899-1.453 13.76 13.76 0 0 1 2.23-1.198c.798-.339 1.665-.607 2.599-.802s1.945-.293 3.032-.293c1.479 0 2.825.204 4.04.612s2.255.99 3.121 1.746 1.538 1.669 2.014 2.739.713 2.268.713 3.593c0 1.291-.186 2.409-.56 3.351s-.841 1.763-1.401 2.459-1.177 1.3-1.848 1.809l-1.898 1.44c-.595.45-1.11.892-1.543 1.325s-.692.922-.777 1.465l-.585 3.721h-4.307l-.433-4.154c-.102-.798.013-1.499.344-2.102a6.39 6.39 0 0 1 1.325-1.657 17.63 17.63 0 0 1 1.847-1.453c.679-.467 1.317-.977 1.911-1.529a8.01 8.01 0 0 0 1.491-1.86c.399-.689.599-1.508.599-2.46 0-.612-.114-1.159-.344-1.643a3.7 3.7 0 0 0-.955-1.249c-.408-.348-.897-.616-1.466-.803s-1.185-.28-1.847-.28c-.968 0-1.788.106-2.459.319s-1.241.45-1.708.714l-1.185.713c-.322.213-.611.319-.866.319-.612 0-1.054-.254-1.326-.764l-1.657-2.625zm4.818 27.231a3.93 3.93 0 0 1 .293-1.504 3.69 3.69 0 0 1 .803-1.223c.34-.34.748-.612 1.223-.816a3.84 3.84 0 0 1 1.529-.306c.544 0 1.048.102 1.516.306s.875.476 1.223.816.624.748.828 1.223.306.977.306 1.504c0 .544-.102 1.049-.306 1.516a3.79 3.79 0 0 1-.828 1.211 3.89 3.89 0 0 1-1.223.803 3.9 3.9 0 0 1-1.516.293c-.544 0-1.054-.098-1.529-.293a3.67 3.67 0 0 1-1.223-.803c-.34-.34-.607-.743-.803-1.211s-.293-.971-.293-1.516z" class="B"/><defs ><path id="B" d="M77.125 370.991l-13.893 8.02c.185-4.958.617-12.333-.067-17.297-4.195-30.365-16.024-40.377-21.649-55.156-5.923-15.564 1.301-20.573 10.685-17.774 8.368 2.496 20.477 14.88 24.291 37.539 2.534 15.077 2.085 31.449.633 44.668z"/><path id="C" d="M67.135 376.757l-7.818 4.515h-.006c-4.156-12.238-8.424-17.14-13.724-25.189-4.829-7.325-10.443-11.862-13.427-17.011-2.642-4.56-4.627-10.286-.701-13.753 6.248-5.519 14.403.32 20.012 6.63 4.845 5.458 14.593 19.973 15.664 44.808z"/><path id="D" d="M163.405 375.865c0-7.926-5.237-15.852-15.712-21.899-20.948-12.094-54.914-12.094-75.86 0-10.475 6.047-15.712 13.973-15.712 21.899v13.576c0 7.926 5.239 15.852 15.712 21.899 20.951 12.094 54.914 12.094 75.863 0 10.475-6.047 15.71-13.974 15.71-21.899l-.001-13.576z"/><path id="E" d="M104.984 345.019c15.274-.784 31.018 2.197 42.709 8.947 10.475 6.047 15.712 13.974 15.712 21.899v13.576c0 7.925-5.234 15.852-15.71 21.899-11.692 6.75-27.437 9.731-42.711 8.946v-75.267z"/><path id="F" d="M237.964 132.429c-1.479-1.168-2.5-.308-4.287 2.242s-1.152 3.499.149 4.366 2.597.175 3.982-1.957c1.558-2.398 1.75-3.392.156-4.651z"/><path id="G" d="M133.755 125.203l-.003-58.242c0-1.162-.816-1.634-1.823-1.052l-65.267 37.606c-1.007.581-1.823 1.995-1.823 3.157l.002 58.242c0 1.163.816 1.634 1.823 1.052l41.006-23.591 13.824 4.568c1.784.59 3.448-1.166 2.764-2.916l-3.578-9.148 11.251-6.518c1.008-.582 1.824-1.995 1.824-3.158z"/><path id="H" d="M448.093 180.904c4.599 2.574 8.092 11.167 7.754 18.339-.214 4.539-1.81 16.26-3.169 26.623-.428 3.265.871 8.773 1.474 15.397l1.001 10.1s-6.657 7.666-23.577 8.662c-21.597 1.271-32.055-4.338-32.055-4.338l1.281-31.146c.772-20.665.815-26.711 4.046-33.745 1.068-2.079 2.186-6.71 5.705-7.625 2.788-.725 9.219-2.265 11.765-2.653 4.175 1.075 15.001 1.165 17.683-1.119l-.044-.601c4.644-.056 5.299.518 8.136 2.106z"/></defs></svg>