<?xml version="1.0" encoding="utf-8"?>
<!-- Generator: Adobe Illustrator 27.5.0, SVG Export Plug-In . SVG Version: 6.00 Build 0)  -->
<svg version="1.1" xmlns="http://www.w3.org/2000/svg" xmlns:xlink="http://www.w3.org/1999/xlink" x="0px" y="0px"
	 viewBox="0 0 2475 1650" style="enable-background:new 0 0 2475 1650;" xml:space="preserve">
<g id="Background">
	<rect style="fill:#FFFFFF;" width="2475" height="1650"/>
</g>
<g id="Illustration">
	<g>
		<g>
			<linearGradient id="SVGID_1_" gradientUnits="userSpaceOnUse" x1="125.2522" y1="805.4296" x2="2331.165" y2="805.4296">
				<stop  offset="0" style="stop-color:#DAE3FE"/>
				<stop  offset="1" style="stop-color:#E9EFFD"/>
			</linearGradient>
			<path style="fill:url(#SVGID_1_);" d="M2261.82,793.782c-42.031-53.843-101.03-95.01-131.765-156.011
				c-46.937-93.156-16.485-207.875-48.615-307.116c-27.537-85.053-100.022-150.638-182.521-185.078
				c-82.499-34.44-174.256-40.777-263.488-35.306c-184.994,11.342-366.702,72.458-520.948,175.218
				c-75.958,50.603-145.334,111.032-224.169,157.025c-78.835,45.994-171,77.321-260.97,61.97
				c-89.887-15.336-165.154-74.338-247.527-113.447c-32.195-15.285-68.38-26.934-104.45-31.688
				c-78.883-10.396-149.477,50.101-151.941,129.629c-2.1,67.785,14.866,136.249,49.893,194.377
				c43.939,72.917,112.436,127.329,166.075,193.438c53.639,66.109,93.185,155.427,64.151,235.456
				c-24.766,68.266-96.032,120.469-94.035,193.061c2.09,75.935,82.552,123.138,154.714,146.868
				c212.468,69.871,448.24,66.621,658.701-9.08c121.026-43.532,237.371-110.953,365.887-116.045
				c135.026-5.351,263.795,59.294,398.738,66.448c147.652,7.828,300.214-60.938,381.596-184.385
				C2352.53,1085.668,2352.801,910.335,2261.82,793.782z"/>
		</g>
		<g>
			<path style="fill:#91B3FA;" d="M2060.53,885.314c-20.679-51.669-14.198-110.593,17.018-156.668
				c23.007-33.959,42.26-73.534,55.101-115.518c41.999-137.313-0.475-248.389-86.71-274.765
				c-86.235-26.376-183.577,41.937-225.575,179.25c-12.841,41.985-19.02,85.558-18.946,126.577
				c0.101,55.653-27.488,108.121-73.532,139.382c-67.779,46.018-125.395,124.299-155.204,221.758
				c-56.404,184.411-15.818,451.999,120.168,493.591c135.986,41.593,315.878-158.56,372.281-342.971
				C2094.939,1058.491,2090.97,961.373,2060.53,885.314z"/>
			<path style="fill:#BDD0FB;" d="M2028.891,421.436c-24.086,68.682-48.088,137.361-71.626,206.174
				c-11.793,34.398-23.406,68.853-34.961,103.319l-17.078,51.781c-5.718,17.25-11.353,34.526-16.908,51.826
				c-5.555,17.299-11.052,34.617-16.431,51.968l-8.172,25.994l-7.998,26.044c-10.431,34.79-21.077,69.521-30.789,104.504
				c-9.929,34.923-19.308,69.992-27.991,105.235c-8.662,35.251-16.355,70.727-22.281,106.596c-0.109,0.686-0.753,1.153-1.438,1.045
				c-0.646-0.103-1.098-0.694-1.057-1.334c2.675-36.408,8.439-72.548,15.395-108.359c6.965-35.829,15.318-71.356,24.227-106.723
				c9.129-35.31,18.859-70.45,29.306-105.37l7.856-26.182l8.064-26.114c5.481-17.376,11.08-34.713,16.734-52.029
				c5.656-17.316,11.39-34.605,17.206-51.865c5.886-17.236,11.841-34.448,17.876-51.63c6.028-17.185,12.079-34.359,18.284-51.479
				l18.86-51.266c25.51-68.215,51.967-136.069,80.586-203.055c0.273-0.638,1.011-0.934,1.65-0.662
				C2028.813,420.117,2029.106,420.818,2028.891,421.436z"/>
		</g>
		<g>
			<path style="fill:#BDD0FB;" d="M1877.166,1155.653c4.395,35.408-9.233,70.886-36.102,94.363
				c-19.803,17.304-38.194,38.701-53.004,62.639c-48.434,78.288-40.214,154.086,8.952,184.503
				c49.167,30.417,120.662,3.937,169.096-74.352c14.809-23.938,25.747-49.946,32.39-75.391
				c9.014-34.523,34.677-62.555,68.324-74.429c49.529-17.478,98.02-56.619,132.396-112.185
				c65.047-105.141,83.522-277.672,5.99-325.638c-77.532-47.966-221.712,46.796-286.759,151.937
				C1884.074,1042.666,1870.696,1103.53,1877.166,1155.653z"/>
			<path style="fill:#91B3FA;" d="M1821.13,1448.43c26.135-38.656,52.218-77.325,78.035-116.152
				c12.922-19.405,25.741-38.874,38.527-58.359l19.033-29.32c6.359-9.763,12.67-19.556,18.936-29.376
				c6.265-9.82,12.498-19.661,18.663-29.542l9.306-14.785l9.207-14.844c12.141-19.87,24.406-39.667,36.133-59.774
				c11.851-20.034,23.386-40.248,34.517-60.684c11.12-20.444,21.676-41.185,31.199-62.459c0.179-0.407,0.655-0.592,1.062-0.413
				c0.384,0.169,0.568,0.609,0.438,0.999c-7.596,22.138-17.064,43.605-27.217,64.675c-10.162,21.079-21.135,41.745-32.426,62.22
				c-11.419,20.405-23.183,40.605-35.355,60.553l-9.141,14.952l-9.259,14.876c-6.232,9.88-12.531,19.716-18.861,29.53
				c-6.331,9.814-12.706,19.599-19.127,29.351c-6.461,9.727-12.96,19.427-19.503,29.097c-6.54,9.672-13.093,19.333-19.732,28.936
				l-20.054,28.71c-26.942,38.135-54.412,75.891-83.081,112.757c-0.273,0.351-0.779,0.414-1.131,0.141
				C1820.964,1449.26,1820.896,1448.778,1821.13,1448.43z"/>
		</g>
		<g>
			
				<linearGradient id="SVGID_00000112610340656510174140000014844180126936770192_" gradientUnits="userSpaceOnUse" x1="355.5078" y1="169.6724" x2="769.425" y2="607.5842">
				<stop  offset="0" style="stop-color:#09005D"/>
				<stop  offset="1" style="stop-color:#1A0F91"/>
			</linearGradient>
			<path style="fill:url(#SVGID_00000112610340656510174140000014844180126936770192_);" d="M463.895,506.023
				c0,0-71.398-184.446,11.9-263.778s198.329,1.983,261.795,150.73l25.783,103.131L463.895,506.023z"/>
			
				<linearGradient id="SVGID_00000176036479749120121290000007983350590106628747_" gradientUnits="userSpaceOnUse" x1="1018.7158" y1="171.4976" x2="868.746" y2="627.4054">
				<stop  offset="0" style="stop-color:#09005D"/>
				<stop  offset="1" style="stop-color:#1A0F91"/>
			</linearGradient>
			<path style="fill:url(#SVGID_00000176036479749120121290000007983350590106628747_);" d="M781.222,482.223l-11.9-73.382
				c0,0,89.248-136.847,194.363-176.513c105.115-39.666,178.496,37.683,113.048,283.611L781.222,482.223z"/>
			
				<linearGradient id="SVGID_00000082352051406655447880000005189296156600511365_" gradientUnits="userSpaceOnUse" x1="779.4777" y1="-8.7349" x2="767.48" y2="285.2065">
				<stop  offset="0" style="stop-color:#09005D"/>
				<stop  offset="1" style="stop-color:#1A0F91"/>
			</linearGradient>
			<path style="fill:url(#SVGID_00000082352051406655447880000005189296156600511365_);" d="M727.673,492.14
				c0,0-45.616-75.365,5.95-91.232c51.566-15.866,93.585,13.037,74.559,86.842L727.673,492.14z"/>
			
				<linearGradient id="SVGID_00000111170134527920168390000000179306810418900905_" gradientUnits="userSpaceOnUse" x1="432.0742" y1="1064.3182" x2="-56.9748" y2="1379.3499">
				<stop  offset="0" style="stop-color:#4042E2"/>
				<stop  offset="1" style="stop-color:#4F52FF"/>
			</linearGradient>
			<path style="fill:url(#SVGID_00000111170134527920168390000000179306810418900905_);" d="M233.045,601.912
				c20.713,122.818,134.493,711.634,162.926,858.532c3.738,19.312,20.645,33.259,40.316,33.259h279.486L521.411,440.574
				l-271.739,129.4C237.615,575.715,230.824,588.744,233.045,601.912z"/>
			
				<linearGradient id="SVGID_00000091695090063905920040000011386143048455762053_" gradientUnits="userSpaceOnUse" x1="952.7883" y1="1555.7291" x2="886.8021" y2="499.9402">
				<stop  offset="0" style="stop-color:#4042E2"/>
				<stop  offset="1" style="stop-color:#4F52FF"/>
			</linearGradient>
			<path style="fill:url(#SVGID_00000091695090063905920040000011386143048455762053_);" d="M1207.071,483.428l-685.661-42.854
				l181.608,1054.379h488.41c20.037,0,36.411-15.992,36.884-36.024l21.905-928.474
				C1250.801,505.735,1231.75,484.97,1207.071,483.428z"/>
			
				<linearGradient id="SVGID_00000139994829177666638600000014437819863613758609_" gradientUnits="userSpaceOnUse" x1="693.4191" y1="-587.174" x2="603.4374" y2="18.7048">
				<stop  offset="0" style="stop-color:#09005D"/>
				<stop  offset="1" style="stop-color:#1A0F91"/>
			</linearGradient>
			<polygon style="fill:url(#SVGID_00000139994829177666638600000014437819863613758609_);" points="302.321,544.902 
				512.247,1493.703 607.347,1493.703 425.142,486.416 			"/>
			
				<linearGradient id="SVGID_00000045577452738698052330000008477668031700387518_" gradientUnits="userSpaceOnUse" x1="1149.4594" y1="-519.442" x2="1059.4777" y2="86.4365">
				<stop  offset="0" style="stop-color:#09005D"/>
				<stop  offset="1" style="stop-color:#1A0F91"/>
			</linearGradient>
			<path style="fill:url(#SVGID_00000045577452738698052330000008477668031700387518_);" d="M933.14,1494.953h65.773
				c-1.533-184.87-6.446-791.616-9.557-1025.132l-134.191-8.387C870.644,648.687,916.154,1212.894,933.14,1494.953z"/>
			
				<linearGradient id="SVGID_00000091734226108472993380000001483196894034561698_" gradientUnits="userSpaceOnUse" x1="1235.061" y1="1.7803" x2="1055.097" y2="397.7003">
				<stop  offset="0" style="stop-color:#09005D"/>
				<stop  offset="1" style="stop-color:#1A0F91"/>
			</linearGradient>
			<path style="fill:url(#SVGID_00000091734226108472993380000001483196894034561698_);" d="M780.335,458.38
				c-4.516,0.195-6.344-5.746-2.467-8.071c26.978-16.182,92.955-46.348,182.582-23.393
				c100.994,25.866,193.949,110.054,259.917,134.569c10.704,3.978,10.666,19.008-0.018,23.042
				c-21.429,8.09-50.542,13.949-77.801,2.517c-3.026-1.269-6.309,1.135-6.002,4.402c1.465,15.58,3.763,51.776-3.068,78.856
				c-2.307,9.149-13.618,12.41-20.423,5.874c-16.889-16.223-45.509-46.184-60.431-75.848
				C1031.235,557.805,959.163,450.639,780.335,458.38z"/>
			<path style="fill:#BDD0FB;" d="M813.48,389.259c-0.254,0-0.507-0.097-0.7-0.29c-0.388-0.387-0.388-1.015-0.002-1.402
				c42.565-42.655,95.539-95.741,159.315-126.421c14.226-6.844,32.913-14.311,51.399-11.239
				c17.302,2.872,34.695,18.317,33.011,36.732c-0.05,0.546-0.547,0.952-1.078,0.898c-0.545-0.05-0.947-0.533-0.898-1.078
				c1.584-17.317-14.937-31.868-31.361-34.595c-17.913-2.977-36.249,4.353-50.214,11.071
				c-63.471,30.533-116.312,83.485-158.771,126.034C813.989,389.162,813.734,389.259,813.48,389.259z"/>
			<path style="fill:#BDD0FB;" d="M709.287,387.299c-0.292,0-0.581-0.128-0.778-0.375l-67.786-85.261
				c-17.081-21.483-38.338-48.221-67.712-58.399c-19.348-6.706-41.096-5.603-59.667,3.022c-18.57,8.626-33.442,24.532-40.801,43.64
				c-0.197,0.512-0.776,0.763-1.282,0.569c-0.511-0.198-0.766-0.771-0.569-1.282c7.543-19.584,22.785-35.886,41.818-44.727
				c19.033-8.84,41.323-9.969,61.151-3.098c29.919,10.368,51.375,37.355,68.616,59.04l67.786,85.261
				c0.341,0.428,0.269,1.053-0.16,1.394C709.721,387.229,709.503,387.299,709.287,387.299z"/>
		</g>
		<g>
			
				<linearGradient id="SVGID_00000054948671254451878180000016512799759147546808_" gradientUnits="userSpaceOnUse" x1="616.6086" y1="1038.537" x2="785.1926" y2="1038.537">
				<stop  offset="0" style="stop-color:#FE7062"/>
				<stop  offset="1" style="stop-color:#FF928E"/>
			</linearGradient>
			<path style="fill:url(#SVGID_00000054948671254451878180000016512799759147546808_);" d="M678.091,1038.537
				c0-181.744,47.515-329.979,107.102-337.804l-0.004-0.347h-61.482l0.004,0.347c-59.587,7.826-107.102,156.06-107.102,337.804
				c0,186.756,50.169,338.151,112.056,338.151c0.994,0,1.985-0.042,2.974-0.12l0.001,0.12l50.218-0.922
				C723.842,1362.963,678.091,1216.878,678.091,1038.537z"/>
			<g>
				
					<linearGradient id="SVGID_00000003106071132555382290000006673309892581343421_" gradientUnits="userSpaceOnUse" x1="1814.6648" y1="412.0492" x2="1802.6674" y2="795.9722">
					<stop  offset="0" style="stop-color:#09005D"/>
					<stop  offset="1" style="stop-color:#1A0F91"/>
				</linearGradient>
				<path style="fill:url(#SVGID_00000003106071132555382290000006673309892581343421_);" d="M1846.857,1521.469h-132.232
					c-6.696,0-13.135-2.826-17.667-7.754c-4.531-4.926-6.809-11.577-6.249-18.248c2.966-35.369,13.396-159.527,23.071-272.195
					c5.426-63.185,9.798-113.255,12.995-148.822c1.858-20.677,3.343-36.702,4.411-47.63c2.163-22.118,2.163-22.118,5.5-25.456
					l15.125-15.125l118.412,505.759c1.68,7.177,0.017,14.607-4.562,20.382C1861.082,1518.157,1854.228,1521.469,1846.857,1521.469z
					 M1747.085,1013.746c-8.359,93.497-20.016,332.943-32.66,483.71l0.199,0.213h132.232l11.781-2.957l-11.586,2.713
					L1747.085,1013.746z"/>
				
					<linearGradient id="SVGID_00000111161006399025251440000002124617880825068710_" gradientUnits="userSpaceOnUse" x1="1808.1987" y1="942.2549" x2="1672.2656" y2="1138.7672">
					<stop  offset="0" style="stop-color:#FF928E"/>
					<stop  offset="1" style="stop-color:#FEB3B1"/>
				</linearGradient>
				
					<ellipse style="fill:url(#SVGID_00000111161006399025251440000002124617880825068710_);" cx="1747.085" cy="1030.604" rx="33.716" ry="68.424"/>
			</g>
			<g style="opacity:0.49;">
				<path style="fill:#FFFFFF;" d="M1771.876,700.386H745.523l0.004,0.347c-59.587,7.826-107.102,156.06-107.102,337.804
					c0,186.756,50.169,338.151,112.056,338.151c0.994,0,1.985-0.042,2.974-0.12l0.001,0.12l1019.412-17.85v-0.037
					c-0.331,0.009-0.66,0.037-0.992,0.037c-61.887,0-112.056-147.4-112.056-329.227S1709.99,700.386,1771.876,700.386z"/>
			</g>
			
				<linearGradient id="SVGID_00000073688516605659698150000002465235944512419771_" gradientUnits="userSpaceOnUse" x1="1612.2214" y1="1030.4799" x2="1772.868" y2="1030.4799">
				<stop  offset="0" style="stop-color:#FF928E"/>
				<stop  offset="1" style="stop-color:#FEB3B1"/>
			</linearGradient>
			<path style="fill:url(#SVGID_00000073688516605659698150000002465235944512419771_);" d="M1772.868,1358.802
				c-0.331,0.009-0.66,0.037-0.992,0.037c-61.887,0-112.056-147.4-112.056-329.227s50.169-329.226,112.056-329.226h-80.977
				c-45.879,49.958-78.678,182.479-78.678,338.151c0,141.115,26.952,263.214,66.165,322.037l94.481-1.735V1358.802z"/>
			
				<linearGradient id="SVGID_00000108296131016589302870000001295362248076126090_" gradientUnits="userSpaceOnUse" x1="1043.3445" y1="1245.9467" x2="1165.3201" y2="1245.9467">
				<stop  offset="0" style="stop-color:#4042E2"/>
				<stop  offset="1" style="stop-color:#4F52FF"/>
			</linearGradient>
			<path style="fill:url(#SVGID_00000108296131016589302870000001295362248076126090_);" d="M1092.116,1319.672
				c-10.534-27.162-36.948-96.303-48.065-134.868c-3.247-11.263,5.086-22.531,16.804-22.786l54.911-1.194
				c8.457-0.184,15.886,5.585,17.802,13.825l31.278,134.495c2.607,11.211-5.904,21.928-17.414,21.928h-38.654
				C1101.401,1331.073,1094.785,1326.553,1092.116,1319.672z"/>
			
				<linearGradient id="SVGID_00000010294651473829350500000012202975825021219970_" gradientUnits="userSpaceOnUse" x1="1287.8837" y1="1258.5453" x2="1481.8868" y2="1258.5453">
				<stop  offset="0" style="stop-color:#4042E2"/>
				<stop  offset="1" style="stop-color:#4F52FF"/>
			</linearGradient>
			<path style="fill:url(#SVGID_00000010294651473829350500000012202975825021219970_);" d="M1288.589,1277.62l39.663-107.884
				c2.916-7.931,13.127-10.075,18.987-3.987l131.449,136.571c4.629,4.809,4.177,12.542-0.981,16.779l-40.362,33.155
				c-3.421,2.81-8.155,3.395-12.157,1.502l-130.75-61.841C1289.082,1289.381,1286.545,1283.18,1288.589,1277.62z"/>
			
				<linearGradient id="SVGID_00000145752906122863441910000001281316396744108424_" gradientUnits="userSpaceOnUse" x1="1178.6069" y1="1282.8043" x2="1398.7777" y2="1282.8043">
				<stop  offset="0" style="stop-color:#4042E2"/>
				<stop  offset="1" style="stop-color:#4F52FF"/>
			</linearGradient>
			<path style="fill:url(#SVGID_00000145752906122863441910000001281316396744108424_);" d="M1180.482,1289.338l44.669-72.96
				c3.521-5.751,10.924-7.748,16.859-4.546l150.094,80.95c7.723,4.165,8.996,14.721,2.484,20.602l-42.781,38.641
				c-3.317,2.996-7.964,4.028-12.238,2.717l-151.982-46.631C1179.656,1305.677,1176.15,1296.415,1180.482,1289.338z"/>
			
				<linearGradient id="SVGID_00000051359945500812651980000003859807451775346096_" gradientUnits="userSpaceOnUse" x1="1356.9708" y1="1262.9915" x2="1567.204" y2="1262.9915">
				<stop  offset="0" style="stop-color:#4042E2"/>
				<stop  offset="1" style="stop-color:#4F52FF"/>
			</linearGradient>
			<path style="fill:url(#SVGID_00000051359945500812651980000003859807451775346096_);" d="M1359.409,1306.455l27.798,36.138
				c2.939,3.82,7.912,5.46,12.546,4.135l158.919-45.405c7.164-2.047,10.64-10.157,7.183-16.757l-52.099-99.463
				c-3.441-6.569-12.03-8.349-17.798-3.69l-134.618,108.73C1356.374,1294.155,1355.517,1301.396,1359.409,1306.455z"/>
			
				<linearGradient id="SVGID_00000178202585561692234340000006946961833400944014_" gradientUnits="userSpaceOnUse" x1="1492.7343" y1="1292.437" x2="1680.1519" y2="1292.437">
				<stop  offset="0" style="stop-color:#4042E2"/>
				<stop  offset="1" style="stop-color:#4F52FF"/>
			</linearGradient>
			<path style="fill:url(#SVGID_00000178202585561692234340000006946961833400944014_);" d="M1498.187,1282.438l-5.375,48.381
				c-0.829,7.461,5.142,13.927,12.646,13.692l162.742-5.086c7.227-0.226,12.711-6.591,11.866-13.771l-8.753-74.4
				c-0.847-7.197-7.686-12.117-14.779-10.633l-148.614,31.105C1502.702,1272.819,1498.776,1277.14,1498.187,1282.438z"/>
			
				<linearGradient id="SVGID_00000145762271248131952170000012523763654401257359_" gradientUnits="userSpaceOnUse" x1="946.8281" y1="1306.2086" x2="1191.5065" y2="1306.2086">
				<stop  offset="0" style="stop-color:#4042E2"/>
				<stop  offset="1" style="stop-color:#4F52FF"/>
			</linearGradient>
			<path style="fill:url(#SVGID_00000145762271248131952170000012523763654401257359_);" d="M950.471,1319.09
				c-3.647-0.806-4.896-5.37-2.167-7.919c16.187-15.117,57.421-53.48,59.013-53.48c1.666,0,137.7,50.388,181.168,66.504
				c4.196,1.556,3.964,7.561-0.335,8.803l-74.583,21.546c-0.745,0.215-1.531,0.24-2.288,0.073L950.471,1319.09z"/>
			
				<linearGradient id="SVGID_00000052098055869431734950000012296585540267586978_" gradientUnits="userSpaceOnUse" x1="1093.6644" y1="1293.5935" x2="1246.6272" y2="1293.5935">
				<stop  offset="0" style="stop-color:#4042E2"/>
				<stop  offset="1" style="stop-color:#4F52FF"/>
			</linearGradient>
			<path style="fill:url(#SVGID_00000052098055869431734950000012296585540267586978_);" d="M1160.197,1237.659l-62.843,75.412
				c-7.595,9.113-2.864,23.031,8.713,25.622c21.707,4.859,52.457,12.391,67.22,16.039c5.396,1.333,11.076-0.022,15.291-3.646
				c12.063-10.373,37.549-32.437,53.028-46.896c7.156-6.684,6.581-18.188-1.187-24.15l-58.388-44.809
				C1175.28,1230.051,1165.644,1231.122,1160.197,1237.659z"/>
			
				<linearGradient id="SVGID_00000023961160735822929150000016566853054504616855_" gradientUnits="userSpaceOnUse" x1="1445.5856" y1="516.8832" x2="1413.5854" y2="664.8832">
				<stop  offset="0" style="stop-color:#FE7062"/>
				<stop  offset="1" style="stop-color:#FF928E"/>
			</linearGradient>
			<path style="fill:url(#SVGID_00000023961160735822929150000016566853054504616855_);" d="M1121.668,954.157
				c-5.416,0-10.421-2.444-13.749-6.721c-3.356-4.311-4.49-9.818-3.11-15.109c14.041-53.929-22.565-128.149-51.725-161.33
				c-4.59-5.222-5.664-12.396-2.802-18.721c2.858-6.317,8.946-10.242,15.889-10.242h561.278c5.329,0,10.459,2.486,13.721,6.651
				c42.941,54.844,62.196,115.365,58.866,185.025c-0.442,9.263-8.051,16.567-17.322,16.63l-560.923,3.816
				C1121.75,954.157,1121.709,954.157,1121.668,954.157z M1066.17,757.901c-0.252,0-1.019,0-1.433,0.916
				c-0.279,0.616-0.19,1.19,0.263,1.707c32.333,36.79,70.822,115.654,55.162,175.802c-0.163,0.625,0.061,1.087,0.277,1.365
				c0.214,0.274,0.6,0.599,1.231,0.599c0.005,0,0.009,0,0.013,0l560.924-3.816c0.846-0.006,1.541-0.673,1.58-1.52l0,0
				c3.141-65.695-15.017-122.77-55.509-174.485c-0.278-0.354-0.738-0.567-1.23-0.567H1066.17z"/>
			
				<linearGradient id="SVGID_00000015351081554692978100000018028967305108490900_" gradientUnits="userSpaceOnUse" x1="1290.9877" y1="430.0007" x2="1290.9877" y2="706.0001">
				<stop  offset="0" style="stop-color:#FE7062"/>
				<stop  offset="1" style="stop-color:#FF928E"/>
			</linearGradient>
			<path style="fill:url(#SVGID_00000015351081554692978100000018028967305108490900_);" d="M1325.974,946.657l-15.502-3.382
				c22.073-101.21-57.97-185.824-58.78-186.667l11.419-11.015C1266.666,749.276,1349.882,837.029,1325.974,946.657z"/>
			<ellipse style="fill:#7D97F4;" cx="1254.237" cy="840.208" rx="15.866" ry="13.883"/>
			<path style="opacity:0.49;fill:#FFFFFF;" d="M1772.868,700.422v-0.037H728.665c61.887,0,112.056,151.395,112.056,338.151
				c0,183.756-48.571,333.276-109.083,338.032l0.002,0.12l1041.229-17.85v-0.037c61.429-1.567,111.064-148.337,111.064-329.19
				S1834.297,701.99,1772.868,700.422z M1692.112,933.333c-0.241,5.051-4.394,9.04-9.451,9.075l-560.923,3.816
				c-6.25,0.042-10.828-5.848-9.253-11.897c15.129-58.104-23.491-134.485-53.443-168.566c-5.409-6.154-1.065-15.793,7.129-15.793
				h561.279c2.909,0,5.682,1.32,7.476,3.611C1678.755,809.557,1695.144,869.9,1692.112,933.333z"/>
			
				<linearGradient id="SVGID_00000067946081063874345890000009424143888629347746_" gradientUnits="userSpaceOnUse" x1="728.6646" y1="1038.537" x2="892.2862" y2="1038.537">
				<stop  offset="0" style="stop-color:#FE7062"/>
				<stop  offset="1" style="stop-color:#FF928E"/>
			</linearGradient>
			<path style="fill:url(#SVGID_00000067946081063874345890000009424143888629347746_);" d="M840.721,1038.537
				c0,183.756-48.571,333.276-109.083,338.032l0.002,0.12l75.681-1.39c49.414-49.385,84.966-186.843,84.966-348.729
				c0-141.633-27.214-264.565-67.113-326.184h-96.508C790.551,700.386,840.721,851.781,840.721,1038.537z"/>
			
				<linearGradient id="SVGID_00000032615683090841311300000011744783567992960650_" gradientUnits="userSpaceOnUse" x1="1741.3947" y1="1029.9012" x2="1883.9325" y2="1029.9012">
				<stop  offset="0" style="stop-color:#FE7062"/>
				<stop  offset="1" style="stop-color:#FF928E"/>
			</linearGradient>
			<path style="fill:url(#SVGID_00000032615683090841311300000011744783567992960650_);" d="M1772.868,700.422v-0.037h-29.903
				c48.255,42.125,83.452,173.397,83.452,328.852c0,157.135-35.963,289.555-85.022,330.179l31.473-0.578v-0.037
				c61.429-1.567,111.064-148.337,111.064-329.19S1834.297,701.99,1772.868,700.422z"/>
			<g>
				
					<linearGradient id="SVGID_00000094607229232118265620000013968695341058709379_" gradientUnits="userSpaceOnUse" x1="855.1232" y1="591.3477" x2="783.1373" y2="1059.2539">
					<stop  offset="0" style="stop-color:#09005D"/>
					<stop  offset="1" style="stop-color:#1A0F91"/>
				</linearGradient>
				<path style="fill:url(#SVGID_00000094607229232118265620000013968695341058709379_);" d="M630.801,1512.381
					c-4.58-5.776-6.242-13.205-4.562-20.382L744.65,986.24l15.125,15.125c3.337,3.337,3.337,3.337,5.5,25.456
					c1.068,10.928,2.553,26.953,4.411,47.63c3.197,35.567,7.569,85.637,12.995,148.822c9.675,112.668,20.105,236.826,23.071,272.195
					c0.56,6.67-1.718,13.321-6.249,18.248c-4.532,4.928-10.971,7.754-17.667,7.754H649.605
					C642.234,1521.469,635.38,1518.157,630.801,1512.381z M649.41,1497.424l-11.586-2.713l11.781,2.957h132.232l0.2-0.213
					c-12.643-150.767-24.3-390.213-32.659-483.71L649.41,1497.424z"/>
				
					<linearGradient id="SVGID_00000002371645652816591050000017073460871575440542_" gradientUnits="userSpaceOnUse" x1="901.424" y1="553.7291" x2="813.4238" y2="829.7294">
					<stop  offset="0" style="stop-color:#FE7062"/>
					<stop  offset="1" style="stop-color:#FF928E"/>
				</linearGradient>
				
					<ellipse style="fill:url(#SVGID_00000002371645652816591050000017073460871575440542_);" cx="749.377" cy="1030.604" rx="33.716" ry="68.424"/>
			</g>
			<path style="fill:#FFFFFF;" d="M936.911,1060.353c-0.029,0-0.058-0.001-0.087-0.004c-0.546-0.047-0.949-0.529-0.902-1.074
				c5.136-58.558,11.908-205.659-36.039-306.637c-2.229-4.694-1.904-10.115,0.87-14.504c2.775-4.388,7.533-7.008,12.731-7.008
				h84.909c0.548,0,0.992,0.444,0.992,0.992c0,0.548-0.443,0.992-0.992,0.992h-84.909c-4.513,0-8.645,2.275-11.053,6.085
				c-2.409,3.81-2.691,8.517-0.755,12.593c9.219,19.415,22.032,53.285,30.716,104.378c10.215,60.103,12.067,128.497,5.507,203.282
				C937.853,1059.964,937.42,1060.353,936.911,1060.353z"/>
			<path style="fill:#BDD0FB;" d="M1832.368,1161.501c-0.052,0-0.105-0.004-0.159-0.013c-0.541-0.087-0.908-0.597-0.821-1.137
				c21.482-132.981,8.505-237.348-6.164-301.485c-15.894-69.493-37.142-108.034-37.355-108.416
				c-0.267-0.478-0.096-1.082,0.383-1.349c0.479-0.266,1.082-0.096,1.349,0.383c0.214,0.383,21.574,39.109,37.535,108.848
				c14.723,64.324,27.751,168.992,6.21,302.335C1833.267,1161.154,1832.846,1161.501,1832.368,1161.501z"/>
			<path style="fill:#BDD0FB;" d="M626.526,1020.687c-0.018,0-0.037,0-0.055-0.002c-0.547-0.029-0.966-0.497-0.936-1.044
				c4.529-82.659,17.343-195.163,52.672-261.709c21.294-40.113,40.526-44.469,41.333-44.635c0.547-0.105,1.058,0.234,1.169,0.769
				c0.111,0.535-0.232,1.059-0.767,1.173c-0.191,0.041-19.346,4.51-40.222,44.073c-19.311,36.596-44.044,111.487-52.206,260.438
				C627.487,1020.279,627.049,1020.687,626.526,1020.687z"/>
			<g style="opacity:0.63;">
				<path style="opacity:0.49;fill:#FFFFFF;" d="M1673.894,942.467l-284.36,1.934c-50.723,177.246-149.412,328.096-224.712,424.861
					l316.705-5.429C1590.309,1216.549,1646.076,1067.643,1673.894,942.467z"/>
				<path style="fill:#FFFFFF;" d="M1422.084,749.968h205.365c2.909,0,5.682,1.32,7.476,3.611
					c28.498,36.396,45.385,74.639,52.886,114.374c10.287-67.855,12.556-125.476,12.06-167.567h-277.266
					C1422.991,717.023,1422.805,733.556,1422.084,749.968z"/>
			</g>
			<g style="opacity:0.63;">
				<path style="opacity:0.49;fill:#FFFFFF;" d="M1309.841,944.944l-144.224,0.981c-60.748,183.095-172.676,335.125-252.729,427.656
					l183.002-3.137C1214.932,1223.149,1277.438,1071.662,1309.841,944.944z"/>
				<path style="opacity:0.23;fill:#FFFFFF;" d="M1206.522,749.968h134.848c1.246-18.562,1.838-35.18,2.034-49.582h-134.492
					C1208.671,717.045,1207.865,733.578,1206.522,749.968z"/>
			</g>
		</g>
		<g>
			
				<linearGradient id="SVGID_00000031929246846847444380000003281911574362263953_" gradientUnits="userSpaceOnUse" x1="1737.251" y1="73.8478" x2="1629.2729" y2="1351.5925">
				<stop  offset="0" style="stop-color:#FE7062"/>
				<stop  offset="1" style="stop-color:#FF928E"/>
			</linearGradient>
			<path style="fill:url(#SVGID_00000031929246846847444380000003281911574362263953_);" d="M1344.916,411.566
				c0.035,16.336-3.793,51.689-35.354,70.254c-4.985,2.932-7.262,8.94-5.507,14.45l78.505,246.471
				c1.896,5.952,7.916,9.615,14.054,8.456c14.698-2.775,41.008-3.642,53.395,21.304c2.61,5.255,8.7,7.785,14.357,6.229
				c72.663-19.988,489.673-134.956,575.714-164.55c4.871-1.675,8.165-6.187,8.35-11.334c0.582-16.173,6.012-51.583,41.164-65.717
				c5.865-2.358,9.103-8.662,7.465-14.767c-11.62-43.32-53.382-197.2-72.007-241.487c-2.137-5.082-7.364-8.097-12.844-7.503
				c-16.195,1.756-50.557,1.203-60.506-32.75c-1.93-6.588-8.667-10.5-15.281-8.663c-77.878,21.621-483.62,134.543-583.026,167.866
				C1348.338,401.518,1344.905,406.233,1344.916,411.566z"/>
			<g style="opacity:0.49;">
				<path d="M1334.516,509.099c-0.5,0-0.763-0.327-0.845-0.453l-0.443-0.678l0.925-0.956l0.447-0.01l0.415,0.003l1.426,1.433
					l-1.379,0.546C1334.856,509.067,1334.674,509.099,1334.516,509.099z M1334.589,508.167l-0.605,0.585L1334.589,508.167z"/>
				<path style="fill:#FFFFFF;" d="M1521.511,741.341l474.813-143.83c-40.764-103.54-75.273-238.154-95.148-323.201
					l-495.182,146.922C1429.464,507.032,1469.688,637.397,1521.511,741.341z"/>
				<path style="fill:#FFFFFF;" d="M1383.19,428.01c-5.122,1.582-8.601,6.275-8.754,11.644
					c-1.266,44.43-36.777,67.231-39.739,68.408c3.462,3.568,56.674,159.407,68.811,195.037c1.423,4.178,4.964,7.22,9.279,8.149
					c23.484,5.055,45.852,27.68,55.553,38.656c3.211,3.634,8.25,5.043,12.892,3.637l17.19-5.207
					C1446.738,643.479,1406.7,513.839,1383.19,428.01z"/>
				<path style="fill:#FFFFFF;" d="M2066.136,512.269c-10.859-40.092-55.117-165.425-67.755-201.014
					c-1.856-5.226-6.951-8.678-12.478-8.23c-26.429,2.142-46.397-10.136-58.163-20.322c20.035,83.973,52.442,207.653,89.69,303.328
					c0.22-0.587,0.407-1.19,0.536-1.815c6.664-32.27,30.279-50.558,42.679-58.14C2065.346,523.2,2067.576,517.586,2066.136,512.269z
					"/>
			</g>
			<g>
				<g>
					
						<linearGradient id="SVGID_00000037651730332598118470000000075667989785545114_" gradientUnits="userSpaceOnUse" x1="1688.3615" y1="138.449" x2="1337.7842" y2="843.3534">
						<stop  offset="0" style="stop-color:#4042E2"/>
						<stop  offset="1" style="stop-color:#4F52FF"/>
					</linearGradient>
					<path style="fill:url(#SVGID_00000037651730332598118470000000075667989785545114_);" d="M1522.565,442.13
						c27.158-7.643,43.223,6.287,47.275,20.685c4.269,15.169-2.001,33.165-35.76,42.666l-10.953,3.083
						c-2.652,0.746-4.196,3.501-3.45,6.153l8.079,28.706c0.746,2.652-0.798,5.406-3.45,6.153l-13.805,3.885
						c-2.652,0.746-5.406-0.798-6.153-3.45l-25.446-90.411c-0.746-2.652,0.798-5.406,3.45-6.153L1522.565,442.13z M1518.351,491.596
						c12.753-3.589,31.715-6.984,27.301-22.667c-4.414-15.683-22.363-8.69-35.116-5.1l0,0c-2.652,0.746-4.197,3.501-3.45,6.152
						l5.112,18.165C1512.945,490.798,1515.7,492.343,1518.351,491.596L1518.351,491.596z"/>
					
						<linearGradient id="SVGID_00000039843665104575515420000002275144127841248178_" gradientUnits="userSpaceOnUse" x1="1770.7815" y1="179.4403" x2="1420.2042" y2="884.3447">
						<stop  offset="0" style="stop-color:#4042E2"/>
						<stop  offset="1" style="stop-color:#4F52FF"/>
					</linearGradient>
					<path style="fill:url(#SVGID_00000039843665104575515420000002275144127841248178_);" d="M1618.129,415.234
						c26.858-7.559,41.991,5.94,45.574,18.667c2.682,9.529-0.849,20.175-8.891,27.684c-1.988,1.856-2.073,4.981-0.227,6.98
						l26.982,29.217c2.527,2.736,1.272,7.176-2.313,8.185l-13.82,3.89c-1.81,0.509-3.754-0.043-5.026-1.428l-28.545-31.092
						c-1.272-1.386-3.215-1.938-5.026-1.428l-10.101,2.843c-2.652,0.746-4.196,3.501-3.45,6.153l8.984,31.919
						c0.746,2.652-0.798,5.406-3.45,6.153l-13.804,3.885c-2.652,0.746-5.406-0.798-6.153-3.45L1573.418,433
						c-0.746-2.652,0.798-5.407,3.45-6.153L1618.129,415.234z M1617.362,460.262c10.203-2.872,25.952-6.749,22.442-19.219
						c-3.871-13.754-19.299-8.164-30.853-4.912l-3.901,1.098c-2.652,0.746-4.196,3.501-3.45,6.153l4.208,14.951
						c0.746,2.652,3.501,4.196,6.153,3.45L1617.362,460.262z"/>
					
						<linearGradient id="SVGID_00000129200002308679046830000007270414156155890079_" gradientUnits="userSpaceOnUse" x1="1818.1136" y1="202.9802" x2="1467.5364" y2="907.8849">
						<stop  offset="0" style="stop-color:#4042E2"/>
						<stop  offset="1" style="stop-color:#4F52FF"/>
					</linearGradient>
					<path style="fill:url(#SVGID_00000129200002308679046830000007270414156155890079_);" d="M1697.729,495.585l-25.446-90.411
						c-0.746-2.652,0.798-5.406,3.45-6.153l13.805-3.885c2.652-0.746,5.406,0.798,6.153,3.45l25.446,90.411
						c0.746,2.652-0.798,5.406-3.45,6.153l-13.804,3.885C1701.23,499.782,1698.476,498.237,1697.729,495.585z"/>
					
						<linearGradient id="SVGID_00000163764351545155482740000000164147150044061345_" gradientUnits="userSpaceOnUse" x1="1861.7672" y1="224.6904" x2="1511.1898" y2="929.595">
						<stop  offset="0" style="stop-color:#4042E2"/>
						<stop  offset="1" style="stop-color:#4F52FF"/>
					</linearGradient>
					<path style="fill:url(#SVGID_00000163764351545155482740000000164147150044061345_);" d="M1787.14,386.518l-26.344,69.932
						c-1.442,3.827,2.082,7.668,6.019,6.56l34.915-9.827c2.652-0.746,5.406,0.798,6.153,3.45l2.073,7.366
						c0.746,2.652-0.798,5.406-3.45,6.153l-66.468,18.707c-2.652,0.746-5.406-0.798-6.153-3.45l-2.622-9.315
						c-0.287-1.018-0.242-2.101,0.127-3.093l26.258-70.483c1.425-3.824-2.097-7.648-6.025-6.542l-33.307,9.374
						c-2.652,0.746-5.406-0.798-6.153-3.45l-2.073-7.367c-0.746-2.652,0.798-5.406,3.45-6.153l64.817-18.242
						c2.652-0.746,5.406,0.798,6.153,3.45l2.764,9.82C1787.562,384.433,1787.515,385.522,1787.14,386.518z"/>
					
						<linearGradient id="SVGID_00000145770547284867777630000015422781841167877037_" gradientUnits="userSpaceOnUse" x1="1922.2253" y1="254.7591" x2="1571.6487" y2="959.6625">
						<stop  offset="0" style="stop-color:#4042E2"/>
						<stop  offset="1" style="stop-color:#4F52FF"/>
					</linearGradient>
					<path style="fill:url(#SVGID_00000145770547284867777630000015422781841167877037_);" d="M1868.495,363.083l-39.611,11.148
						c-2.652,0.746-4.196,3.501-3.45,6.153l4.027,14.308c0.746,2.652,3.501,4.196,6.153,3.45l31.208-8.783
						c2.652-0.746,5.406,0.798,6.153,3.45l2.073,7.367c0.746,2.652-0.798,5.406-3.45,6.153l-31.208,8.783
						c-2.652,0.746-4.196,3.501-3.45,6.152l4.389,15.593c0.746,2.652,3.501,4.196,6.153,3.45l42.461-11.95
						c2.652-0.746,5.406,0.798,6.153,3.45l2.073,7.367c0.746,2.652-0.798,5.406-3.45,6.153l-65.869,18.538
						c-2.652,0.746-5.406-0.798-6.152-3.45l-25.446-90.411c-0.746-2.652,0.799-5.406,3.45-6.153l63.018-17.736
						c2.652-0.746,5.406,0.798,6.153,3.45l2.073,7.367C1872.691,359.582,1871.146,362.337,1868.495,363.083z"/>
				</g>
				<g>
					
						<linearGradient id="SVGID_00000102540937248878048540000001697850701160884143_" gradientUnits="userSpaceOnUse" x1="1775.6871" y1="181.8804" x2="1425.1102" y2="886.7841">
						<stop  offset="0" style="stop-color:#4042E2"/>
						<stop  offset="1" style="stop-color:#4F52FF"/>
					</linearGradient>
					<path style="fill:url(#SVGID_00000102540937248878048540000001697850701160884143_);" d="M1539.777,575.3
						c41.979-11.815,62.616,4.408,70.174,31.262c7.489,26.61-3.006,51.858-35.909,61.118l-29.804,8.388
						c-2.652,0.746-5.406-0.798-6.152-3.45l-23.904-84.932c-0.746-2.652,0.798-5.406,3.45-6.153L1539.777,575.3z M1567.826,652.118
						c17.585-4.949,25.555-17.421,18.818-41.358c-5.574-19.806-18.101-26.247-38.807-20.419l-3.566,1.004
						c-2.652,0.746-4.196,3.501-3.45,6.153l14.875,52.853c0.746,2.652,3.501,4.196,6.153,3.45L1567.826,652.118z"/>
					
						<linearGradient id="SVGID_00000128474094871067801080000014378713960714560427_" gradientUnits="userSpaceOnUse" x1="1848.4933" y1="218.0889" x2="1497.9161" y2="922.9932">
						<stop  offset="0" style="stop-color:#4042E2"/>
						<stop  offset="1" style="stop-color:#4F52FF"/>
					</linearGradient>
					<path style="fill:url(#SVGID_00000128474094871067801080000014378713960714560427_);" d="M1653.364,543.331
						c25.386-7.145,39.691,5.615,43.077,17.644c2.513,8.93-0.745,18.897-8.208,25.983c-1.973,1.873-2.074,4.98-0.229,6.979
						l25.02,27.092c2.527,2.736,1.272,7.176-2.313,8.185l-12.472,3.51c-1.811,0.509-3.754-0.043-5.026-1.428l-26.754-29.141
						c-1.272-1.386-3.215-1.938-5.025-1.428l-9.123,2.568c-2.652,0.746-4.196,3.501-3.45,6.153l8.343,29.644
						c0.746,2.652-0.798,5.407-3.45,6.153l-12.522,3.524c-2.652,0.746-5.406-0.799-6.153-3.45l-23.904-84.932
						c-0.746-2.652,0.798-5.406,3.45-6.152L1653.364,543.331z M1652.639,585.892c9.644-2.714,24.53-6.379,21.213-18.166
						c-3.659-13.001-18.242-7.717-29.162-4.643l-3.424,0.964c-2.652,0.746-4.197,3.501-3.45,6.153l3.829,13.606
						c0.746,2.652,3.501,4.196,6.153,3.45L1652.639,585.892z"/>
					
						<linearGradient id="SVGID_00000026870719123465124480000017893495173742792325_" gradientUnits="userSpaceOnUse" x1="1920.9427" y1="254.1208" x2="1570.3656" y2="959.0251">
						<stop  offset="0" style="stop-color:#4042E2"/>
						<stop  offset="1" style="stop-color:#4F52FF"/>
					</linearGradient>
					<path style="fill:url(#SVGID_00000026870719123465124480000017893495173742792325_);" d="M1806.613,602.223l-12.336,3.472
						c-2.112,0.594-4.364-0.261-5.549-2.107l-9.911-15.443c-1.185-1.846-3.437-2.702-5.549-2.107l-25.51,7.18
						c-2.112,0.594-3.587,2.499-3.635,4.692l-0.402,18.347c-0.048,2.193-1.523,4.098-3.635,4.692l-12.374,3.482
						c-3.266,0.919-6.476-1.62-6.335-5.009l3.873-92.75c0.09-2.156,1.556-4.009,3.632-4.593l22.84-6.428
						c2.067-0.582,4.275,0.225,5.48,2.002l52.19,76.972C1811.301,597.44,1809.89,601.301,1806.613,602.223z M1745.441,534.989
						l-0.568,0.16l-0.406,36.223c-0.037,3.329,3.135,5.759,6.339,4.857l11-3.096c3.204-0.902,4.643-4.63,2.875-7.451
						L1745.441,534.989z"/>
					
						<linearGradient id="SVGID_00000163073884744022228960000011353701572696453529_" gradientUnits="userSpaceOnUse" x1="1976.4055" y1="281.7054" x2="1625.8284" y2="986.6096">
						<stop  offset="0" style="stop-color:#4042E2"/>
						<stop  offset="1" style="stop-color:#4F52FF"/>
					</linearGradient>
					<path style="fill:url(#SVGID_00000163073884744022228960000011353701572696453529_);" d="M1905.865,574.289l-15.16,4.267
						c-2.245,0.632-4.627-0.376-5.738-2.426l-31.249-57.714l-0.283,0.08l3.306,65.589c0.117,2.325-1.39,4.422-3.63,5.052
						l-15.098,4.249c-2.21,0.622-4.559-0.345-5.691-2.342l-44.799-79.052c-1.596-2.816-0.128-6.384,2.988-7.261l11.771-3.313
						c2.292-0.645,4.721,0.42,5.799,2.543l30.075,59.223l0.284-0.08l-4.697-66.407c-0.167-2.36,1.347-4.512,3.624-5.153
						l16.572-4.664c2.277-0.641,4.691,0.406,5.78,2.507l30.628,59.109l0.283-0.08l-4.165-66.598
						c-0.147-2.346,1.364-4.476,3.627-5.113l11.72-3.298c3.152-0.887,6.29,1.453,6.339,4.727l1.351,91.28
						C1909.535,571.676,1908.043,573.677,1905.865,574.289z"/>
				</g>
			</g>
		</g>
		<g>
			
				<linearGradient id="SVGID_00000079458923893553142790000004786388086249494695_" gradientUnits="userSpaceOnUse" x1="1964.4417" y1="879.5888" x2="2021.1783" y2="1021.9117">
				<stop  offset="0" style="stop-color:#09005D"/>
				<stop  offset="1" style="stop-color:#1A0F91"/>
			</linearGradient>
			<path style="fill:url(#SVGID_00000079458923893553142790000004786388086249494695_);" d="M1998.083,956.147
				c0,0,19.127,9.304,22.644,19.991c2.822,8.575,23.972,9.681,26.061,26.546c1.078,8.708,7.522,15.681,16.195,17.011
				c21.601,3.311,54.89,14.528,60.216,52.032c4.066,28.627-10.528,39.481-25.843,43.238c-11.249,2.76-18.724,13.701-16.449,25.057
				c2.182,10.893-1.072,23.485-19.943,33.442c-42.288,22.314-84.519-52.863-84.519-52.863l-8.655-131.264L1998.083,956.147z"/>
			
				<linearGradient id="SVGID_00000104701612584202595320000015459497637279057024_" gradientUnits="userSpaceOnUse" x1="1888.5386" y1="959.8776" x2="1957.5319" y2="1116.8531">
				<stop  offset="0" style="stop-color:#A22B25"/>
				<stop  offset="1" style="stop-color:#C0423C"/>
			</linearGradient>
			<path style="fill:url(#SVGID_00000104701612584202595320000015459497637279057024_);" d="M1856.706,910.583
				c0,0,35.816,97.637,96.844,128.153c0,0-20.312,33.142-30.912,35.152c0,0-65.194-83.44-71.84-151.8L1856.706,910.583z"/>
			
				<linearGradient id="SVGID_00000082369905315166777590000011981737420760172969_" gradientUnits="userSpaceOnUse" x1="2102.1035" y1="1505.4974" x2="2133.7708" y2="1505.4974">
				<stop  offset="0" style="stop-color:#09005D"/>
				<stop  offset="1" style="stop-color:#1A0F91"/>
			</linearGradient>
			<path style="fill:url(#SVGID_00000082369905315166777590000011981737420760172969_);" d="M2102.141,1497.903l1.801,14.807
				c0.342,2.809,2.553,5.03,5.365,5.351c4.747,0.542,12.364,1.098,19.817,0.31c3.271-0.346,5.395-3.658,4.398-6.793
				c-1.817-5.716-5.141-14.297-9.933-19.347h-16.426C2104.127,1492.232,2101.774,1494.888,2102.141,1497.903z"/>
			
				<linearGradient id="SVGID_00000147936018238868460500000006322975575646144672_" gradientUnits="userSpaceOnUse" x1="1968.2939" y1="1630.3748" x2="2013.8651" y2="1097.7616">
				<stop  offset="0" style="stop-color:#A22B25"/>
				<stop  offset="1" style="stop-color:#C0423C"/>
			</linearGradient>
			<path style="fill:url(#SVGID_00000147936018238868460500000006322975575646144672_);" d="M1973.488,1324.445l-2.772,16.309
				c0,0,9.284,94.042,10.936,131.659c0.259,5.898-1.267,11.726-4.362,16.753l-16.144,26.216l41.029-24.211l0.817-5.007l-6.716-9.235
				l8.797-105.351c0.517-6.189-0.76-12.396-3.678-17.878l-8.486-15.943L1973.488,1324.445z"/>
			
				<linearGradient id="SVGID_00000068636113377339336320000018181133338144377741_" gradientUnits="userSpaceOnUse" x1="1954.9812" y1="1499.7158" x2="2006.2209" y2="1499.7158">
				<stop  offset="0" style="stop-color:#09005D"/>
				<stop  offset="1" style="stop-color:#1A0F91"/>
			</linearGradient>
			<path style="fill:url(#SVGID_00000068636113377339336320000018181133338144377741_);" d="M1958.443,1519.179h13.093
				c2.451,0,4.762-1.125,6.257-3.067c4.082-5.304,12.539-15.652,16.583-15.922c5.444-0.364,4.747,18.989,4.747,18.989h3.051
				l3.865-24.048c0.973-6.051-2.036-12.045-7.47-14.88l0,0c0,0-1.245,9.203-7.992,13.273c-6.747,4.07-27.457,18.648-27.457,18.648
				s-2.536-0.362-5.321,0.142C1953.668,1513.062,1954.245,1519.179,1958.443,1519.179z"/>
			
				<linearGradient id="SVGID_00000018213998817521495280000013219502749350649789_" gradientUnits="userSpaceOnUse" x1="2059.9631" y1="1638.2999" x2="2105.5464" y2="1105.5465">
				<stop  offset="0" style="stop-color:#A22B25"/>
				<stop  offset="1" style="stop-color:#C0423C"/>
			</linearGradient>
			<path style="fill:url(#SVGID_00000018213998817521495280000013219502749350649789_);" d="M2029.685,1332.191
				c0,0,54.39,103.173,63.036,126.729c8.646,23.556,11.675,43.207,11.791,45.068c0.181,2.908,3.798,5.697,13.767,5.697
				c5.145,0,7.664-2.062,8.898-4.059c1.053-1.703,1.107-3.834,0.22-5.629c-3.146-6.367-13.131-26.716-16.828-35.945
				c-4.415-11.019-13.912-60.956-19.12-78.318c-5.208-17.362-11.096-36.196-33.777-53.544
				C2057.672,1332.191,2042.102,1316.941,2029.685,1332.191z"/>
			
				<linearGradient id="SVGID_00000114064698766121885730000011018029943635565490_" gradientUnits="userSpaceOnUse" x1="1969.4198" y1="1093.2672" x2="1992.2064" y2="1304.6779">
				<stop  offset="0" style="stop-color:#FE7062"/>
				<stop  offset="1" style="stop-color:#FF928E"/>
			</linearGradient>
			<path style="fill:url(#SVGID_00000114064698766121885730000011018029943635565490_);" d="M1995.326,1163.136
				c-14.03-59.452,21.513-93.077,21.513-93.077c-22.427-21.527-63.288-31.323-63.288-31.323s-38.99,28.506-34.365,50.818
				c2.711,13.077,27.407,78.33,27.407,78.33S1969.427,1178.691,1995.326,1163.136z"/>
			
				<linearGradient id="SVGID_00000051349071246956624190000014048565887884067769_" gradientUnits="userSpaceOnUse" x1="1955.342" y1="1227.615" x2="2158.7729" y2="1395.5266">
				<stop  offset="0" style="stop-color:#4042E2"/>
				<stop  offset="1" style="stop-color:#4F52FF"/>
			</linearGradient>
			<path style="fill:url(#SVGID_00000051349071246956624190000014048565887884067769_);" d="M2026.433,1192.569
				c-5.71-17.201-31.107-29.433-31.107-29.433c-25.898,15.555-48.734,4.747-48.734,4.747s-5.121,19.575-1.587,37.766
				c3.535,18.192,25.711,135.104,25.711,135.104c34.943,7.08,88.683-7.123,88.683-7.123
				C2037.142,1294.115,2032.142,1209.77,2026.433,1192.569z"/>
			
				<linearGradient id="SVGID_00000162353225009689450140000004587494062453097646_" gradientUnits="userSpaceOnUse" x1="1972.5067" y1="993.0915" x2="1976.5067" y2="1102.0917">
				<stop  offset="0" style="stop-color:#A22B25"/>
				<stop  offset="1" style="stop-color:#C0423C"/>
			</linearGradient>
			<path style="fill:url(#SVGID_00000162353225009689450140000004587494062453097646_);" d="M1979.04,999.448l11.407,51.238
				c1.092,4.513-3.022,3.774-7.585,2.914c-7.472-1.409-17.103-4.31-20.323-10.125c-0.328-0.592-0.491-1.261-0.584-1.931
				l-4.901-35.529c-0.389-2.819,1.135-5.555,3.736-6.708l9.457-4.193C1973.889,993.5,1978.103,995.577,1979.04,999.448z"/>
			
				<linearGradient id="SVGID_00000103260796502391863440000000408423801426423446_" gradientUnits="userSpaceOnUse" x1="1998.9951" y1="1135.8955" x2="2055.4438" y2="1135.8955">
				<stop  offset="0" style="stop-color:#A22B25"/>
				<stop  offset="1" style="stop-color:#C0423C"/>
			</linearGradient>
			<path style="fill:url(#SVGID_00000103260796502391863440000000408423801426423446_);" d="M2016.838,1070.059
				c0,0,79.615,56.96,10.182,116.813c0,0-2.647,2.995-7.856,4.552c-2.629,0.786-10.408,6.671-14.351,9.739
				c-1.268,0.986-3.099,0.651-3.952-0.711l0,0c-0.668-1.067-0.746-2.4-0.208-3.538l9.856-20.842
				c2.737-2.554,6.927-2.736,9.874-0.427l0,0c1.88,1.473,4.635,0.856,5.688-1.288c5.367-10.932,21.315-36.025-20.167-72.355
				c-1.56-1.366-7.767-10.682-6.81-12.521C2002.009,1083.882,2008.675,1072.764,2016.838,1070.059z"/>
			<g>
				
					<linearGradient id="SVGID_00000137111039319744657210000006029641433391014333_" gradientUnits="userSpaceOnUse" x1="2018.5009" y1="936.9253" x2="1936.5006" y2="1002.9254">
					<stop  offset="0" style="stop-color:#A22B25"/>
					<stop  offset="1" style="stop-color:#C0423C"/>
				</linearGradient>
				<path style="fill:url(#SVGID_00000137111039319744657210000006029641433391014333_);" d="M1965.656,950.663
					c0,0-13.51,5.704-22.695,25.227c-9.186,19.522-2.326,28.535,6.29,29.773c8.616,1.237,21.502,1.049,35.132-11.562
					C1998.013,981.49,1983.218,943.901,1965.656,950.663z"/>
				
					<linearGradient id="SVGID_00000139260331218480512520000003347648412394735523_" gradientUnits="userSpaceOnUse" x1="1957.7516" y1="908.8786" x2="1995.0964" y2="1002.5576">
					<stop  offset="0" style="stop-color:#09005D"/>
					<stop  offset="1" style="stop-color:#1A0F91"/>
				</linearGradient>
				<path style="fill:url(#SVGID_00000139260331218480512520000003347648412394735523_);" d="M1975.221,983.678
					c0,0,10.192-28.561-15.13-28.899l-5.958,4.165c0,0-9.291-15.835,5.958-23.394c15.25-7.559,33.097-1.315,39.586,19.23
					c6.49,20.545,7.598,34.298-3.199,44.127c-10.797,9.83-15.246-1.316-15.246-1.316s5.879-9.194,3.486-14.112
					c-2.394-4.919-7.914,1.017-7.914,1.017L1975.221,983.678z"/>
				
					<linearGradient id="SVGID_00000008146495426265890300000017347770159491593388_" gradientUnits="userSpaceOnUse" x1="2028.2723" y1="949.0659" x2="1946.2725" y2="1015.0657">
					<stop  offset="0" style="stop-color:#A22B25"/>
					<stop  offset="1" style="stop-color:#C0423C"/>
				</linearGradient>
				<path style="fill:url(#SVGID_00000008146495426265890300000017347770159491593388_);" d="M1978.061,986.859
					c0,0,5.153-14.713,12.028-8.853c6.875,5.859-5.588,13.59-10.466,16.094L1978.061,986.859z"/>
			</g>
			<g>
				
					<linearGradient id="SVGID_00000090973741679340756870000005443030651757341330_" gradientUnits="userSpaceOnUse" x1="1874.9052" y1="965.8699" x2="1943.8986" y2="1122.8457">
					<stop  offset="0" style="stop-color:#A22B25"/>
					<stop  offset="1" style="stop-color:#C0423C"/>
				</linearGradient>
				<path style="fill:url(#SVGID_00000090973741679340756870000005443030651757341330_);" d="M1853.268,928.354
					c-0.546,1.737,5.781,4.382,9.507-2.723c0.13-3.405,2.201-17.993,0.166-20.767c-10.837-14.774-31.847-33.294-31.847-33.294
					c-3.551,3.504-0.625,6.946-0.625,6.946l10.192,10.617c-2.132,3.853-4.732,7.104-5.951,11.764
					c-0.923,3.529-0.358,7.3,1.424,10.512c1.789,3.223,4.23,7.413,6.538,10.692C1847.04,928.307,1853.268,928.354,1853.268,928.354z
					"/>
				
					<linearGradient id="SVGID_00000021110856403600879340000005256907598851888534_" gradientUnits="userSpaceOnUse" x1="1898.1327" y1="829.9423" x2="1871.1327" y2="871.9424">
					<stop  offset="0" style="stop-color:#A22B25"/>
					<stop  offset="1" style="stop-color:#C0423C"/>
				</linearGradient>
				<path style="fill:url(#SVGID_00000021110856403600879340000005256907598851888534_);" d="M1848.067,921.098
					c-0.766-4.276-3.107-15.947-4.723-18.577c-1.134-1.845-1.504-3.387-1.132-4.711c0.313-1.112,1.117-1.985,2.457-2.67l0.589-0.3
					l9.989,8.468l3.007,8.083l-1.859,0.691l-2.825-7.597l-8.554-7.251c-0.484,0.334-0.779,0.701-0.894,1.112
					c-0.211,0.752,0.095,1.808,0.912,3.137c2.142,3.485,4.87,18.622,4.985,19.266L1848.067,921.098z"/>
			</g>
		</g>
		<g>
			
				<linearGradient id="SVGID_00000134961228841843161380000013363758798039032249_" gradientUnits="userSpaceOnUse" x1="-705.3601" y1="1467.4934" x2="-917.3549" y2="1698.0846" gradientTransform="matrix(1 0 0 1 1143.604 0)">
				<stop  offset="0" style="stop-color:#09005D"/>
				<stop  offset="1" style="stop-color:#1A0F91"/>
			</linearGradient>
			<path style="fill:url(#SVGID_00000134961228841843161380000013363758798039032249_);" d="M371.232,1484.671
				c0,0-2.195,12.429-3.272,24.733c-0.421,4.808,3.286,8.983,8.109,9.184c16.384,0.682,51.431,2.01,64.007,1.448
				c1.891-0.084,3.127-2.02,2.427-3.778l0,0c-0.586-1.473-1.717-2.664-3.158-3.327l-57.891-26.607L371.232,1484.671z"/>
			
				<linearGradient id="SVGID_00000098213234249755612450000013270568720814593698_" gradientUnits="userSpaceOnUse" x1="-469.6168" y1="1484.6198" x2="-450.786" y2="1484.6198" gradientTransform="matrix(-1 0 0 1 -81.3526 0)">
				<stop  offset="0" style="stop-color:#FF928E"/>
				<stop  offset="1" style="stop-color:#FEB3B1"/>
			</linearGradient>
			<path style="fill:url(#SVGID_00000098213234249755612450000013270568720814593698_);" d="M369.433,1477.368l1.764,14.867
				c0,0,10.141,4.721,17.067-0.595l-4.2-16.567L369.433,1477.368z"/>
			
				<linearGradient id="SVGID_00000109713953354566327310000013572106834547876993_" gradientUnits="userSpaceOnUse" x1="-818.822" y1="1340.6359" x2="-756.559" y2="1340.6359" gradientTransform="matrix(1 0 0 1 1143.604 0)">
				<stop  offset="0" style="stop-color:#09005D"/>
				<stop  offset="1" style="stop-color:#1A0F91"/>
			</linearGradient>
			<path style="fill:url(#SVGID_00000109713953354566327310000013572106834547876993_);" d="M370.759,1197.87
				c-0.762,3.882-4.09,193.739,16.205,278.82c0.331,1.388-0.373,2.819-1.694,3.359c-3.113,1.272-9.215,3.113-16.528,3.359
				c-2.265,0.076-4.295-1.396-4.934-3.57c-5.801-19.74-33.599-118.644-37.225-213.123c-4.052-105.572,0-3.595,0-3.595l2.376-65.258
				L370.759,1197.87z"/>
			
				<linearGradient id="SVGID_00000147182140083371386580000004887073774307592884_" gradientUnits="userSpaceOnUse" x1="-752.9178" y1="1423.7709" x2="-964.9134" y2="1654.3628" gradientTransform="matrix(1 0 0 1 1143.604 0)">
				<stop  offset="0" style="stop-color:#09005D"/>
				<stop  offset="1" style="stop-color:#1A0F91"/>
			</linearGradient>
			<path style="fill:url(#SVGID_00000147182140083371386580000004887073774307592884_);" d="M304.638,1491.155
				c0,0-3.495,6.275-6.878,22.948c-0.611,3.011,1.493,5.893,4.55,6.193c5.41,0.532,13.739,1.216,20.41,1.17
				c3.075-0.021,5.476-2.699,5.105-5.752c-0.739-6.086-3.041-16.07-10.153-23.853L304.638,1491.155z"/>
			
				<linearGradient id="SVGID_00000019649254576718585830000004488222185900723131_" gradientUnits="userSpaceOnUse" x1="-399.1795" y1="1483.6541" x2="-382.9213" y2="1483.6541" gradientTransform="matrix(-1 0 0 1 -81.3526 0)">
				<stop  offset="0" style="stop-color:#FF928E"/>
				<stop  offset="1" style="stop-color:#FEB3B1"/>
			</linearGradient>
			<path style="fill:url(#SVGID_00000019649254576718585830000004488222185900723131_);" d="M301.569,1472.033l4.121,22.482
				c0,0,4.075,3.031,12.137,0.834l-1.967-24.19L301.569,1472.033z"/>
			
				<linearGradient id="SVGID_00000080898815986064976520000016024601961232477596_" gradientUnits="userSpaceOnUse" x1="-859.5595" y1="1338.5985" x2="-771.1661" y2="1338.5985" gradientTransform="matrix(1 0 0 1 1143.604 0)">
				<stop  offset="0" style="stop-color:#09005D"/>
				<stop  offset="1" style="stop-color:#1A0F91"/>
			</linearGradient>
			<path style="fill:url(#SVGID_00000080898815986064976520000016024601961232477596_);" d="M290.434,1203.696
				c-16.598,100.17,3.6,247.577,10.412,276.429c0.417,1.766,1.843,3.12,3.633,3.416c3.041,0.504,8.047,0.915,12.983-0.518
				c1.7-0.494,2.895-2.027,2.964-3.797c0.914-23.326-0.731-166.521,14.734-223.113c0.784-2.868,2.535-5.369,4.959-7.092
				l30.017-21.34l2.301-34.494L290.434,1203.696z"/>
			
				<linearGradient id="SVGID_00000059995436707798156730000016545191342220802961_" gradientUnits="userSpaceOnUse" x1="985.496" y1="1928.2708" x2="1140.8293" y2="1818.2706" gradientTransform="matrix(1 0 0 1 -1938.0001 0)">
				<stop  offset="0" style="stop-color:#FF928E"/>
				<stop  offset="1" style="stop-color:#FEB3B1"/>
			</linearGradient>
			<path style="fill:url(#SVGID_00000059995436707798156730000016545191342220802961_);" d="M430.351,1033.168
				c17.834-40.019,34.669-99.825,15.056-159.598l-11.363-11.363c0,0-0.005,93.62-23.298,140.112
				C417.258,1012.617,423.768,1022.917,430.351,1033.168z"/>
			
				<linearGradient id="SVGID_00000078022428363031561450000002116333527422922403_" gradientUnits="userSpaceOnUse" x1="945.1119" y1="1871.2299" x2="1100.4452" y2="1761.2299" gradientTransform="matrix(1 0 0 1 -1938.0001 0)">
				<stop  offset="0" style="stop-color:#FF928E"/>
				<stop  offset="1" style="stop-color:#FEB3B1"/>
			</linearGradient>
			<path style="fill:url(#SVGID_00000078022428363031561450000002116333527422922403_);" d="M431.318,844.317l-4.288,6.432
				c-1.18,1.771-1.487,3.973-0.82,5.993c1.741,5.273,5.676,15.645,11.22,21.189c7.639,7.64,15.279-10.695,16.807-16.807
				c1.528-6.112-9.168-21.391-12.223-24.447C438.958,833.621,426.735,835.149,431.318,844.317z"/>
			
				<linearGradient id="SVGID_00000136385103456792426610000012983460225303209140_" gradientUnits="userSpaceOnUse" x1="-1589.0502" y1="2570.9316" x2="-1485.0503" y2="2435.5984" gradientTransform="matrix(-1 0 0 1 -81.3526 0)">
				<stop  offset="0" style="stop-color:#FF928E"/>
				<stop  offset="1" style="stop-color:#FEB3B1"/>
			</linearGradient>
			<path style="fill:url(#SVGID_00000136385103456792426610000012983460225303209140_);" d="M266.094,1038.332
				c-17.834-40.019-34.669-99.824-15.056-159.598l11.363-11.363c0,0,0.005,93.62,23.297,140.112
				C279.187,1017.78,272.676,1028.08,266.094,1038.332z"/>
			
				<linearGradient id="SVGID_00000117656910704128967170000008114922493017800842_" gradientUnits="userSpaceOnUse" x1="-455.5656" y1="1029.7605" x2="-268.9617" y2="1268.9965" gradientTransform="matrix(-1 0 0 1 -81.3526 0)">
				<stop  offset="0" style="stop-color:#FE7062"/>
				<stop  offset="1" style="stop-color:#FF928E"/>
			</linearGradient>
			<path style="fill:url(#SVGID_00000117656910704128967170000008114922493017800842_);" d="M372.337,1024.01h-56.008
				c-5.626,0-11.027-2.157-15.102-6.035c-5.221-4.968-11.935-13.387-16.692-26.639c-0.721-2.01-2.88-3.115-4.927-2.508
				c-7.206,2.137-22.975,8.251-31.247,22.49c-0.774,1.332-0.763,2.984,0.074,4.279l34.935,54.063l-3.443,133.366
				c0,0,87.787,13.77,99.836,0l12.049-122.213c0,0,43.033-25.819,55.082-67.131l-36.147-20.656c0,0-4.21,0.173-7.803,9.854
				C398.212,1015.628,385.935,1024.01,372.337,1024.01z"/>
			
				<linearGradient id="SVGID_00000119090364579224786180000000870180041292118920_" gradientUnits="userSpaceOnUse" x1="342.9633" y1="985.4564" x2="336.9632" y2="1059.4563">
				<stop  offset="0" style="stop-color:#FF928E"/>
				<stop  offset="1" style="stop-color:#FEB3B1"/>
			</linearGradient>
			<path style="fill:url(#SVGID_00000119090364579224786180000000870180041292118920_);" d="M324.383,983.266l-1.292,43.226
				c-0.083,2.768,1.647,5.266,4.276,6.136c5.382,1.781,15.124,3.989,26.02,1.637c3.25-0.702,5.325-3.912,4.756-7.188l-5.922-34.05
				L324.383,983.266z"/>
			<g>
				
					<linearGradient id="SVGID_00000045612292632381798210000015107312643637790375_" gradientUnits="userSpaceOnUse" x1="-1120.7434" y1="-476.5889" x2="-1087.41" y2="-406.5887" gradientTransform="matrix(0.7818 -0.6235 0.6235 0.7818 -2624.0356 -1370.9766)">
					<stop  offset="0" style="stop-color:#FF928E"/>
					<stop  offset="1" style="stop-color:#FEB3B1"/>
				</linearGradient>
				<path style="fill:url(#SVGID_00000045612292632381798210000015107312643637790375_);" d="M354.008,943.688
					c0.39,0.489,13.458,36.046,19.206,51.715c1.455,3.967-0.707,8.334-4.74,9.594l-12.638,2.307
					c-8.378,1.529-16.7-2.937-20.058-10.763l-15.22-17.732c-8.273-9.639-5.43-24.545,5.886-30.315
					C337.588,942.81,349.81,938.424,354.008,943.688z"/>
				
					<linearGradient id="SVGID_00000038415245190527273650000001643107093156485783_" gradientUnits="userSpaceOnUse" x1="2141.8428" y1="929.4844" x2="2061.5857" y2="1035.658" gradientTransform="matrix(1 0 0 1 -1795.6976 0)">
					<stop  offset="0" style="stop-color:#09005D"/>
					<stop  offset="1" style="stop-color:#1A0F91"/>
				</linearGradient>
				<path style="fill:url(#SVGID_00000038415245190527273650000001643107093156485783_);" d="M328.855,982.786l3.618-1.809
					c0,0-14.47-23.514,1.809-25.322c16.279-1.809,30.749-5.426,30.749-14.47c0-9.044,0-25.323-19.896-18.088
					c-19.896,7.235-18.087,19.896-28.94,21.705c-10.852,1.809-19.896,3.617-16.279,14.47c3.617,10.853,10.853,18.087,7.235,21.705
					C303.532,984.595,319.811,1002.682,328.855,982.786z"/>
				
					<linearGradient id="SVGID_00000171703704697280416410000017732367051459983512_" gradientUnits="userSpaceOnUse" x1="-1137.8707" y1="-468.4283" x2="-1104.5375" y2="-398.4284" gradientTransform="matrix(0.7818 -0.6235 0.6235 0.7818 -2624.0356 -1370.9766)">
					<stop  offset="0" style="stop-color:#FF928E"/>
					<stop  offset="1" style="stop-color:#FEB3B1"/>
				</linearGradient>
				<path style="fill:url(#SVGID_00000171703704697280416410000017732367051459983512_);" d="M332.717,989.831
					c0,0-3.008-15.902-9.719-16.296c-6.712-0.395-12.878,5.464-5.724,14.069C326.172,998.307,332.717,989.831,332.717,989.831z"/>
			</g>
			
				<linearGradient id="SVGID_00000150794462755776330280000003611117021716289701_" gradientUnits="userSpaceOnUse" x1="-1628.5304" y1="2540.5996" x2="-1524.5303" y2="2405.2661" gradientTransform="matrix(-1 0 0 1 -81.3526 0)">
				<stop  offset="0" style="stop-color:#FF928E"/>
				<stop  offset="1" style="stop-color:#FEB3B1"/>
			</linearGradient>
			<path style="fill:url(#SVGID_00000150794462755776330280000003611117021716289701_);" d="M265.126,849.481l4.288,6.432
				c1.18,1.77,1.487,3.973,0.82,5.993c-1.742,5.273-5.676,15.645-11.22,21.189c-7.64,7.64-15.28-10.695-16.807-16.807
				c-1.528-6.112,9.167-21.391,12.223-24.447C257.486,838.785,269.71,840.313,265.126,849.481z"/>
		</g>
		<g>
			
				<linearGradient id="SVGID_00000169551987883138743490000004632826392311147441_" gradientUnits="userSpaceOnUse" x1="1442.4829" y1="1158.0851" x2="1307.4696" y2="1596.1283">
				<stop  offset="0" style="stop-color:#FE7062"/>
				<stop  offset="1" style="stop-color:#FF928E"/>
			</linearGradient>
			<path style="fill:url(#SVGID_00000169551987883138743490000004632826392311147441_);" d="M1452.119,1309.792
				c0,0-23.133-104.313-54.677-91.037s-27.339,37.932-37.853,45.519C1349.074,1271.86,1311.221,1326.861,1452.119,1309.792z"/>
			
				<linearGradient id="SVGID_00000023238766805442193330000003307926788221225091_" gradientUnits="userSpaceOnUse" x1="1519.3496" y1="1181.7767" x2="1384.3362" y2="1619.8206">
				<stop  offset="0" style="stop-color:#FE7062"/>
				<stop  offset="1" style="stop-color:#FF928E"/>
			</linearGradient>
			<path style="fill:url(#SVGID_00000023238766805442193330000003307926788221225091_);" d="M1447.913,1309.792
				c0,0-10.515-106.209,23.132-104.313c33.647,1.897,23.133,47.415,52.574,49.312
				C1553.061,1256.687,1565.679,1317.378,1447.913,1309.792z"/>
			
				<linearGradient id="SVGID_00000098208804281271722400000007269403172020247176_" gradientUnits="userSpaceOnUse" x1="1352.1528" y1="1366.0292" x2="1670.6344" y2="1571.3315">
				<stop  offset="0" style="stop-color:#4042E2"/>
				<stop  offset="1" style="stop-color:#4F52FF"/>
			</linearGradient>
			<path style="fill:url(#SVGID_00000098208804281271722400000007269403172020247176_);" d="M1526.16,1560.143h-140.016
				c-16.193,0-29.677-11.204-31.002-25.759l-18.026-198.035c-1.488-16.344,12.819-30.35,31.003-30.35h158.041
				c17.18,0,31.107,12.561,31.107,28.054v198.035C1557.267,1547.582,1543.34,1560.143,1526.16,1560.143z"/>
			
				<linearGradient id="SVGID_00000020398487502340201380000008381370481744394941_" gradientUnits="userSpaceOnUse" x1="1523.8846" y1="1183.1744" x2="1388.871" y2="1621.2188">
				<stop  offset="0" style="stop-color:#FE7062"/>
				<stop  offset="1" style="stop-color:#FF928E"/>
			</linearGradient>
			
				<rect x="1422.678" y="1305.999" style="fill:url(#SVGID_00000020398487502340201380000008381370481744394941_);" width="48.368" height="254.144"/>
		</g>
		<g>
			
				<linearGradient id="SVGID_00000012436926101398678760000010316095635897071511_" gradientUnits="userSpaceOnUse" x1="1520.0881" y1="1343.9061" x2="1619.1783" y2="1343.9061">
				<stop  offset="0" style="stop-color:#E1473D"/>
				<stop  offset="1" style="stop-color:#E9605A"/>
			</linearGradient>
			<path style="fill:url(#SVGID_00000012436926101398678760000010316095635897071511_);" d="M1619.178,1385.838
				c0,0-21.813-98.362-51.557-85.843c-29.745,12.519-25.779,35.768-35.694,42.922
				C1522.012,1350.07,1486.318,1401.933,1619.178,1385.838z"/>
			
				<linearGradient id="SVGID_00000167365036598806413270000012133308577845464234_" gradientUnits="userSpaceOnUse" x1="1613.7456" y1="1336.9543" x2="1705.501" y2="1336.9543">
				<stop  offset="0" style="stop-color:#E1473D"/>
				<stop  offset="1" style="stop-color:#E9605A"/>
			</linearGradient>
			<path style="fill:url(#SVGID_00000167365036598806413270000012133308577845464234_);" d="M1615.212,1385.838
				c0,0-9.915-100.15,21.813-98.362c31.728,1.789,21.813,44.71,49.575,46.498C1714.361,1335.763,1726.26,1392.992,1615.212,1385.838
				z"/>
			
				<linearGradient id="SVGID_00000053546622440339729960000016474613825215966594_" gradientUnits="userSpaceOnUse" x1="1720.7161" y1="1309.4008" x2="1471.6914" y2="1699.4388">
				<stop  offset="0" style="stop-color:#FE7062"/>
				<stop  offset="1" style="stop-color:#FF928E"/>
			</linearGradient>
			<path style="fill:url(#SVGID_00000053546622440339729960000016474613825215966594_);" d="M1688.995,1569.319h-132.028
				c-15.269,0-27.985-10.565-29.234-24.29l-16.997-134.15c-1.403-15.412,12.088-28.619,29.234-28.619h149.025
				c16.199,0,29.332,11.844,29.332,26.454v134.15C1718.328,1557.475,1705.195,1569.319,1688.995,1569.319z"/>
			
				<linearGradient id="SVGID_00000028325339294821091480000017175407368966912671_" gradientUnits="userSpaceOnUse" x1="1591.4166" y1="1475.79" x2="1637.025" y2="1475.79">
				<stop  offset="0" style="stop-color:#E1473D"/>
				<stop  offset="1" style="stop-color:#E9605A"/>
			</linearGradient>
			
				<rect x="1591.417" y="1382.261" style="fill:url(#SVGID_00000028325339294821091480000017175407368966912671_);" width="45.608" height="187.058"/>
		</g>
		<g>
			<path style="fill:#FFFFFF;" d="M580.53,1078.025l-2.408-5.457c-0.322-0.729,0.009-1.581,0.738-1.903
				c0.729-0.322,1.581,0.009,1.903,0.738l0.004,0.008l0.005,0.011l2.365,5.45l0.005,0.011c0.313,0.722-0.018,1.561-0.74,1.874
				C581.682,1079.069,580.846,1078.741,580.53,1078.025z"/>
			<path style="fill:#FFFFFF;" d="M572.682,1059.764l-2.255-5.52c-0.314-0.769,0.055-1.647,0.823-1.961
				c0.769-0.314,1.647,0.055,1.961,0.823l0.004,0.009l0.005,0.012l2.211,5.51l0.005,0.012c0.306,0.761-0.064,1.626-0.825,1.932
				C573.852,1060.885,572.991,1060.52,572.682,1059.764z"/>
			<path style="fill:#FFFFFF;" d="M565.35,1041.29l-2.095-5.584c-0.304-0.809,0.106-1.711,0.915-2.015
				c0.809-0.303,1.711,0.106,2.015,0.915l0.003,0.009l0.005,0.013l2.051,5.57l0.005,0.013c0.295,0.801-0.115,1.69-0.917,1.985
				C566.534,1042.492,565.649,1042.085,565.35,1041.29z"/>
			<path style="fill:#FFFFFF;" d="M558.563,1022.604l-1.925-5.646c-0.29-0.85,0.164-1.773,1.014-2.063
				c0.85-0.29,1.773,0.164,2.063,1.014l0.003,0.01l0.005,0.014l1.881,5.629l0.005,0.014c0.281,0.842-0.173,1.752-1.015,2.034
				C559.755,1023.89,558.848,1023.44,558.563,1022.604z"/>
			<path style="fill:#FFFFFF;" d="M552.352,1003.716l-1.746-5.705c-0.273-0.89,0.229-1.833,1.119-2.106
				c0.891-0.273,1.833,0.228,2.106,1.119l0.003,0.01l0.005,0.016l1.702,5.684l0.005,0.016c0.264,0.882-0.237,1.812-1.12,2.076
				C553.546,1005.088,552.62,1004.592,552.352,1003.716z"/>
			<path style="fill:#FFFFFF;" d="M546.75,984.632l-1.556-5.761c-0.252-0.931,0.3-1.89,1.231-2.142
				c0.931-0.252,1.89,0.3,2.142,1.231l0.003,0.01l0.005,0.017l1.512,5.736l0.004,0.017c0.243,0.923-0.308,1.869-1.231,2.112
				C547.94,986.095,546.998,985.549,546.75,984.632z"/>
			<path style="fill:#FFFFFF;" d="M541.794,965.366l-1.355-5.813c-0.227-0.972,0.378-1.944,1.35-2.171
				c0.972-0.227,1.944,0.378,2.171,1.35l0.003,0.011l0.004,0.019l1.311,5.784l0.004,0.019c0.218,0.964-0.386,1.922-1.35,2.141
				C542.972,966.923,542.018,966.323,541.794,965.366z"/>
			<path style="fill:#FFFFFF;" d="M537.523,945.932l-1.142-5.86c-0.197-1.013,0.464-1.994,1.477-2.191
				c1.013-0.197,1.994,0.464,2.191,1.477l0.002,0.011l0.004,0.021l1.099,5.826l0.004,0.02c0.189,1.004-0.471,1.972-1.475,2.161
				C538.681,947.584,537.717,946.929,537.523,945.932z"/>
			<path style="fill:#FFFFFF;" d="M533.975,926.347l-0.918-5.908c-0.164-1.053,0.557-2.039,1.61-2.203
				c1.053-0.164,2.039,0.557,2.203,1.61l0.002,0.012l0.003,0.022l0.875,5.868l0.003,0.022c0.156,1.044-0.564,2.016-1.608,2.172
				C535.105,928.098,534.136,927.384,533.975,926.347z"/>
			<path style="fill:#FFFFFF;" d="M531.19,906.62l-0.68-5.935c-0.125-1.092,0.659-2.078,1.751-2.203
				c1.092-0.125,2.078,0.659,2.203,1.751l0.001,0.012l0.003,0.024l0.638,5.891l0.003,0.024c0.117,1.083-0.665,2.055-1.748,2.173
				C532.283,908.473,531.314,907.696,531.19,906.62z"/>
			<path style="fill:#FFFFFF;" d="M529.214,886.809l-0.43-5.956c-0.081-1.13,0.768-2.111,1.898-2.193
				c1.13-0.081,2.111,0.768,2.193,1.898l0.001,0.013l0.002,0.026l0.39,5.906l0.002,0.026c0.074,1.12-0.774,2.088-1.894,2.162
				C530.259,888.765,529.294,887.923,529.214,886.809z"/>
			<path style="fill:#FFFFFF;" d="M528.083,866.924l-0.168-5.969c-0.033-1.166,0.885-2.137,2.051-2.17s2.137,0.885,2.17,2.051
				l0,0.013l0.001,0.028l0.13,5.914l0.001,0.028c0.026,1.156-0.891,2.113-2.047,2.139
				C529.07,868.983,528.115,868.073,528.083,866.924z"/>
			<path style="fill:#FFFFFF;" d="M527.837,847.004l0.104-5.974c0.021-1.2,1.01-2.155,2.21-2.134c1.199,0.021,2.155,1.01,2.134,2.21
				l0,0.013l-0.001,0.03l-0.139,5.913l-0.001,0.03c-0.028,1.189-1.015,2.131-2.204,2.103
				C528.755,849.167,527.817,848.187,527.837,847.004z"/>
			<path style="fill:#FFFFFF;" d="M528.511,827.091l0.387-5.969c0.08-1.231,1.142-2.164,2.373-2.084
				c1.231,0.08,2.164,1.142,2.084,2.373l-0.001,0.014l-0.002,0.032l-0.419,5.903l-0.002,0.032c-0.087,1.22-1.146,2.139-2.366,2.052
				C529.349,829.357,528.433,828.305,528.511,827.091z"/>
			<path style="fill:#FFFFFF;" d="M530.154,807.214l0.692-5.945c0.146-1.258,1.285-2.16,2.544-2.013
				c1.258,0.146,2.16,1.285,2.013,2.544l-0.002,0.014l-0.004,0.035l-0.72,5.87l-0.004,0.035c-0.153,1.247-1.288,2.134-2.535,1.981
				C530.894,809.583,530.009,808.455,530.154,807.214z"/>
			<path style="fill:#FFFFFF;" d="M532.821,787.441l1-5.902c0.217-1.282,1.433-2.145,2.715-1.928
				c1.282,0.217,2.145,1.433,1.928,2.715l-0.002,0.014l-0.006,0.036l-1.023,5.824l-0.006,0.036c-0.223,1.271-1.435,2.12-2.705,1.897
				C533.454,789.91,532.607,788.707,532.821,787.441z"/>
			<path style="fill:#FFFFFF;" d="M536.513,767.831l1.307-5.843c0.291-1.302,1.583-2.121,2.884-1.83
				c1.302,0.291,2.121,1.583,1.83,2.884l-0.003,0.014l-0.009,0.037l-1.326,5.761l-0.009,0.037c-0.297,1.29-1.583,2.095-2.873,1.798
				C537.029,770.394,536.225,769.116,536.513,767.831z"/>
			<path style="fill:#FFFFFF;" d="M541.229,748.436l1.615-5.767c0.369-1.317,1.735-2.085,3.052-1.717
				c1.317,0.369,2.085,1.735,1.717,3.052l-0.004,0.015l-0.011,0.038l-1.629,5.682l-0.011,0.038c-0.374,1.305-1.735,2.059-3.04,1.685
				C541.619,751.089,540.866,749.736,541.229,748.436z"/>
			<path style="fill:#FFFFFF;" d="M546.975,729.315l1.925-5.674c0.45-1.327,1.891-2.037,3.217-1.587
				c1.327,0.45,2.037,1.891,1.587,3.217l-0.005,0.015l-0.014,0.039l-1.932,5.583l-0.013,0.039c-0.455,1.314-1.889,2.011-3.204,1.556
				C547.227,732.051,546.531,730.625,546.975,729.315z"/>
			<path style="fill:#FFFFFF;" d="M553.754,710.529l2.237-5.561c0.535-1.331,2.048-1.976,3.379-1.441
				c1.331,0.535,1.976,2.048,1.441,3.379l-0.006,0.015l-0.017,0.04l-2.238,5.466l-0.016,0.04c-0.54,1.318-2.046,1.949-3.364,1.41
				C553.857,713.341,553.226,711.844,553.754,710.529z"/>
			<path style="fill:#FFFFFF;" d="M561.576,692.144l2.551-5.426c0.625-1.329,2.208-1.9,3.537-1.275
				c1.329,0.625,1.899,2.208,1.275,3.537l-0.007,0.015l-0.02,0.042l-2.544,5.328l-0.02,0.041c-0.628,1.316-2.204,1.873-3.52,1.245
				C561.517,695.024,560.959,693.457,561.576,692.144z"/>
			<path style="fill:#FFFFFF;" d="M570.449,674.234l2.874-5.265c0.717-1.313,2.362-1.797,3.676-1.08
				c1.313,0.717,1.797,2.362,1.08,3.675l-0.004,0.008l-0.023,0.043l-2.845,5.17l-0.023,0.043c-0.719,1.306-2.359,1.782-3.665,1.063
				C570.211,677.173,569.731,675.54,570.449,674.234z"/>
			<path style="fill:#FFFFFF;" d="M580.399,656.89l3.193-5.085c0.806-1.283,2.499-1.67,3.782-0.864
				c1.283,0.805,1.67,2.499,0.864,3.782l-0.005,0.008l-0.028,0.043l-3.155,4.987l-0.027,0.043c-0.807,1.275-2.495,1.655-3.77,0.848
				C579.977,659.845,579.592,658.165,580.399,656.89z"/>
			<path style="fill:#FFFFFF;" d="M591.405,640.187l3.505-4.868c0.896-1.245,2.632-1.527,3.876-0.631
				c1.245,0.896,1.527,2.632,0.631,3.876l-0.006,0.008l-0.032,0.043l-3.458,4.769l-0.031,0.043
				c-0.897,1.237-2.627,1.513-3.864,0.616C590.789,643.147,590.508,641.424,591.405,640.187z"/>
			<path style="fill:#FFFFFF;" d="M603.462,624.221l3.821-4.634c0.988-1.198,2.76-1.368,3.958-0.38
				c1.198,0.988,1.368,2.76,0.38,3.958l-0.006,0.008l-0.036,0.043l-3.766,4.534l-0.036,0.043c-0.988,1.19-2.754,1.354-3.944,0.365
				C602.643,627.169,602.474,625.411,603.462,624.221z"/>
			<path style="fill:#FFFFFF;" d="M616.563,609.081l4.13-4.365c1.08-1.142,2.881-1.192,4.022-0.112s1.192,2.881,0.112,4.023
				l-0.007,0.007l-0.041,0.043l-4.063,4.265l-0.041,0.043c-1.08,1.134-2.875,1.177-4.008,0.097
				C615.533,612.002,615.482,610.214,616.563,609.081z"/>
			<path style="fill:#FFFFFF;" d="M630.679,594.871l4.424-4.063c1.171-1.076,2.993-0.998,4.069,0.173
				c1.076,1.171,0.998,2.993-0.173,4.069l-0.007,0.007l-0.045,0.041l-4.347,3.965l-0.045,0.041
				c-1.171,1.068-2.986,0.984-4.053-0.186C629.432,597.747,629.508,595.939,630.679,594.871z"/>
			<path style="fill:#FFFFFF;" d="M645.762,581.697l4.704-3.742c1.26-1.002,3.093-0.793,4.094,0.467
				c1.002,1.259,0.793,3.092-0.467,4.094l-0.008,0.006l-0.048,0.038l-4.621,3.649l-0.048,0.038
				c-1.258,0.994-3.084,0.779-4.078-0.479C644.297,584.51,644.504,582.691,645.762,581.697z"/>
			<path style="fill:#FFFFFF;" d="M661.741,569.615l4.952-3.405c1.342-0.922,3.177-0.583,4.1,0.759
				c0.922,1.342,0.583,3.177-0.759,4.099l-0.008,0.006l-0.05,0.034l-4.864,3.319l-0.05,0.034c-1.34,0.914-3.168,0.57-4.082-0.77
				C660.064,572.351,660.401,570.529,661.741,569.615z"/>
			<path style="fill:#FFFFFF;" d="M678.51,558.666l5.17-3.06c1.417-0.839,3.246-0.37,4.085,1.048
				c0.839,1.417,0.37,3.246-1.047,4.085l-0.009,0.005l-0.051,0.03l-5.078,2.982l-0.052,0.03c-1.415,0.831-3.236,0.357-4.067-1.058
				C676.63,561.313,677.095,559.497,678.51,558.666z"/>
			<path style="fill:#FFFFFF;" d="M695.971,548.871l5.358-2.713c1.486-0.753,3.301-0.158,4.054,1.328
				c0.752,1.486,0.158,3.301-1.328,4.054l-0.009,0.005l-0.052,0.026l-5.263,2.642l-0.052,0.026c-1.484,0.745-3.29,0.146-4.035-1.338
				C693.898,551.417,694.488,549.615,695.971,548.871z"/>
			<path style="fill:#FFFFFF;" d="M714.023,540.23l5.516-2.369c1.548-0.665,3.342,0.051,4.007,1.599
				c0.665,1.548-0.051,3.342-1.599,4.007l-0.01,0.004l-0.052,0.022l-5.421,2.306l-0.052,0.022c-1.545,0.657-3.33-0.062-3.988-1.607
				C711.768,542.668,712.478,540.887,714.023,540.23z"/>
			<path style="fill:#FFFFFF;" d="M732.57,532.726l5.646-2.033c1.603-0.577,3.37,0.254,3.947,1.857s-0.254,3.37-1.857,3.947
				l-0.01,0.004l-0.051,0.018l-5.552,1.977l-0.051,0.018c-1.599,0.57-3.358-0.265-3.928-1.865
				C730.145,535.051,730.97,533.296,732.57,532.726z"/>
			<path style="fill:#FFFFFF;" d="M751.521,526.332l5.752-1.707c1.651-0.49,3.387,0.451,3.878,2.102
				c0.49,1.651-0.451,3.387-2.102,3.878l-0.01,0.003l-0.05,0.015l-5.658,1.658l-0.05,0.015c-1.648,0.483-3.375-0.461-3.857-2.109
				C748.939,528.539,749.873,526.815,751.521,526.332z"/>
			<path style="fill:#FFFFFF;" d="M770.794,521.01l5.834-1.394c1.694-0.405,3.395,0.64,3.8,2.334
				c0.405,1.694-0.64,3.395-2.334,3.799l-0.011,0.003l-0.048,0.011l-5.742,1.351l-0.048,0.011c-1.69,0.398-3.381-0.65-3.779-2.339
				C768.068,523.097,769.105,521.407,770.794,521.01z"/>
			<path style="fill:#FFFFFF;" d="M790.318,516.716l5.896-1.094c1.731-0.321,3.394,0.821,3.715,2.552
				c0.321,1.731-0.821,3.394-2.552,3.715l-0.011,0.002l-0.047,0.008l-5.806,1.057l-0.047,0.008c-1.726,0.314-3.38-0.83-3.695-2.556
				C787.458,518.682,788.592,517.03,790.318,516.716z"/>
			<path style="fill:#FFFFFF;" d="M810.026,513.405l5.94-0.809c1.763-0.24,3.386,0.995,3.626,2.758
				c0.24,1.763-0.995,3.387-2.757,3.626l-0.011,0.002l-0.045,0.006l-5.853,0.776l-0.045,0.006c-1.758,0.233-3.372-1.003-3.605-2.761
				C807.043,515.251,808.268,513.638,810.026,513.405z"/>
			<path style="fill:#FFFFFF;" d="M829.864,511.031l5.969-0.537c1.791-0.161,3.373,1.16,3.534,2.951
				c0.161,1.791-1.16,3.373-2.951,3.534l-0.011,0.001l-0.043,0.004l-5.884,0.509l-0.043,0.004c-1.786,0.154-3.358-1.168-3.513-2.954
				C826.767,512.757,828.078,511.185,829.864,511.031z"/>
			<path style="fill:#FFFFFF;" d="M849.782,509.548l5.985-0.278c1.815-0.084,3.354,1.319,3.439,3.134
				c0.084,1.815-1.319,3.354-3.134,3.439l-0.011,0.001l-0.041,0.002l-5.903,0.254l-0.042,0.002c-1.81,0.078-3.339-1.326-3.417-3.136
				C846.58,511.155,847.973,509.625,849.782,509.548z"/>
			<path style="fill:#FFFFFF;" d="M869.741,508.913l5.993-0.031c1.836-0.01,3.332,1.471,3.341,3.307
				c0.01,1.836-1.471,3.332-3.307,3.341h-0.011l-0.04,0l-5.913,0.01l-0.04,0c-1.83,0.003-3.316-1.478-3.32-3.308
				C866.442,510.402,867.911,508.916,869.741,508.913z"/>
			<path style="fill:#FFFFFF;" d="M889.707,509.086l5.985,0.204c1.854,0.063,3.305,1.617,3.242,3.471
				c-0.063,1.854-1.617,3.305-3.471,3.242l-0.012,0l-0.039-0.001l-5.907-0.222l-0.039-0.001c-1.848-0.069-3.289-1.623-3.22-3.471
				C886.317,510.459,887.86,509.017,889.707,509.086z"/>
			<path style="fill:#FFFFFF;" d="M909.644,510.032l5.972,0.429c1.869,0.134,3.275,1.758,3.14,3.627
				c-0.134,1.869-1.758,3.275-3.627,3.14l-0.012-0.001l-0.037-0.003l-5.896-0.444l-0.038-0.003c-1.863-0.14-3.259-1.764-3.118-3.626
				C906.17,511.289,907.782,509.892,909.644,510.032z"/>
			<path style="fill:#FFFFFF;" d="M929.529,511.718l5.952,0.646c1.881,0.204,3.241,1.895,3.037,3.776
				c-0.204,1.881-1.895,3.241-3.776,3.037l-0.012-0.001l-0.036-0.004l-5.876-0.658l-0.036-0.004c-1.875-0.21-3.225-1.9-3.015-3.775
				C925.976,512.859,927.654,511.508,929.529,511.718z"/>
			<path style="fill:#FFFFFF;" d="M949.339,514.116l5.924,0.855c1.892,0.273,3.204,2.028,2.931,3.919
				c-0.273,1.892-2.028,3.204-3.919,2.931l-0.012-0.002l-0.036-0.005l-5.85-0.865l-0.036-0.005
				c-1.885-0.279-3.188-2.033-2.909-3.918C945.711,515.141,947.453,513.837,949.339,514.116z"/>
			<path style="fill:#FFFFFF;" d="M969.05,517.202l5.891,1.057c1.9,0.341,3.163,2.157,2.822,4.057
				c-0.341,1.9-2.157,3.164-4.057,2.823l-0.012-0.002l-0.035-0.006l-5.818-1.065l-0.035-0.006c-1.893-0.346-3.147-2.162-2.8-4.055
				C965.354,518.112,967.157,516.856,969.05,517.202z"/>
			<path style="fill:#FFFFFF;" d="M988.644,520.958l5.852,1.255c1.906,0.409,3.119,2.285,2.711,4.19
				c-0.409,1.906-2.285,3.119-4.19,2.711l-0.012-0.003l-0.035-0.008l-5.779-1.26l-0.035-0.008c-1.899-0.414-3.102-2.289-2.688-4.188
				C984.882,521.75,986.745,520.544,988.644,520.958z"/>
			<path style="fill:#FFFFFF;" d="M1008.097,525.367l5.8,1.436c1.91,0.473,3.075,2.405,2.602,4.315s-2.405,3.075-4.315,2.602
				l-0.012-0.003l-0.028-0.007l-5.739-1.442l-0.028-0.007c-1.903-0.478-3.058-2.409-2.58-4.312
				C1004.276,526.047,1006.194,524.889,1008.097,525.367z"/>
			<path style="fill:#FFFFFF;" d="M1027.389,530.351l5.76,1.6c1.904,0.529,3.019,2.501,2.491,4.406
				c-0.529,1.904-2.501,3.02-4.406,2.491l-0.004-0.001l-0.027-0.008l-5.704-1.591l-0.027-0.008
				c-1.902-0.531-3.014-2.502-2.483-4.404C1023.519,530.934,1025.487,529.821,1027.389,530.351z"/>
			<path style="fill:#FFFFFF;" d="M1046.539,535.86l5.716,1.75c1.896,0.58,2.962,2.588,2.382,4.484
				c-0.58,1.896-2.588,2.962-4.484,2.382l-0.004-0.001l-0.026-0.008l-5.661-1.74l-0.027-0.008c-1.893-0.582-2.956-2.589-2.374-4.482
				C1042.643,536.343,1044.646,535.278,1046.539,535.86z"/>
			<path style="fill:#FFFFFF;" d="M1065.537,541.864l5.668,1.894c1.886,0.63,2.905,2.671,2.274,4.557
				c-0.63,1.886-2.671,2.905-4.557,2.274l-0.004-0.001l-0.026-0.008l-5.615-1.884l-0.026-0.009
				c-1.884-0.632-2.899-2.671-2.267-4.555C1061.618,542.248,1063.653,541.232,1065.537,541.864z"/>
			<path style="fill:#FFFFFF;" d="M1084.376,548.341l5.619,2.033c1.876,0.679,2.847,2.75,2.168,4.626
				c-0.679,1.876-2.75,2.847-4.626,2.168l-0.004-0.001l-0.025-0.009l-5.568-2.021l-0.025-0.009c-1.874-0.68-2.841-2.751-2.161-4.624
				C1080.436,548.63,1082.502,547.661,1084.376,548.341z"/>
			<path style="fill:#FFFFFF;" d="M1103.049,555.274l5.569,2.166c1.865,0.725,2.789,2.826,2.064,4.691
				c-0.725,1.865-2.825,2.789-4.691,2.064l-0.004-0.002l-0.023-0.009l-5.519-2.153l-0.024-0.009
				c-1.863-0.727-2.784-2.826-2.057-4.689C1099.09,555.47,1101.186,554.547,1103.049,555.274z"/>
			<path style="fill:#FFFFFF;" d="M1121.551,562.642l5.517,2.292c1.854,0.77,2.733,2.898,1.963,4.752
				c-0.77,1.854-2.898,2.733-4.752,1.962l-0.004-0.002l-0.023-0.009l-5.469-2.279l-0.023-0.009
				c-1.852-0.772-2.727-2.898-1.955-4.749C1117.577,562.747,1119.7,561.87,1121.551,562.642z"/>
			<path style="fill:#FFFFFF;" d="M1139.88,570.423l5.465,2.412c1.842,0.813,2.677,2.966,1.863,4.808
				c-0.813,1.842-2.966,2.677-4.808,1.863l-0.004-0.002l-0.022-0.01l-5.419-2.399l-0.022-0.009c-1.84-0.815-2.671-2.966-1.856-4.806
				C1135.892,570.441,1138.04,569.609,1139.88,570.423z"/>
			<path style="fill:#FFFFFF;" d="M1158.033,578.599l5.412,2.526c1.83,0.855,2.621,3.031,1.767,4.862
				c-0.855,1.83-3.031,2.622-4.862,1.767l-0.004-0.002l-0.02-0.009l-5.368-2.514l-0.021-0.01c-1.828-0.856-2.616-3.031-1.76-4.859
				C1154.034,578.533,1156.206,577.743,1158.033,578.599z"/>
			<path style="fill:#FFFFFF;" d="M1176.011,587.149l5.359,2.635c1.818,0.894,2.568,3.093,1.674,4.912
				c-0.894,1.818-3.093,2.568-4.912,1.674l-0.004-0.002l-0.019-0.01l-5.317-2.622l-0.02-0.01c-1.816-0.895-2.562-3.093-1.667-4.909
				C1172.001,587.001,1174.195,586.253,1176.011,587.149z"/>
			<path style="fill:#FFFFFF;" d="M1193.812,596.053l5.306,2.737c1.806,0.932,2.515,3.152,1.583,4.958
				c-0.932,1.806-3.152,2.515-4.958,1.583l-0.004-0.002l-0.018-0.01l-5.266-2.724l-0.019-0.01c-1.804-0.933-2.509-3.152-1.576-4.955
				C1189.793,595.827,1192.008,595.12,1193.812,596.053z"/>
			<path style="fill:#FFFFFF;" d="M1211.438,605.292l5.254,2.834c1.795,0.968,2.464,3.207,1.497,5.002
				c-0.968,1.794-3.207,2.464-5.002,1.496l-0.004-0.002l-0.017-0.009l-5.216-2.821l-0.017-0.009
				c-1.792-0.969-2.458-3.207-1.489-4.999C1207.412,604.991,1209.646,604.323,1211.438,605.292z"/>
			<path style="fill:#FFFFFF;" d="M1228.891,614.847l5.203,2.925c1.783,1.002,2.415,3.26,1.413,5.043s-3.26,2.415-5.043,1.413
				l-0.004-0.002l-0.017-0.009l-5.166-2.913l-0.017-0.009c-1.78-1.004-2.409-3.26-1.406-5.04
				C1224.859,614.475,1227.111,613.843,1228.891,614.847z"/>
			<path style="fill:#FFFFFF;" d="M1246.175,624.7l5.145,3.007c1.771,1.035,2.368,3.31,1.333,5.081
				c-1.035,1.771-3.31,2.368-5.081,1.333l-0.004-0.002l-0.016-0.009l-5.11-2.995l-0.016-0.009c-1.768-1.036-2.362-3.31-1.325-5.078
				C1242.137,624.26,1244.407,623.664,1246.175,624.7z"/>
			<path style="fill:#FFFFFF;" d="M1263.285,634.829l5.1,3.09c1.76,1.066,2.322,3.357,1.256,5.117
				c-1.066,1.76-3.357,2.322-5.117,1.256l-0.004-0.002l-0.015-0.009l-5.067-3.078l-0.015-0.009
				c-1.757-1.067-2.316-3.357-1.249-5.114C1259.242,634.323,1261.528,633.762,1263.285,634.829z"/>
			<path style="fill:#FFFFFF;" d="M1280.232,645.22l5.055,3.168c1.749,1.096,2.278,3.402,1.183,5.151
				c-1.096,1.749-3.402,2.278-5.151,1.183l-0.004-0.002l-0.014-0.009l-5.024-3.156l-0.014-0.009
				c-1.746-1.097-2.272-3.401-1.175-5.148C1276.185,644.652,1278.486,644.124,1280.232,645.22z"/>
			<path style="fill:#FFFFFF;" d="M1297.033,655.865l5.012,3.241c1.738,1.124,2.237,3.444,1.113,5.183
				c-1.124,1.738-3.444,2.237-5.183,1.113l-0.003-0.002l-0.013-0.008l-4.983-3.229l-0.013-0.009
				c-1.736-1.125-2.231-3.444-1.106-5.179C1292.982,655.238,1295.298,654.741,1297.033,655.865z"/>
			<path style="fill:#FFFFFF;" d="M1313.682,666.742l4.97,3.309c1.729,1.151,2.197,3.484,1.046,5.213
				c-1.151,1.728-3.484,2.197-5.213,1.046l-0.004-0.002l-0.012-0.008l-4.942-3.298l-0.012-0.008
				c-1.726-1.152-2.191-3.484-1.039-5.209C1309.628,666.058,1311.957,665.59,1313.682,666.742z"/>
			<path style="fill:#FFFFFF;" d="M1330.188,677.836l4.929,3.372c1.719,1.176,2.159,3.522,0.983,5.241
				c-1.176,1.719-3.522,2.159-5.241,0.983l-0.003-0.002l-0.011-0.008l-4.902-3.362l-0.011-0.008
				c-1.716-1.177-2.153-3.522-0.977-5.238C1326.13,677.099,1328.472,676.659,1330.188,677.836z"/>
			<path style="fill:#FFFFFF;" d="M1346.554,689.132l4.889,3.43c1.71,1.2,2.124,3.558,0.924,5.268
				c-1.2,1.71-3.558,2.124-5.268,0.924l-0.004-0.003l-0.011-0.008l-4.864-3.421l-0.011-0.008c-1.707-1.201-2.118-3.558-0.917-5.265
				C1342.493,688.345,1344.847,687.932,1346.554,689.132z"/>
			<path style="fill:#FFFFFF;" d="M1362.787,700.616l4.85,3.484c1.702,1.222,2.09,3.592,0.868,5.294s-3.592,2.09-5.294,0.868
				l-0.004-0.002l-0.01-0.007l-4.827-3.475l-0.01-0.007c-1.699-1.223-2.084-3.591-0.861-5.29
				C1358.724,699.781,1361.089,699.393,1362.787,700.616z"/>
			<path style="fill:#FFFFFF;" d="M1378.893,712.274l4.813,3.532c1.694,1.243,2.059,3.625,0.816,5.318
				c-1.243,1.694-3.625,2.059-5.318,0.816l-0.004-0.003l-0.009-0.007l-4.79-3.524l-0.009-0.007
				c-1.691-1.244-2.053-3.624-0.809-5.315C1374.826,711.394,1377.202,711.029,1378.893,712.274z"/>
			<path style="fill:#FFFFFF;" d="M1394.878,724.091l4.775,3.577c1.687,1.263,2.03,3.655,0.767,5.342s-3.655,2.03-5.342,0.767
				l-0.004-0.003l-0.008-0.006l-4.755-3.569l-0.008-0.006c-1.684-1.264-2.024-3.654-0.76-5.338
				C1390.807,723.17,1393.194,722.827,1394.878,724.091z"/>
			<path style="fill:#FFFFFF;" d="M1410.753,736.059l4.74,3.616c1.681,1.282,2.004,3.684,0.722,5.364
				c-1.282,1.681-3.684,2.004-5.365,0.721l-0.011-0.009l-4.72-3.609c-1.681-1.279-2.007-3.678-0.728-5.359
				C1406.668,735.103,1409.072,734.78,1410.753,736.059z"/>
			<path style="fill:#FFFFFF;" d="M1426.513,748.154l4.711,3.652c1.676,1.299,1.981,3.71,0.682,5.386
				c-1.299,1.676-3.71,1.981-5.386,0.682l-0.009-0.007l-4.695-3.648c-1.675-1.296-1.982-3.705-0.686-5.38
				C1422.426,747.163,1424.838,746.858,1426.513,748.154z"/>
			<path style="fill:#FFFFFF;" d="M1442.183,760.351l4.695,3.678c1.674,1.311,1.968,3.731,0.656,5.405
				c-1.311,1.674-3.731,1.968-5.405,0.656l-0.007-0.005l-4.684-3.678c-1.672-1.31-1.966-3.728-0.656-5.4
				C1438.093,759.335,1440.511,759.041,1442.183,760.351z"/>
			<path style="fill:#FFFFFF;" d="M1457.799,772.612l4.675,3.682c1.676,1.319,1.964,3.747,0.645,5.422
				c-1.319,1.675-3.747,1.964-5.422,0.644l-0.005-0.003l-4.669-3.686c-1.673-1.319-1.96-3.745-0.64-5.418
				C1453.702,771.581,1456.126,771.293,1457.799,772.612z"/>
			<path style="fill:#FFFFFF;" d="M1473.379,784.886l4.673,3.68c1.681,1.323,1.971,3.757,0.649,5.438
				c-1.323,1.681-3.757,1.971-5.438,0.649l-0.005-0.004l-4.671-3.687c-1.677-1.324-1.964-3.757-0.64-5.434
				C1469.271,783.851,1471.702,783.563,1473.379,784.886z"/>
			<path style="fill:#FFFFFF;" d="M1488.962,797.141l4.68,3.666c1.69,1.321,1.99,3.762,0.669,5.452
				c-1.321,1.69-3.762,1.99-5.452,0.669l-0.007-0.005l-4.683-3.677c-1.686-1.323-1.979-3.763-0.655-5.448
				C1484.837,796.111,1487.277,795.817,1488.962,797.141z"/>
			<path style="fill:#FFFFFF;" d="M1504.58,809.336l4.696,3.641c1.703,1.315,2.018,3.761,0.703,5.464
				c-1.315,1.703-3.761,2.017-5.464,0.703l-0.009-0.007l-4.704-3.655c-1.697-1.319-2.004-3.764-0.685-5.461
				C1500.435,808.322,1502.883,808.017,1504.58,809.336z"/>
			<path style="fill:#FFFFFF;" d="M1520.262,821.43l4.722,3.603l0.008,0.006c1.715,1.309,2.045,3.76,0.736,5.475
				c-1.309,1.715-3.76,2.045-5.475,0.736l-0.004-0.003l-4.734-3.621c-1.712-1.31-2.039-3.759-0.729-5.471
				c1.31-1.712,3.759-2.039,5.471-0.729L1520.262,821.43z"/>
			<path style="fill:#FFFFFF;" d="M1536.039,833.385l4.756,3.552l0.011,0.008c1.734,1.295,2.089,3.75,0.794,5.483
				c-1.295,1.733-3.75,2.089-5.483,0.794l-0.004-0.003l-4.774-3.574c-1.73-1.296-2.083-3.749-0.787-5.48
				c1.296-1.73,3.749-2.083,5.479-0.787L1536.039,833.385z"/>
			<path style="fill:#FFFFFF;" d="M1551.941,845.156l4.799,3.489l0.013,0.01c1.755,1.276,2.143,3.733,0.867,5.489
				c-1.276,1.755-3.733,2.143-5.488,0.867l-0.004-0.003l-4.822-3.515c-1.752-1.277-2.137-3.733-0.86-5.485
				c1.277-1.752,3.733-2.137,5.485-0.86L1551.941,845.156z"/>
			<path style="fill:#FFFFFF;" d="M1567.993,856.702l4.855,3.417l0.016,0.011c1.78,1.253,2.207,3.711,0.954,5.49
				c-1.253,1.78-3.711,2.207-5.49,0.954l-0.004-0.003l-4.883-3.445c-1.777-1.253-2.201-3.71-0.947-5.487
				c1.254-1.777,3.71-2.201,5.487-0.947L1567.993,856.702z"/>
			<path style="fill:#FFFFFF;" d="M1584.237,867.986l4.909,3.324l0.019,0.013c1.807,1.224,2.28,3.68,1.057,5.488
				c-1.224,1.807-3.681,2.28-5.488,1.056l-0.004-0.003l-4.943-3.355c-1.804-1.225-2.274-3.68-1.049-5.484
				c1.225-1.804,3.68-2.274,5.484-1.049L1584.237,867.986z"/>
			<path style="fill:#FFFFFF;" d="M1600.671,878.945l4.971,3.218l0.022,0.014c1.838,1.189,2.363,3.643,1.173,5.48
				s-3.643,2.363-5.48,1.173l-0.004-0.003l-5.011-3.252c-1.835-1.19-2.357-3.643-1.166-5.477s3.643-2.357,5.477-1.166
				L1600.671,878.945z"/>
			<path style="fill:#FFFFFF;" d="M1617.314,889.547l5.034,3.107l0.025,0.016c1.857,1.146,2.433,3.58,1.287,5.436
				c-1.146,1.857-3.571,2.438-5.428,1.292l-5.092-3.125c-1.863-1.143-2.446-3.58-1.303-5.443c1.143-1.863,3.58-2.446,5.443-1.303
				l0.008,0.005L1617.314,889.547z"/>
			<path style="fill:#FFFFFF;" d="M1634.193,899.757l5.11,2.973l0.028,0.016c1.874,1.09,2.51,3.494,1.419,5.368
				c-1.09,1.874-3.486,2.514-5.36,1.424l-5.173-2.993c-1.88-1.088-2.522-3.494-1.435-5.374c1.088-1.88,3.494-2.523,5.374-1.435
				l0.008,0.005L1634.193,899.757z"/>
			<path style="fill:#FFFFFF;" d="M1651.323,909.501l5.192,2.826l0.031,0.017c1.893,1.03,2.592,3.4,1.562,5.293
				c-1.03,1.893-3.392,2.597-5.284,1.566l-5.26-2.847c-1.899-1.028-2.605-3.4-1.578-5.299c1.028-1.899,3.4-2.605,5.299-1.578
				l0.008,0.005L1651.323,909.501z"/>
			<path style="fill:#FFFFFF;" d="M1668.734,918.738l5.284,2.663l0.038,0.019c1.913,0.964,2.681,3.296,1.717,5.208
				c-0.964,1.912-3.287,2.686-5.2,1.722l-5.365-2.688c-1.918-0.961-2.694-3.296-1.733-5.214c0.961-1.919,3.296-2.695,5.214-1.733
				l0.008,0.004L1668.734,918.738z"/>
			<path style="fill:#FFFFFF;" d="M1686.437,927.38l5.368,2.464l0.039,0.018c1.934,0.888,2.783,3.176,1.895,5.11
				c-0.888,1.935-3.167,2.787-5.102,1.899l-5.453-2.486c-1.94-0.885-2.796-3.175-1.911-5.115c0.885-1.94,3.175-2.796,5.115-1.911
				l0.009,0.004L1686.437,927.38z"/>
			<path style="fill:#FFFFFF;" d="M1704.436,935.357l5.456,2.259l0.041,0.017c1.954,0.809,2.883,3.049,2.073,5.004
				s-3.041,2.886-4.995,2.077l-5.543-2.28c-1.96-0.806-2.896-3.048-2.09-5.008c0.806-1.96,3.048-2.895,5.008-2.089l0.009,0.003
				L1704.436,935.357z"/>
			<path style="fill:#FFFFFF;" d="M1722.723,942.64l5.539,2.044l0.043,0.016c1.972,0.728,2.981,2.916,2.253,4.888
				c-0.728,1.972-2.908,2.984-4.88,2.256l-5.63-2.062c-1.977-0.724-2.993-2.915-2.269-4.892c0.724-1.977,2.915-2.993,4.892-2.269
				l0.009,0.003L1722.723,942.64z"/>
			<path style="fill:#FFFFFF;" d="M1741.279,949.192l5.616,1.817l0.045,0.015c1.987,0.643,3.077,2.775,2.434,4.762
				c-0.643,1.987-2.766,3.08-4.754,2.437l-5.71-1.832c-1.993-0.639-3.09-2.773-2.45-4.766c0.639-1.993,2.773-3.09,4.766-2.45
				l0.009,0.003L1741.279,949.192z"/>
			<path style="fill:#FFFFFF;" d="M1760.083,954.971l5.687,1.576l0.048,0.013c2,0.554,3.172,2.625,2.618,4.625
				c-0.554,2-2.616,3.175-4.616,2.62l-5.785-1.588c-2.005-0.55-3.185-2.622-2.634-4.627c0.55-2.005,2.622-3.185,4.627-2.634
				l0.009,0.002L1760.083,954.971z"/>
			<path style="fill:#FFFFFF;" d="M1779.114,959.927l5.749,1.319l0.051,0.012c2.01,0.461,3.266,2.464,2.804,4.474
				c-0.461,2.01-2.455,3.268-4.465,2.807l-5.853-1.328c-2.015-0.457-3.278-2.461-2.821-4.476c0.457-2.015,2.461-3.278,4.476-2.821
				l0.009,0.002L1779.114,959.927z"/>
			<path style="fill:#FFFFFF;" d="M1798.343,964.008l5.802,1.045l0.054,0.01c2.016,0.363,3.357,2.292,2.994,4.308
				c-0.363,2.016-2.283,3.358-4.3,2.995l-5.912-1.05c-2.021-0.359-3.369-2.288-3.01-4.31c0.359-2.021,2.288-3.369,4.31-3.01
				l0.009,0.002L1798.343,964.008z"/>
			<path style="fill:#FFFFFF;" d="M1817.737,967.155l5.845,0.753l0.057,0.007c2.019,0.26,3.445,2.107,3.185,4.126
				c-0.26,2.019-2.099,3.446-4.117,3.186l-5.96-0.753c-2.023-0.256-3.457-2.103-3.201-4.127s2.103-3.457,4.127-3.201l0.009,0.001
				L1817.737,967.155z"/>
			<path style="fill:#FFFFFF;" d="M1837.257,969.305l5.873,0.441l0.06,0.004c2.017,0.152,3.529,1.909,3.377,3.926
				c-0.151,2.017-1.9,3.529-3.917,3.378l-5.994-0.436c-2.021-0.147-3.54-1.904-3.393-3.925c0.147-2.021,1.904-3.54,3.925-3.393
				l0.009,0.001L1837.257,969.305z"/>
			<path style="fill:#FFFFFF;" d="M1856.854,970.394l5.891,0.11l0.064,0.001c2.009,0.038,3.607,1.696,3.569,3.705
				c-0.037,2.009-1.687,3.607-3.696,3.569l-6.018-0.098c-2.013-0.033-3.618-1.691-3.585-3.704c0.033-2.013,1.691-3.618,3.703-3.585
				l0.009,0L1856.854,970.394z"/>
			<path style="fill:#FFFFFF;" d="M1876.469,970.357l5.869-0.24l0.066-0.003c1.994-0.082,3.677,1.469,3.758,3.463
				c0.082,1.994-1.46,3.676-3.454,3.758l-6.001,0.26c-1.998,0.087-3.688-1.463-3.774-3.461c-0.087-1.998,1.463-3.688,3.461-3.774
				l0.009,0L1876.469,970.357z"/>
			<path style="fill:#FFFFFF;" d="M1896.027,969.13l5.849-0.609l0.069-0.007c1.972-0.205,3.736,1.227,3.942,3.199
				c0.205,1.972-1.218,3.736-3.19,3.941l-5.986,0.638c-1.975,0.21-3.747-1.22-3.957-3.196c-0.21-1.975,1.22-3.747,3.196-3.958
				l0.009-0.001L1896.027,969.13z"/>
			<path style="fill:#FFFFFF;" d="M1915.466,966.657l5.795-0.985l0.071-0.012c1.937-0.329,3.774,0.974,4.104,2.911
				c0.329,1.937-0.957,3.771-2.894,4.101l-5.932,1.038c-1.944,0.34-3.795-0.959-4.135-2.903c-0.34-1.944,0.96-3.795,2.903-4.135
				l0.017-0.003L1915.466,966.657z"/>
			<path style="fill:#FFFFFF;" d="M1934.697,962.932l5.714-1.373l0.072-0.017c1.871-0.45,3.753,0.703,4.203,2.574
				c0.448,1.863-0.693,3.736-2.549,4.197l-5.846,1.45c-1.88,0.466-3.782-0.68-4.248-2.559c-0.466-1.88,0.679-3.782,2.559-4.249
				l0.025-0.006L1934.697,962.932z"/>
			<path style="fill:#FFFFFF;" d="M1953.624,957.885l5.601-1.775l0.071-0.022c1.797-0.569,3.714,0.426,4.284,2.222
				c0.567,1.788-0.418,3.697-2.199,4.276l-5.729,1.861c-1.804,0.586-3.742-0.401-4.328-2.205c-0.586-1.804,0.401-3.742,2.205-4.328
				l0.024-0.008L1953.624,957.885z"/>
			<path style="fill:#FFFFFF;" d="M1972.097,951.46l5.43-2.221l0.077-0.031c1.707-0.698,3.657,0.12,4.355,1.827
				c0.695,1.699-0.114,3.639-1.805,4.346l-5.567,2.324c-1.713,0.715-3.682-0.094-4.397-1.807c-0.715-1.713,0.094-3.682,1.807-4.398
				l0.023-0.01L1972.097,951.46z"/>
			<path style="fill:#FFFFFF;" d="M1989.974,943.538l5.229-2.663l0.073-0.037c1.608-0.819,3.575-0.179,4.394,1.428
				c0.815,1.6,0.184,3.557-1.407,4.383l-5.355,2.777c-1.613,0.836-3.598,0.207-4.434-1.406c-0.836-1.613-0.207-3.598,1.406-4.434
				l0.021-0.011L1989.974,943.538z"/>
			<path style="fill:#FFFFFF;" d="M2007.131,934.154l4.984-3.095l0.07-0.044c1.499-0.931,3.468-0.47,4.399,1.029
				c0.926,1.492,0.473,3.451-1.009,4.386l-5.102,3.22c-1.502,0.948-3.489,0.499-4.437-1.003c-0.948-1.502-0.499-3.489,1.003-4.437
				l0.02-0.013L2007.131,934.154z"/>
			<path style="fill:#FFFFFF;" d="M2023.419,923.338l4.69-3.521l0.068-0.051c1.379-1.035,3.336-0.756,4.371,0.623
				c1.03,1.372,0.758,3.318-0.604,4.357l-4.8,3.658c-1.381,1.052-3.354,0.786-4.406-0.595c-1.052-1.381-0.786-3.354,0.595-4.406
				l0.018-0.014L2023.419,923.338z"/>
			<path style="fill:#FFFFFF;" d="M2038.66,911.109l4.338-3.941l0.066-0.06c1.246-1.132,3.175-1.04,4.307,0.206
				c1.127,1.24,1.04,3.158-0.19,4.292l-4.44,4.094c-1.247,1.15-3.19,1.071-4.34-0.176c-1.15-1.247-1.071-3.19,0.176-4.34
				l0.016-0.015L2038.66,911.109z"/>
			<path style="fill:#FFFFFF;" d="M2052.647,897.485l3.915-4.355l0.063-0.07c1.099-1.222,2.981-1.322,4.203-0.223
				c1.217,1.094,1.321,2.964,0.238,4.187l-4.008,4.524c-1.098,1.24-2.993,1.354-4.233,0.256c-1.24-1.098-1.354-2.993-0.256-4.233
				l0.015-0.016L2052.647,897.485z"/>
			<path style="fill:#FFFFFF;" d="M2065.133,882.498l3.41-4.751l0.059-0.081c0.935-1.303,2.749-1.601,4.052-0.666
				c1.296,0.931,1.597,2.733,0.678,4.035l-3.491,4.939c-0.933,1.32-2.758,1.633-4.078,0.701c-1.319-0.933-1.633-2.758-0.7-4.078
				l0.012-0.018L2065.133,882.498z"/>
			<path style="fill:#FFFFFF;" d="M2075.837,866.217l2.82-5.119l0.051-0.093c0.754-1.37,2.476-1.868,3.845-1.114
				c1.363,0.751,1.863,2.461,1.124,3.827l-2.883,5.325c-0.75,1.386-2.481,1.901-3.867,1.151c-1.385-0.75-1.901-2.482-1.151-3.867
				l0.01-0.018L2075.837,866.217z"/>
			<path style="fill:#FFFFFF;" d="M2084.468,848.768l2.142-5.433l0.04-0.102c0.559-1.417,2.16-2.113,3.578-1.555
				c1.41,0.556,2.106,2.146,1.562,3.559l-2.18,5.653c-0.553,1.433-2.162,2.146-3.595,1.594c-1.433-0.553-2.146-2.162-1.594-3.595
				l0.007-0.019L2084.468,848.768z"/>
			<path style="fill:#FFFFFF;" d="M2090.748,830.355c0.471-1.887,0.974-3.774,1.393-5.661c0.321-1.445,1.753-2.356,3.198-2.035
				c1.432,0.318,2.338,1.736,2.041,3.169c-0.414,1.991-0.917,3.943-1.395,5.907c-0.353,1.453-1.818,2.345-3.271,1.991
				c-1.453-0.353-2.344-1.818-1.991-3.271l0.004-0.016L2090.748,830.355z"/>
			<path style="fill:#FFFFFF;" d="M2094.31,811.298l0.459-5.808l0.01-0.122c0.112-1.41,1.344-2.462,2.754-2.35
				c1.399,0.111,2.446,1.328,2.353,2.724l-0.406,6.06c-0.096,1.431-1.334,2.513-2.765,2.417c-1.431-0.096-2.513-1.334-2.417-2.765
				c0-0.006,0.001-0.011,0.001-0.017L2094.31,811.298z"/>
			<path style="fill:#FFFFFF;" d="M2094.783,791.882l-0.436-5.824l-0.008-0.109c-0.101-1.345,0.908-2.516,2.252-2.617
				c1.334-0.1,2.499,0.894,2.615,2.223l0.525,6.037c0.118,1.363-0.891,2.565-2.254,2.683c-1.363,0.118-2.565-0.891-2.683-2.254
				c0-0.005-0.001-0.011-0.001-0.016L2094.783,791.882z"/>
			<path style="fill:#FFFFFF;" d="M2092.338,772.572l-1.275-5.709l-0.022-0.097c-0.28-1.252,0.509-2.494,1.76-2.773
				c1.242-0.277,2.475,0.498,2.767,1.733l1.39,5.888c0.299,1.268-0.486,2.539-1.754,2.838c-1.268,0.299-2.538-0.486-2.838-1.754
				c-0.001-0.005-0.002-0.01-0.004-0.015L2092.338,772.572z"/>
			<path style="fill:#FFFFFF;" d="M2087.148,753.783l-2.072-5.477l-0.033-0.088c-0.431-1.138,0.143-2.41,1.282-2.841
				c1.13-0.427,2.391,0.136,2.832,1.257l2.206,5.628c0.451,1.152-0.116,2.452-1.268,2.903c-1.152,0.452-2.452-0.116-2.903-1.268
				c-0.002-0.005-0.003-0.009-0.005-0.014L2087.148,753.783z"/>
			<path style="fill:#FFFFFF;" d="M2079.341,735.907l-2.839-5.123l-0.045-0.081c-0.558-1.007-0.194-2.276,0.813-2.834
				c1-0.554,2.257-0.199,2.822,0.791l2.993,5.25c0.58,1.018,0.226,2.313-0.792,2.893c-1.018,0.58-2.313,0.225-2.893-0.792
				c-0.002-0.004-0.004-0.008-0.007-0.012L2079.341,735.907z"/>
			<path style="fill:#FFFFFF;" d="M2068.999,719.369l-3.587-4.628l-0.058-0.075c-0.665-0.858-0.509-2.093,0.35-2.758
				c0.852-0.66,2.075-0.51,2.744,0.331l3.76,4.734c0.688,0.866,0.543,2.125-0.323,2.813c-0.866,0.688-2.125,0.543-2.813-0.322
				c-0.003-0.003-0.005-0.007-0.008-0.01L2068.999,719.369z"/>
			<path style="fill:#FFFFFF;" d="M2056.195,704.67l-4.303-3.959l-0.073-0.067c-0.751-0.691-0.799-1.859-0.108-2.61
				c0.685-0.745,1.842-0.797,2.593-0.123l4.497,4.039c0.774,0.695,0.838,1.886,0.143,2.66c-0.695,0.774-1.886,0.838-2.66,0.143
				c-0.003-0.003-0.006-0.006-0.009-0.008L2056.195,704.67z"/>
			<path style="fill:#FFFFFF;" d="M2041.068,692.409l-4.956-3.106l-0.085-0.053c-0.794-0.497-1.034-1.544-0.536-2.338
				c0.492-0.786,1.524-1.028,2.315-0.551l5.178,3.13c0.825,0.499,1.089,1.571,0.59,2.396c-0.498,0.825-1.571,1.089-2.396,0.591
				c-0.005-0.003-0.011-0.006-0.016-0.01L2041.068,692.409z"/>
			<path style="fill:#FFFFFF;" d="M2023.888,683.254l-5.484-2.04l-0.091-0.034c-0.795-0.296-1.2-1.18-0.905-1.976
				c0.293-0.787,1.164-1.192,1.953-0.913l5.702,2.017c0.825,0.292,1.258,1.198,0.966,2.023c-0.292,0.825-1.198,1.258-2.023,0.966
				c-0.005-0.002-0.011-0.004-0.016-0.006L2023.888,683.254z"/>
			<path style="fill:#FFFFFF;" d="M2005.18,677.835l-0.328-0.056c-0.776-0.13-1.3-0.864-1.17-1.64
				c0.129-0.773,0.863-1.294,1.635-1.171l0.338,0.055c0.777,0.127,1.304,0.86,1.177,1.638c-0.127,0.777-0.86,1.304-1.638,1.177
				L2005.18,677.835z"/>
		</g>
	</g>
</g>
</svg>
