<svg xmlns="http://www.w3.org/2000/svg" viewBox="0 0 500 500" xmlns:v="https://vecta.io/nano"><style><![CDATA[.B{fill:#ba68c8}.C{fill:#fff}.D{opacity:.2}.E{fill:#263238}.F{fill:#e0e0e0}.G{fill:#455a64}.H{fill:#ebebeb}.I{fill:#f5f5f5}.J{fill:#fafafa}.K{opacity:.15}.L{fill:#37474f}.M{opacity:.4}.N{fill:#c8856a}.O{fill:#f0f0f0}.P{fill:#af6152}]]></style><path d="M77.661 248.634c-95.177 54.951-95.175 144.044.005 198.995s249.496 54.951 344.674 0 95.175-144.044-.005-198.995-249.497-54.951-344.674 0zm82.575-124.186l1.71 1.019 35.085-20.257-1.709-1.02z" class="J"/><path d="M195.322 104.19l-33.376 19.265.001-34.95 33.376-19.254z" class="C"/><path d="M200.259 62.66L158.72 86.642v44.413l41.539-23.983V62.66zm-3.228 42.55l-35.085 20.257.001-36.962 35.085-20.257-.001 36.962z" class="H"/><path d="M197.031 105.21l-1.709-1.02.001-34.939 1.709-1.003z" class="F"/><path d="M200.259 62.66l-1.736-.994-41.539 23.982 1.736.994z" class="I"/><path d="M156.984 85.648l1.736.994v44.413l-1.736-.994z" class="F"/><path d="M194.02 103.145l-30.77 17.766v-8.883l7.693-17.765 4.792 4.441-1.724 7.446 10.625-22.722 9.384 10.835zm-18.575-17.46c-1.257.726-2.276 2.491-2.276 3.942s1.019 2.04 2.276 1.314 2.276-2.49 2.276-3.942-1.019-2.04-2.276-1.314z" class="O"/><path d="M215.263 92.666l1.711 1.019 35.085-20.257-1.709-1.02z" class="J"/><path d="M250.35 72.408l-33.376 19.266V56.722l33.377-19.253z" class="C"/><path d="M255.287 30.878l-41.54 23.982v44.413l41.539-23.983.001-44.412zm-3.228 42.55l-35.085 20.257.001-36.962 35.085-20.257-.001 36.962z" class="H"/><path d="M252.059 73.428l-1.709-1.02.001-34.939 1.708-1.003z" class="F"/><path d="M255.287 30.878l-1.737-.994-41.539 23.982 1.736.994z" class="I"/><path d="M212.011 53.866l1.736.994v44.413l-1.736-.994z" class="F"/><path d="M249.047 71.363l-30.77 17.766v-8.883l7.694-17.765 4.792 4.441-1.724 7.446 10.625-22.722 9.383 10.835zm-18.574-17.46c-1.257.726-2.276 2.49-2.275 3.942s1.019 2.04 2.276 1.314 2.276-2.49 2.276-3.942-1.02-2.04-2.277-1.314z" class="O"/><path d="M479.454 120.926c0-25.688-16.918-56.281-37.788-68.33-11.048-6.378-20.986-6.279-27.896-.964-8.59 3.566-14.091 13.444-14.091 28.085l.001 137.578 75.575 43.633 4.199-2.424V120.926z" fill="#e6e6e6"/><path d="M475.255 260.927V123.35c0-25.688-16.918-56.28-37.788-68.329s-37.788-.992-37.788 24.696l.001 137.578 75.575 43.632z" class="I"/><path d="M471.123 123.351v130.415l-67.309-38.864V79.721c0-12.837 4.517-21.696 12.114-24.486 1.685-.63 3.535-.951 5.509-.951 4.3 0 8.993 1.447 13.964 4.32 19.701 11.37 35.722 40.415 35.722 64.747z" class="F"/><path d="M403.813 214.902l4.269-2.46 63.041 36.404v4.92z" class="H"/><path d="M471.123 123.351v125.495l-63.04-36.404-.01-135.191c0-10.202 2.863-17.892 7.855-22.016 1.685-.63 3.535-.951 5.509-.951 4.3 0 8.993 1.447 13.964 4.32 19.701 11.37 35.722 40.415 35.722 64.747z" class="C"/><path d="M439.534 235.526l-4.133-2.385V57.113h4.133z" class="I"/><path d="M443.67 64.579v168.566l-4.134 2.377V61.282l4.134 3.297z" class="F"/><path d="M403.813 185.742l31.589 18.238-.001 4.849-31.588-18.233z" class="I"/><path d="M408.082 183.282l-4.269 2.46 31.589 18.238v-4.848z" class="H"/><path d="M439.534 206.363l31.588 18.237-.001 4.849-31.587-18.233z" class="I"/><path d="M443.802 203.902l-4.268 2.461 31.588 18.237v-4.848z" class="H"/><path d="M403.813 88.925l31.589 18.237-.001 4.849-31.588-18.233z" class="I"/><path d="M408.082 86.465l-4.269 2.46 31.589 18.237v-4.848z" class="H"/><path d="M439.534 109.545l31.588 18.238-.001 4.848-31.587-18.233z" class="I"/><path d="M443.802 107.085l-4.268 2.46 31.588 18.238v-4.848z" class="H"/><g class="F"><path d="M92.362 442.766c-.338 1.73-1.066 3.44-2.184 5.086-1.762 2.659-4.506 5.149-8.209 7.291-14.203 8.199-37.238 8.199-51.44 0-3.704-2.142-6.447-4.632-8.209-7.291-1.108-1.646-1.836-3.356-2.174-5.086h-.011c-1.266-6.162 2.206-12.588 10.394-17.316 14.203-8.209 37.238-8.209 51.44 0 8.187 4.728 11.659 11.154 10.393 17.316z"/><path d="M113.044 456.365l-86.995-49.718c-1.267-.731-1.267-1.917 0-2.648l277.024-159.934c1.267-.731 3.321-.731 4.587 0l86.994 49.718c1.267.732 1.267 1.917 0 2.649L117.631 456.365c-1.267.731-3.321.731-4.587 0zm94.759 8.702l-14.192-8.122 66.716-38.84c-2.143-3.581-3.006-7.504-2.45-11.387.891-6.23 5.356-11.975 12.568-16.174 7.627-4.44 17.695-6.885 28.347-6.885 10.467 0 20.375 2.373 27.9 6.682 8.283 4.741 12.858 11.309 12.884 18.49s-4.501 13.784-12.749 18.586c-7.62 4.436-17.681 6.879-28.328 6.879-4.566 0-9.032-.447-13.301-1.333l-12.42 7.232-9.571-2.127-3.279 1.908-.328 7.889-6.155 3.585-8.86.809-3.775 2.125.547 4.102-11.167 6.502-22.387.079zm105.934-62.837c-1.352-.773-3.306-1.217-5.365-1.217-2.096 0-4.085.458-5.456 1.256-.625.363-.903.669-1.017.826.115.157.394.46 1.022.82 1.352.773 3.306 1.217 5.364 1.217 2.098 0 4.086-.458 5.457-1.256.625-.365.903-.669 1.016-.828-.114-.155-.393-.458-1.021-.818z"/><ellipse cx="414.732" cy="374.946" rx="57.682" ry="33.303"/></g><use href="#B" class="B"/><use href="#B" opacity=".35" class="C"/><use href="#C" class="B"/><use href="#C" class="K"/><g class="B"><path d="M308.979 251.784L44.785 404.308l58.508 33.787 264.192-152.524z"/><use href="#D"/></g><use href="#D" opacity=".35" class="C"/><path d="M344.529 63.907c-2.002-.782-4.401-.564-6.862.852L85.38 210.363c-2.675 1.545-4.921 4.241-6.438 7.386l-8.144-3.452c1.791-3.906 4.913-5.333 7.586-6.891L330.656 61.803c2.576-1.474 5.077-1.643 7.127-.73l-.002-.013 6.748 2.847z" class="G"/><path d="M104.805 442.608l-.002-.013c-2.5-1.027-4.359-3.622-4.9-7.401l-29.848-209.51c-.615-4.295-.815-8.147.745-11.389l8.144 3.452a27.6 27.6 0 0 0-.608 1.38 16.06 16.06 0 0 0-.395 1.133.78.78 0 0 0-.053.175c-.155.432-.277.875-.384 1.318-.121.457-.223.926-.298 1.381-.074.348-.117.696-.145 1.042-.203 1.497-.203 3.012.005 4.465l30.001 210.572c.547 3.818 2.439 6.438 4.969 7.451l-7.231-4.056z" class="E"/><path d="M337.663 64.772L83.13 211.459c-5.581 3.222-7.323 8.439-6.339 15.312l30.27 212.452c.984 6.874 6.307 9.834 11.888 6.612l252.28-145.592c5.581-3.223 9.308-11.407 8.324-18.281L349.551 71.383c-.984-6.874-6.306-9.834-11.888-6.611z" class="L"/><path d="M355.74 299.274l-225.186 129.95c-2.892 1.67-5.65.136-6.16-3.426L94.689 217.4c-.51-3.562 1.421-7.804 4.313-9.473l225.186-129.95c2.892-1.67 5.651-.136 6.161 3.426L360.054 289.8c.51 3.562-1.421 7.804-4.314 9.474z" class="E"/><path d="M94.689 217.4l29.705 208.397.078.411 225.185-129.95c2.892-1.67 4.824-5.911 4.314-9.473L324.188 77.977 99.002 207.927c-2.892 1.67-4.823 5.911-4.313 9.473z" class="J"/><path d="M106.175 346.441c.257 1.792-.715 3.925-2.17 4.765s-2.842.068-3.099-1.723.715-3.925 2.17-4.765 2.842-.069 3.099 1.723zm-9.849-48.797h0c-1.131.653-1.887 2.311-1.687 3.705l4.922 34.313c.2 1.393 1.278 1.993 2.41 1.34h0c1.131-.653 1.886-2.312 1.687-3.705l-4.923-34.313c-.199-1.394-1.278-1.993-2.409-1.34z" class="E"/><path d="M324.188 77.977L99.002 207.927c-2.892 1.67-4.824 5.911-4.314 9.473l.986 6.914 230.42-132.971-1.906-13.366z" class="B"/><path d="M306.203 97.83h0c-.852.492-1.665.04-1.816-1.01l-.084-.588c-.15-1.05.419-2.3 1.271-2.792h0c.853-.492 1.666-.04 1.816 1.01l.084.588c.151 1.049-.418 2.299-1.271 2.792zm6.194-3.577h0c-.853.492-1.666.04-1.816-1.01l-.084-.588c-.15-1.05.419-2.3 1.271-2.792h0c.853-.492 1.665-.04 1.816 1.01l.084.588c.151 1.05-.418 2.3-1.271 2.792zm6.195-3.576h0c-.853.492-1.665.04-1.816-1.01l-.084-.588c-.15-1.05.419-2.3 1.272-2.792h0c.853-.492 1.665-.04 1.816 1.01l.084.588c.149 1.05-.42 2.3-1.272 2.792z" class="C"/><g class="D"><path d="M195.309 195.187l104.294-60.188c.495-.286.957-.089 1.032.438l14.152 98.795c.076.527-.264 1.187-.759 1.472l-104.294 60.188c-.495.286-.957.089-1.032-.438l-14.152-98.795c-.075-.528.264-1.187.759-1.472z"/></g><path d="M306.788 138.145c-.315-.102-.711-.052-1.112.181L202.74 197.729c-.869.504-1.469 1.668-1.336 2.599l13.961 97.457c.064.445.283.762.597.912l-3.4-1.442c-.321-.143-.556-.459-.621-.918L197.98 198.88c-.133-.931.467-2.095 1.343-2.599l102.926-59.41c.445-.256.876-.287 1.205-.144l3.334 1.418z" class="B"/><g class="D C"><path d="M306.788 138.145l-3.334-1.417c-.329-.143-.759-.111-1.205.144l-102.926 59.41c-.437.251-.806.667-1.049 1.137l3.421 1.452c.242-.471.609-.889 1.044-1.141l102.935-59.403c.402-.235.798-.285 1.114-.182z"/></g><use href="#E" class="B"/><g opacity=".7" class="C"><use href="#E"/></g><use href="#F" class="B"/><use href="#F" class="K"/><path d="M306.5 138.77c.151-.006.203.324.208.362l13.961 97.458c.099.691-.383 1.625-1.03 1.999l-102.931 59.404c-.184.107-.307.122-.351.124-.151.006-.203-.324-.208-.362l-13.961-97.458c-.099-.691.383-1.625 1.03-1.999l102.931-59.404c.184-.106.307-.122.351-.124m-.096-.675c-.229.01-.478.084-.732.231L202.741 197.73c-.873.504-1.473 1.668-1.339 2.599l13.961 97.458c.095.661.533 1.027 1.091 1.004.229-.009.478-.084.731-.23l102.931-59.404c.873-.504 1.473-1.668 1.339-2.599L307.494 139.1c-.094-.661-.532-1.027-1.09-1.005h0z" class="B"/><path d="M234.92 191.226c.635-.366 1.209-.583 1.722-.653s.952-.038 1.319.09.66.335.881.619a2.23 2.23 0 0 1 .432.916c.029.135.01.268-.059.403s-.154.231-.258.291l-.994.574c-.161.093-.287.126-.379.095a.63.63 0 0 1-.264-.179c-.184-.209-.436-.339-.755-.388s-.764.09-1.332.418c-.246.142-.477.311-.689.503a3.37 3.37 0 0 0-.542.615c-.148.219-.258.442-.327.672s-.089.455-.057.677c.038.269.114.461.229.578s.285.175.516.175.529-.05.895-.147l1.359-.388c.59-.175 1.105-.281 1.547-.314s.811.017 1.113.152a1.61 1.61 0 0 1 .725.652c.181.299.307.688.375 1.166.074.525.05 1.067-.075 1.625s-.341 1.099-.645 1.622a7.3 7.3 0 0 1-1.184 1.507c-.484.482-1.044.906-1.678 1.272-.531.306-1.049.521-1.554.642s-.967.142-1.384.06-.768-.267-1.056-.555-.482-.682-.584-1.177a.59.59 0 0 1 .058-.403c.068-.134.154-.23.258-.29l.995-.574c.16-.093.289-.13.385-.108s.18.084.258.19a1.94 1.94 0 0 0 .306.316c.117.098.264.157.441.181s.393.004.645-.06.559-.199.919-.407c.284-.164.554-.349.813-.554a3.86 3.86 0 0 0 .658-.665 2.97 2.97 0 0 0 .418-.734c.097-.251.126-.511.088-.78-.037-.256-.133-.428-.289-.514s-.377-.111-.663-.072-.636.121-1.05.247l-1.436.392c-.493.134-.931.207-1.313.219s-.71-.054-.982-.199-.491-.376-.66-.69-.289-.732-.364-1.257a4.41 4.41 0 0 1 .076-1.616c.126-.551.332-1.081.618-1.587a7 7 0 0 1 1.08-1.428 6.54 6.54 0 0 1 1.444-1.13zm7.956 8.853c-.104.06-.2.066-.289.016s-.143-.139-.161-.268l-1.618-11.3c-.018-.129.004-.261.066-.398s.146-.235.249-.295l1.151-.664c.104-.06.2-.065.29-.016s.143.139.16.268l1.618 11.3a.71.71 0 0 1-.065.398c-.063.138-.146.235-.25.295l-1.151.664zm2.291-9.674a7.81 7.81 0 0 1 .038-2.096c.106-.686.311-1.341.611-1.963a7.04 7.04 0 0 1 1.189-1.73c.494-.53 1.09-.998 1.791-1.403.823-.476 1.521-.737 2.095-.782s1.043.022 1.414.206.646.435.83.752.304.604.361.861c.029.134.011.269-.058.402s-.154.231-.258.292l-1.15.664c-.105.061-.192.076-.263.047a.37.37 0 0 1-.164-.123c-.024-.036-.089-.11-.192-.22s-.255-.201-.454-.268-.45-.088-.753-.058-.669.168-1.096.414c-.71.41-1.243.974-1.603 1.692a4.09 4.09 0 0 0-.41 2.294l.176 1.441.232 1.41c.167.951.495 1.522.984 1.713s1.087.083 1.798-.328c.35-.202.666-.434.945-.697s.513-.561.696-.894a3.53 3.53 0 0 0 .378-1.118c.068-.411.066-.869-.005-1.371l-.02-.139-1.732 1c-.104.06-.2.065-.29.015s-.143-.139-.161-.267l-.178-1.242c-.018-.128.004-.261.066-.398s.146-.236.25-.296l3.268-1.886c.104-.06.201-.065.289-.015s.144.138.162.266l.275 1.924c.101.7.103 1.396.007 2.088s-.293 1.356-.592 1.99-.701 1.225-1.206 1.776-1.118 1.034-1.839 1.449-1.361.659-1.925.733-1.051.001-1.461-.217-.749-.567-1.02-1.05-.463-1.067-.582-1.756l-.126-.722-.124-.818-.111-.826-.082-.746zm17.965-2.021c-.161.093-.292.112-.392.056s-.173-.102-.219-.139l-5.02-4.981 1.032 7.207a.71.71 0 0 1-.066.398c-.063.138-.145.235-.25.295l-1.15.665c-.104.06-.201.066-.29.016s-.143-.139-.161-.268l-1.618-11.3c-.019-.129.004-.261.066-.398a.64.64 0 0 1 .249-.296l.995-.574c.161-.093.292-.111.393-.056a1.52 1.52 0 0 1 .219.14l5.02 4.98-1.032-7.207c-.018-.129.003-.261.066-.398s.145-.235.25-.295l1.15-.665c.104-.06.201-.065.29-.016s.143.139.161.268l1.617 11.3a.7.7 0 0 1-.065.398c-.063.138-.146.235-.25.295l-.995.575zm7.215-4.165c-.104.06-.2.066-.29.016s-.143-.139-.16-.268l-1.618-11.3a.71.71 0 0 1 .065-.398c.063-.137.146-.235.25-.295l1.15-.665c.104-.06.201-.065.29-.016s.143.139.161.268l1.617 11.3a.7.7 0 0 1-.065.398c-.063.138-.145.235-.249.295l-1.151.665zm10.198-5.888c-.16.093-.291.112-.392.056a1.8 1.8 0 0 1-.22-.139l-5.019-4.981 1.032 7.207a.71.71 0 0 1-.065.398c-.063.138-.147.235-.25.295l-1.151.665c-.104.06-.2.066-.289.016s-.143-.139-.161-.268l-1.618-11.3c-.018-.129.004-.261.066-.398s.146-.235.249-.295l.994-.574c.161-.093.292-.111.393-.056s.174.102.22.14l5.019 4.98-1.031-7.207a.71.71 0 0 1 .065-.398c.063-.137.146-.235.25-.295l1.151-.664c.103-.06.2-.065.29-.016s.142.139.16.268l1.618 11.3a.71.71 0 0 1-.065.398c-.063.138-.146.235-.25.295l-.996.573z" class="G"/><path d="M244.082 253.094c.497-.286.895-.362 1.193-.228s.484.453.556.956a2.38 2.38 0 0 1-.068 1.029c-.097.329-.266.628-.506.899l1.081 1.338c.016.022.025.046.029.069.006.045-.002.09-.022.137s-.05.081-.085.101l-.507.293c-.079.046-.142.057-.187.031s-.076-.052-.098-.082l-1.025-1.258-.792.457.245 1.709a.3.3 0 0 1-.027.166c-.027.059-.062.1-.105.125l-.482.279c-.044.024-.085.027-.121.005s-.061-.058-.068-.11l-.678-4.738c-.008-.055.001-.11.027-.168s.061-.099.105-.123l1.535-.887zm-.561 2.826l.863-.499c.227-.131.399-.283.521-.459s.163-.4.123-.676-.133-.418-.281-.433-.336.044-.563.175l-.863.498.2 1.394zm3.061-.774c-.04-.275-.043-.553-.01-.832a3.04 3.04 0 0 1 .202-.801 2.73 2.73 0 0 1 .4-.688 2.05 2.05 0 0 1 .582-.503c.223-.128.431-.194.627-.198s.368.041.519.135.278.238.38.426a1.91 1.91 0 0 1 .207.654l.048.33c.008.055-.002.109-.028.167a.26.26 0 0 1-.104.124l-1.99 1.148c.017.113.05.201.1.264s.111.108.184.129a.5.5 0 0 0 .238.006.95.95 0 0 0 .263-.105c.127-.073.228-.148.303-.226s.135-.157.18-.234a1.04 1.04 0 0 1 .096-.144c.025-.03.063-.059.109-.087l.478-.275c.043-.024.084-.027.124-.009s.062.058.064.114c.006.07-.013.176-.055.317s-.112.296-.214.466a3.14 3.14 0 0 1-.388.509 2.43 2.43 0 0 1-.571.449c-.223.128-.431.196-.625.206a.83.83 0 0 1-.52-.141c-.153-.103-.28-.256-.382-.459a2.41 2.41 0 0 1-.217-.742zm1.301-1.943c-.114.066-.21.145-.285.232s-.137.182-.182.279a1.2 1.2 0 0 0-.098.295 1.29 1.29 0 0 0-.023.264l1.347-.777c-.018-.068-.045-.137-.078-.205a.38.38 0 0 0-.14-.158c-.059-.038-.132-.053-.219-.048s-.195.044-.322.118zm4.074-.28c-.008-.053-.028-.09-.061-.108s-.086-.021-.16-.011-.17.035-.289.071l-.457.138c-.183.052-.336.074-.462.068s-.229-.039-.313-.098a.56.56 0 0 1-.193-.249c-.046-.108-.079-.237-.101-.384a1.37 1.37 0 0 1 .022-.481 1.91 1.91 0 0 1 .187-.517c.089-.17.205-.334.346-.488s.31-.29.504-.402.372-.186.532-.221a1.01 1.01 0 0 1 .421-.012.53.53 0 0 1 .293.16.59.59 0 0 1 .151.289c.013.052.004.107-.024.166s-.065.1-.108.125l-.459.265c-.059.034-.106.046-.14.037l-.111-.034c-.041-.015-.093-.018-.156-.01s-.154.045-.273.114a1.25 1.25 0 0 0-.307.247c-.085.098-.119.203-.103.314.008.055.023.094.051.117s.073.034.14.027a1.81 1.81 0 0 0 .27-.056l.442-.134c.366-.109.637-.108.81.006s.281.318.323.611c.021.146.012.307-.028.48a1.97 1.97 0 0 1-.205.523 2.45 2.45 0 0 1-.379.505c-.155.161-.337.302-.543.421a1.9 1.9 0 0 1-.57.23c-.17.033-.316.03-.442-.004s-.226-.094-.303-.182a.61.61 0 0 1-.146-.305c-.012-.051-.004-.105.024-.164a.28.28 0 0 1 .107-.127l.459-.264c.06-.035.106-.044.142-.027l.117.061a.35.35 0 0 0 .175.025c.073-.005.176-.047.312-.125.059-.033.12-.074.183-.121a1.29 1.29 0 0 0 .169-.148c.05-.053.091-.107.121-.165s.04-.108.032-.163zm1.141-1.539c-.04-.275-.043-.553-.01-.832a3.04 3.04 0 0 1 .202-.801 2.7 2.7 0 0 1 .4-.688 2.05 2.05 0 0 1 .582-.503c.223-.128.431-.194.626-.198s.369.041.52.135.278.238.38.426a1.91 1.91 0 0 1 .207.654l.048.33c.008.055-.002.109-.028.167s-.062.099-.105.124l-1.99 1.148c.017.113.05.201.1.264s.111.108.184.129a.5.5 0 0 0 .238.006.95.95 0 0 0 .263-.105 1.41 1.41 0 0 0 .303-.225c.075-.078.135-.157.18-.234a1.04 1.04 0 0 1 .096-.144c.025-.03.063-.059.109-.087l.477-.275c.043-.024.084-.027.124-.009s.061.058.065.114c.006.07-.013.176-.055.317s-.112.296-.214.466a3.14 3.14 0 0 1-.388.509 2.45 2.45 0 0 1-.571.449c-.223.128-.431.196-.625.206a.83.83 0 0 1-.52-.141c-.153-.103-.28-.256-.382-.459s-.174-.45-.216-.743zm1.301-1.943a1.09 1.09 0 0 0-.285.232c-.076.09-.137.182-.183.279a1.24 1.24 0 0 0-.097.295c-.019.099-.026.186-.023.264l1.346-.777a1.14 1.14 0 0 0-.077-.205.38.38 0 0 0-.14-.158c-.059-.038-.132-.053-.219-.048s-.196.045-.322.118zm3.389-.193c.021.15.072.254.151.305s.205.028.385-.075l.363-.21c.044-.025.084-.025.122-.006s.06.059.067.111l.069.484a.29.29 0 0 1-.028.166c-.026.059-.061.1-.104.125l-.44.255c-.373.216-.676.27-.908.163s-.382-.391-.447-.85l-.227-1.578-.393.228c-.044.025-.084.027-.122.007s-.06-.058-.067-.112l-.069-.484c-.007-.053.002-.108.028-.166s.061-.1.105-.125l.393-.227-.171-1.193c-.008-.055.002-.11.027-.168s.061-.098.105-.123l.452-.262c.044-.025.084-.027.122-.008s.06.06.067.113l.171 1.194.768-.444c.043-.024.084-.025.122-.006s.06.059.067.111l.069.484c.008.055-.002.11-.027.168s-.063.099-.105.123l-.769.444.224 1.556zm4.204-6.494c.48-.277.873-.353 1.18-.229s.497.457.574.994.003 1.027-.223 1.463-.578.795-1.059 1.072l-.953.55.234 1.636c.008.054-.002.11-.027.166s-.061.1-.104.125l-.483.278c-.043.025-.084.027-.121.006s-.061-.057-.068-.111l-.678-4.738c-.008-.053.001-.109.027-.167s.062-.099.104-.124l1.597-.921zm-.611 2.935l.923-.533c.226-.13.399-.29.519-.478s.159-.419.12-.693-.134-.424-.284-.451-.339.025-.564.155l-.923.533.209 1.467zm2.983-1.857c.001-.113.022-.244.063-.395s.107-.309.197-.471a2.37 2.37 0 0 1 .352-.477 2.18 2.18 0 0 1 .519-.406 1.7 1.7 0 0 1 .561-.218c.172-.027.326-.012.461.048s.249.167.341.324.154.359.19.608l.309 2.157c.008.054-.002.109-.028.166s-.06.1-.104.125l-.452.262c-.044.025-.085.027-.122.006s-.06-.058-.067-.111l-.034-.242c-.064.191-.167.381-.309.57s-.335.357-.578.497c-.17.099-.327.159-.47.181s-.268.007-.374-.043-.193-.129-.264-.241-.116-.249-.14-.415a1.49 1.49 0 0 1 .179-.961 2.85 2.85 0 0 1 .724-.839l.942-.767c-.028-.2-.103-.311-.222-.332s-.258.014-.417.105c-.1.057-.175.12-.226.186a1.41 1.41 0 0 0-.141.232.67.67 0 0 1-.086.137c-.028.032-.061.059-.096.08l-.554.319c-.04.022-.076.026-.108.014s-.048-.046-.046-.099zm1.291 1.492a1.46 1.46 0 0 0 .35-.277 1.47 1.47 0 0 0 .239-.34 1.36 1.36 0 0 0 .123-.356 1.04 1.04 0 0 0 .01-.332l-.01-.074-.785.645c-.158.127-.268.246-.33.352a.5.5 0 0 0-.069.33c.015.103.068.154.161.154s.196-.035.311-.102zm4.05-2.648c-.008-.053-.027-.089-.06-.108s-.087-.021-.16-.011-.17.036-.289.072l-.458.138c-.182.051-.335.074-.461.068a.6.6 0 0 1-.314-.097c-.084-.057-.148-.142-.194-.249a1.56 1.56 0 0 1-.1-.383c-.021-.147-.014-.307.021-.482a1.94 1.94 0 0 1 .188-.516 2.31 2.31 0 0 1 .346-.489 2.08 2.08 0 0 1 .503-.402c.195-.112.372-.186.532-.221a1.01 1.01 0 0 1 .421-.012.55.55 0 0 1 .294.16.61.61 0 0 1 .151.289c.012.052.004.107-.025.166a.28.28 0 0 1-.107.125l-.459.265c-.06.034-.105.046-.14.037l-.11-.034c-.041-.015-.093-.017-.156-.009s-.154.045-.274.114a1.21 1.21 0 0 0-.306.248c-.085.096-.119.202-.104.314.008.054.025.094.052.117s.073.034.14.026a1.71 1.71 0 0 0 .27-.055l.442-.134c.365-.11.636-.108.809.006s.282.317.324.61c.021.147.011.308-.028.481s-.108.348-.205.524-.225.344-.38.504-.336.303-.543.422-.4.197-.569.229a.99.99 0 0 1-.442-.003c-.125-.034-.227-.094-.304-.181a.63.63 0 0 1-.147-.305c-.012-.052-.003-.106.024-.166a.27.27 0 0 1 .108-.125l.458-.266c.061-.034.107-.043.142-.026l.118.06a.35.35 0 0 0 .175.026c.072-.005.176-.046.311-.124.06-.035.121-.075.183-.122s.119-.095.169-.148.091-.108.122-.165.04-.113.032-.168zm3.098-1.788c-.008-.053-.028-.089-.06-.108s-.086-.021-.16-.011a2.03 2.03 0 0 0-.289.072l-.457.138c-.183.051-.336.074-.462.068a.61.61 0 0 1-.313-.097c-.084-.059-.148-.142-.193-.25a1.64 1.64 0 0 1-.101-.383 1.4 1.4 0 0 1 .022-.482 1.94 1.94 0 0 1 .188-.516 2.35 2.35 0 0 1 .346-.489c.142-.156.31-.29.504-.402s.372-.186.532-.221.301-.039.421-.012a.55.55 0 0 1 .293.16.61.61 0 0 1 .151.289c.013.052.004.107-.024.166s-.064.1-.107.125l-.46.265c-.059.034-.105.046-.139.037l-.111-.034c-.041-.015-.093-.017-.156-.009s-.154.045-.273.114a1.25 1.25 0 0 0-.307.248.38.38 0 0 0-.103.314c.008.054.024.094.052.117s.073.034.14.026a1.89 1.89 0 0 0 .27-.055l.442-.134c.366-.11.637-.108.81.006s.281.317.323.61c.021.147.011.308-.028.481s-.108.348-.205.523-.225.344-.379.504a2.46 2.46 0 0 1-.543.421 1.9 1.9 0 0 1-.57.23.99.99 0 0 1-.442-.003.61.61 0 0 1-.449-.486c-.012-.051-.004-.106.024-.165s.064-.101.107-.126l.459-.265c.06-.035.106-.044.142-.027l.117.06c.044.021.103.031.175.026s.176-.046.311-.125a1.91 1.91 0 0 0 .182-.121 1.29 1.29 0 0 0 .17-.148c.05-.054.091-.108.121-.166a.26.26 0 0 0 .029-.165zm4.297-2.964l.234-2.407a.86.86 0 0 1 .034-.147c.017-.052.053-.095.108-.127l.452-.261c.043-.025.084-.026.122-.006s.06.059.067.111c.003.02.003.038.001.055l-.415 3.901a.74.74 0 0 1-.036.155c-.018.054-.055.096-.11.128l-.452.261c-.057.032-.098.035-.125.007a.48.48 0 0 1-.074-.091l-.858-1.625-.297 2.292c-.01.053-.023.106-.039.157s-.052.095-.108.127l-.452.261c-.056.032-.099.036-.128.009a.31.31 0 0 1-.071-.093l-1.384-2.862c-.006-.013-.011-.028-.014-.048-.007-.053.002-.109.029-.166s.06-.1.104-.125l.452-.261c.055-.032.097-.034.125-.007a.34.34 0 0 1 .067.089l.836 1.788.271-2.428c.003-.044.016-.095.04-.151s.058-.098.102-.123l.452-.261c.044-.025.083-.026.12-.004s.059.05.072.086l.875 1.766zm2.855-4.19c.218-.126.421-.198.609-.217a.94.94 0 0 1 .509.079c.149.073.277.185.383.335s.181.336.225.554a1.36 1.36 0 0 1 .03.165l.029.205.028.201.017.169c.018.233.002.47-.047.71a2.77 2.77 0 0 1-.233.687 2.8 2.8 0 0 1-.41.606c-.165.185-.357.341-.575.467s-.422.198-.61.217a.96.96 0 0 1-.507-.076c-.15-.07-.277-.181-.38-.333a1.58 1.58 0 0 1-.228-.552 2.32 2.32 0 0 1-.033-.161l-.031-.2-.027-.206-.015-.174a2.47 2.47 0 0 1 .044-.708c.05-.24.128-.471.236-.693s.244-.423.409-.608.358-.341.577-.467zm.957 1.234c-.034-.145-.08-.254-.141-.328s-.128-.121-.204-.141a.45.45 0 0 0-.238.007c-.083.023-.165.06-.248.107a1.4 1.4 0 0 0-.239.174 1.05 1.05 0 0 0-.204.248c-.06.099-.103.21-.135.337s-.042.27-.032.428c.001.042.005.092.012.152l.023.186.029.186.03.137c.033.146.08.254.14.327a.4.4 0 0 0 .204.142c.075.02.155.017.237-.007a1.14 1.14 0 0 0 .249-.108c.083-.048.163-.105.239-.174s.145-.15.203-.248a1.23 1.23 0 0 0 .136-.337c.031-.127.043-.268.032-.427a1.51 1.51 0 0 0-.014-.146l-.027-.188-.026-.184a1.22 1.22 0 0 0-.026-.143zm2.806-2.375c-.237.137-.401.302-.487.492s-.109.433-.066.726l.272 1.907a.29.29 0 0 1-.027.166c-.026.059-.061.1-.104.125l-.453.261c-.044.025-.084.027-.121.006s-.061-.058-.067-.111l-.49-3.419c-.007-.053.002-.109.028-.166s.061-.1.104-.125l.452-.261c.044-.025.084-.026.122-.006s.06.059.067.111l.024.17a2.38 2.38 0 0 1 .291-.463c.108-.131.258-.253.448-.362l.269-.155c.044-.025.084-.026.122-.006s.059.059.066.111l.069.484c.008.055-.001.11-.027.167s-.061.099-.105.124l-.387.224zm2.05-2.215c.124-.071.235-.12.337-.147a.98.98 0 0 1 .272-.038.67.67 0 0 1 .208.034.63.63 0 0 1 .145.071l-.224-1.563c-.008-.054.002-.11.027-.168s.061-.098.105-.123l.452-.261c.044-.025.084-.027.122-.008s.06.06.067.113l.688 4.812a.29.29 0 0 1-.027.166c-.026.059-.061.1-.104.125l-.453.261c-.044.025-.084.027-.121.006s-.061-.058-.067-.111l-.024-.169c-.026.063-.061.134-.105.216a1.92 1.92 0 0 1-.167.252 2.02 2.02 0 0 1-.24.256 1.85 1.85 0 0 1-.324.236c-.198.114-.385.17-.56.167s-.329-.05-.465-.145-.252-.225-.348-.395a1.82 1.82 0 0 1-.202-.585l-.044-.253-.029-.26c-.025-.229-.02-.467.017-.713a3.08 3.08 0 0 1 .189-.705c.091-.225.21-.431.357-.619a1.81 1.81 0 0 1 .518-.452zm-.3 2.095c.008.143.027.28.059.41.07.304.183.487.337.548s.33.036.524-.077a1.17 1.17 0 0 0 .461-.497c.112-.217.16-.464.143-.74a2.81 2.81 0 0 0-.028-.286l-.052-.273c-.057-.242-.162-.399-.315-.468s-.328-.049-.522.063-.35.277-.465.495-.163.493-.142.825zm-34.444 29.475c.266-.153.506-.245.722-.274s.399-.016.553.039a.8.8 0 0 1 .37.259.91.91 0 0 1 .18.384c.013.058.004.113-.024.17s-.063.096-.107.121l-.417.241c-.068.039-.121.052-.159.04s-.075-.038-.11-.074c-.077-.09-.183-.144-.316-.164s-.321.039-.559.176a1.71 1.71 0 0 0-.289.211c-.089.08-.166.167-.227.258s-.108.186-.137.281-.038.191-.024.284c.016.112.048.193.096.243s.121.072.217.073.223-.021.375-.062l.57-.162c.248-.074.464-.119.648-.133s.341.008.467.064a.67.67 0 0 1 .304.274 1.28 1.28 0 0 1 .157.488c.031.221.021.447-.031.682a2.39 2.39 0 0 1-.271.68 3.02 3.02 0 0 1-.496.631c-.204.203-.439.381-.704.535a2.46 2.46 0 0 1-.651.268 1.33 1.33 0 0 1-.58.026.83.83 0 0 1-.442-.233c-.121-.12-.202-.285-.245-.493-.013-.057-.005-.112.024-.169a.28.28 0 0 1 .108-.123l.417-.24c.067-.039.12-.054.161-.045s.075.035.107.08.08.092.129.132a.36.36 0 0 0 .185.076c.075.01.165.002.271-.025a1.58 1.58 0 0 0 .385-.171c.119-.068.232-.146.34-.232a1.51 1.51 0 0 0 .276-.278c.076-.099.136-.202.176-.308s.053-.215.036-.326-.056-.18-.12-.217-.158-.047-.279-.029a2.83 2.83 0 0 0-.439.104l-.602.164a2.44 2.44 0 0 1-.551.092c-.161.006-.298-.023-.412-.084s-.207-.157-.277-.288-.121-.308-.153-.528-.02-.445.032-.677a2.49 2.49 0 0 1 .26-.666 2.93 2.93 0 0 1 .453-.6c.177-.189.38-.347.603-.475zm3.019-1.743c.043-.025.084-.027.121-.007s.061.058.068.112l.082.57c.008.055-.002.11-.028.169a.26.26 0 0 1-.104.122l-.513.297c-.044.025-.083.027-.121.008s-.06-.059-.067-.113l-.082-.572c-.008-.053.001-.109.027-.166s.061-.1.105-.125l.512-.295zm.848 4.933c.008.055-.001.109-.027.168a.25.25 0 0 1-.105.123l-.452.262c-.045.025-.084.027-.122.007s-.06-.059-.067-.112l-.489-3.418c-.008-.054.002-.109.027-.167s.061-.099.105-.124l.453-.262a.12.12 0 0 1 .121-.006c.038.022.061.059.067.111l.489 3.418zm2.308-.323a1.31 1.31 0 0 0 .248-.195 1.29 1.29 0 0 0 .217-.288c.063-.109.108-.23.139-.361s.036-.27.016-.41l-.039-.271a2.04 2.04 0 0 1-.104.215c-.044.082-.1.165-.167.252a2.11 2.11 0 0 1-.241.258c-.093.086-.2.164-.324.234-.197.115-.385.172-.559.169s-.33-.051-.466-.145-.251-.226-.347-.396-.163-.364-.203-.586l-.043-.253-.03-.261c-.025-.228-.02-.467.017-.713a3.07 3.07 0 0 1 .189-.704c.09-.224.209-.431.356-.619a1.78 1.78 0 0 1 .519-.454c.123-.07.235-.119.337-.146a.93.93 0 0 1 .271-.037c.08 0 .149.013.208.033a.64.64 0 0 1 .146.072l-.024-.17c-.008-.053.002-.108.027-.166s.061-.1.105-.125l.453-.261a.12.12 0 0 1 .121-.007c.038.021.06.059.067.112l.493 3.44c.084.592.015 1.115-.21 1.57s-.574.819-1.047 1.092c-.203.117-.395.192-.577.227s-.345.033-.487-.004a.77.77 0 0 1-.357-.199.7.7 0 0 1-.187-.357.25.25 0 0 1 .024-.164c.028-.06.064-.102.107-.127l.405-.233c.056-.032.107-.036.153-.013a1.06 1.06 0 0 1 .12.07c.064.053.143.082.24.082s.243-.051.434-.161zm-1.124-2.433c.008.144.027.28.06.411.07.304.182.485.336.548s.331.035.525-.078.348-.276.461-.495.159-.466.142-.741c-.003-.077-.012-.172-.028-.285l-.051-.271c-.058-.244-.162-.4-.316-.47s-.328-.05-.522.064a1.22 1.22 0 0 0-.465.494c-.115.217-.162.491-.142.823zm6.231-1.525c.008.055-.001.11-.027.168s-.062.099-.105.123l-.453.262c-.043.025-.084.027-.121.007s-.06-.058-.068-.112l-.267-1.863c-.042-.293-.132-.494-.267-.607s-.32-.102-.551.032c-.211.122-.364.306-.46.551a1.58 1.58 0 0 0-.081.81l.267 1.863c.008.053 0 .109-.027.166s-.06.1-.104.125l-.453.261c-.043.025-.083.027-.121.007s-.06-.059-.067-.112l-.489-3.418c-.008-.054.002-.108.027-.167s.061-.099.105-.124l.453-.261c.044-.025.084-.027.121-.008s.06.059.067.113l.024.168a2.7 2.7 0 0 1 .318-.525 1.63 1.63 0 0 1 .478-.41c.241-.14.45-.209.627-.211a.68.68 0 0 1 .446.146c.122.097.218.242.29.424s.123.391.156.621l.282 1.971zm1.632-4.642c-.008-.054.001-.108.027-.167s.061-.099.104-.124l.452-.261c.044-.025.085-.027.122-.008s.059.059.067.113l.267 1.863c.042.293.126.498.253.615s.306.109.535-.023a.98.98 0 0 0 .444-.541c.087-.24.108-.508.067-.801l-.268-1.863c-.008-.055.001-.109.027-.168a.25.25 0 0 1 .105-.123l.452-.262c.044-.025.084-.026.122-.007s.06.059.067.112l.489 3.418c.008.054-.002.109-.027.167s-.06.099-.105.124l-.452.262c-.044.025-.085.027-.122.006s-.06-.059-.067-.111l-.023-.168c-.076.165-.174.332-.297.5a1.49 1.49 0 0 1-.469.417c-.242.14-.449.21-.622.209a.65.65 0 0 1-.434-.154c-.118-.102-.212-.245-.281-.431a2.92 2.92 0 0 1-.153-.622l-.28-1.972zm5.87.605c-.123.072-.235.121-.337.147s-.191.039-.271.038-.149-.013-.209-.035a.74.74 0 0 1-.146-.07l.224 1.563c.008.053-.001.107-.027.166s-.061.1-.104.125l-.453.261c-.044.025-.084.027-.121.007s-.06-.059-.067-.112l-.689-4.811c-.008-.054.002-.109.027-.167s.061-.099.105-.124l.452-.262c.044-.025.084-.025.122-.006s.06.059.067.111l.024.17a2.08 2.08 0 0 1 .105-.217c.044-.08.1-.165.167-.25a1.97 1.97 0 0 1 .24-.259 1.91 1.91 0 0 1 .325-.235c.198-.114.384-.17.559-.168a.83.83 0 0 1 .466.145c.136.093.252.225.347.395a1.86 1.86 0 0 1 .203.586l.042.254.031.26c.025.23.02.467-.017.713s-.099.48-.189.705a2.55 2.55 0 0 1-.356.619 1.83 1.83 0 0 1-.52.451zm.3-2.094c-.008-.145-.027-.281-.059-.411-.069-.305-.182-.487-.337-.549s-.329-.036-.523.076-.349.278-.461.497-.16.465-.144.742c.003.077.013.172.028.285l.052.271c.058.242.162.398.316.469s.328.048.523-.064a1.2 1.2 0 0 0 .463-.493c.117-.217.164-.492.142-.823zm5.939-1.802c.008.054-.002.11-.028.167s-.062.1-.104.124l-.453.262c-.043.024-.084.027-.121.007s-.06-.059-.067-.112l-.267-1.863c-.042-.294-.132-.495-.268-.608s-.319-.101-.551.033a1.05 1.05 0 0 0-.459.551c-.096.246-.123.515-.081.809l.267 1.863c.008.054-.001.109-.027.167s-.061.099-.105.124l-.452.262c-.044.025-.084.027-.122.006s-.059-.059-.067-.111l-.489-3.418c-.008-.055.002-.109.027-.168a.27.27 0 0 1 .105-.123l.452-.262c.044-.025.084-.026.122-.007s.06.059.067.112l.024.169a2.58 2.58 0 0 1 .318-.525 1.63 1.63 0 0 1 .477-.411c.242-.139.45-.209.627-.211s.325.049.447.148.217.241.289.424a2.86 2.86 0 0 1 .157.621l.282 1.97zm1.628-4.934c.218-.125.421-.197.609-.217a.94.94 0 0 1 .509.08c.149.072.277.184.383.334s.18.336.225.555a1.71 1.71 0 0 1 .029.164l.029.207.029.201.018.168a2.59 2.59 0 0 1-.047.71 2.77 2.77 0 0 1-.232.687c-.109.219-.246.421-.41.605a2.26 2.26 0 0 1-.575.467c-.219.127-.422.199-.61.218s-.358-.006-.508-.076a.94.94 0 0 1-.38-.333c-.104-.152-.179-.335-.227-.551-.011-.042-.021-.096-.033-.16l-.031-.199-.027-.208-.015-.173c-.021-.232-.006-.469.043-.709a2.98 2.98 0 0 1 .237-.692 2.63 2.63 0 0 1 .409-.609c.165-.186.355-.342.575-.469zm.956 1.234c-.033-.145-.08-.254-.14-.328a.39.39 0 0 0-.204-.14.44.44 0 0 0-.238.007c-.083.023-.165.059-.248.107a1.39 1.39 0 0 0-.24.174 1.07 1.07 0 0 0-.203.248c-.06.098-.104.209-.135.336s-.042.27-.033.428l.013.153.022.185.03.186.029.137a.81.81 0 0 0 .141.328c.061.074.128.121.203.141a.44.44 0 0 0 .238-.006c.083-.024.166-.061.249-.109s.163-.105.239-.172.144-.151.203-.249a1.2 1.2 0 0 0 .136-.337 1.39 1.39 0 0 0 .032-.428c-.001-.035-.006-.085-.015-.145l-.026-.188-.026-.183a1.16 1.16 0 0 0-.027-.145zm4.495-1.84l.235-2.406a.89.89 0 0 1 .034-.148c.017-.051.052-.094.108-.125l.452-.262a.12.12 0 0 1 .121-.007c.038.022.06.059.067.112.003.02.004.037.002.055l-.416 3.9c-.005.051-.017.104-.035.156s-.055.096-.111.127l-.452.262c-.056.032-.098.035-.124.008a.46.46 0 0 1-.074-.092l-.858-1.625-.298 2.292a1.16 1.16 0 0 1-.038.157c-.017.053-.053.094-.108.127l-.453.261c-.055.032-.098.036-.127.011s-.053-.058-.071-.095l-1.384-2.862c-.006-.013-.011-.027-.014-.047a.3.3 0 0 1 .028-.168c.026-.057.061-.099.105-.124l.452-.261c.055-.032.097-.034.124-.009a.35.35 0 0 1 .068.089l.836 1.788.271-2.427c.002-.044.016-.094.04-.151s.058-.096.102-.121l.452-.262c.044-.025.083-.025.119-.006s.06.051.073.086l.874 1.767z" class="B"/><path d="M306.72 187.063l-91.783 52.991c-.519.299-1.013.024-1.105-.614l-1.399-9.771c-.091-.639.255-1.399.773-1.699l91.783-52.991c.519-.299 1.013-.024 1.105.614l1.399 9.771c.092.639-.255 1.399-.773 1.699z" class="C"/><path d="M219.929 232.329c.047-.027.091-.029.132-.008s.064.063.073.122l.08.563a.31.31 0 0 1-.03.179c-.028.063-.065.108-.113.135l-2.823 1.63c-.046.027-.091.029-.131.006s-.064-.062-.073-.12l-.732-5.116c-.008-.059.002-.118.03-.18s.066-.108.112-.135l2.772-1.601c.047-.027.091-.029.131-.006s.065.062.073.121l.08.561c.009.059-.001.118-.029.181a.28.28 0 0 1-.113.133l-2.077 1.199.181 1.26 1.936-1.117c.047-.027.091-.029.131-.007s.066.062.073.121l.081.563c.008.058-.003.119-.03.179a.28.28 0 0 1-.113.135l-1.936 1.117.189 1.314 2.126-1.229zm.833-1.468c-.046.027-.091.03-.13.007s-.065-.062-.073-.12l-.075-.523c-.009-.058.001-.118.03-.18a.28.28 0 0 1 .112-.134l1.963-1.133c.046-.027.09-.029.13-.007s.065.063.073.121l.075.523c.009.058-.002.117-.03.179s-.066.107-.112.134l-1.963 1.133zm3.559-4.026c.081-.213.189-.402.323-.568s.28-.295.438-.387c.271-.156.5-.221.689-.196s.349.109.476.253c.04-.138.096-.272.165-.404a2.58 2.58 0 0 1 .23-.363 2.02 2.02 0 0 1 .268-.296c.094-.086.188-.157.282-.211.245-.141.456-.208.633-.201a.69.69 0 0 1 .453.175c.125.111.225.267.297.467s.127.426.162.674l.306 2.131a.32.32 0 0 1-.03.179c-.028.063-.065.107-.112.135l-.489.282c-.048.027-.091.029-.131.006s-.065-.062-.073-.12l-.3-2.091c-.051-.359-.143-.578-.275-.656s-.298-.058-.499.058c-.172.099-.309.252-.411.46s-.134.485-.094.833l.306 2.131a.32.32 0 0 1-.03.179c-.028.063-.065.107-.112.135l-.489.282c-.047.027-.091.029-.131.006s-.064-.062-.073-.12l-.299-2.091c-.052-.359-.144-.578-.275-.656s-.299-.058-.5.058c-.176.101-.316.26-.419.476s-.131.503-.08.857l.3 2.091a.32.32 0 0 1-.03.179c-.028.063-.065.107-.112.135l-.489.282c-.047.027-.091.029-.132.006s-.064-.063-.072-.12l-.528-3.691c-.008-.058.001-.118.029-.18a.28.28 0 0 1 .113-.133l.489-.282c.047-.027.091-.03.131-.008s.064.063.073.121l.022.183zm5.163-2.312c.001-.121.023-.263.067-.425s.115-.333.213-.51a2.69 2.69 0 0 1 .379-.514c.154-.167.342-.313.56-.44a1.79 1.79 0 0 1 .607-.234c.186-.03.352-.014.499.05a.81.81 0 0 1 .366.351c.099.168.167.388.205.656l.334 2.329c.008.058-.001.118-.03.179s-.065.107-.112.135l-.489.282c-.047.027-.091.029-.132.006s-.063-.063-.072-.12l-.037-.262c-.068.206-.18.411-.333.616a2.02 2.02 0 0 1-.624.537c-.184.106-.354.17-.508.195a.67.67 0 0 1-.402-.047.65.65 0 0 1-.285-.26c-.076-.119-.125-.268-.15-.448-.053-.365.011-.711.191-1.037s.441-.63.782-.906l1.018-.827c-.031-.216-.112-.336-.24-.359s-.278.015-.45.114c-.107.062-.188.129-.243.201a1.49 1.49 0 0 0-.151.25c-.033.065-.064.115-.094.148a.36.36 0 0 1-.104.086l-.598.345c-.043.025-.081.029-.115.016s-.054-.05-.052-.107zm1.394 1.613c.146-.084.271-.184.379-.301a1.58 1.58 0 0 0 .257-.366c.064-.129.109-.259.132-.385s.028-.247.013-.359l-.012-.079-.848.695c-.17.138-.289.266-.356.381s-.092.234-.074.356c.017.111.073.166.174.165s.21-.035.335-.107zm2.612-6.654c.048-.027.091-.029.131-.006s.065.063.073.121l.089.618a.32.32 0 0 1-.03.179.28.28 0 0 1-.112.134l-.554.319c-.048.027-.091.03-.132.007s-.064-.063-.072-.12l-.088-.618c-.009-.058.001-.118.029-.18a.28.28 0 0 1 .113-.135l.553-.319zm.916 5.329c.008.058-.001.118-.03.179s-.065.107-.112.135l-.489.282c-.047.027-.091.029-.132.006s-.064-.063-.072-.12l-.528-3.691c-.008-.058.002-.118.029-.18a.28.28 0 0 1 .113-.133l.489-.282c.047-.027.091-.03.131-.008s.064.063.073.121l.528 3.691zm1.724-.995c.008.058-.001.118-.03.179s-.065.107-.112.135l-.489.282c-.047.027-.091.029-.132.006s-.064-.063-.072-.12l-.743-5.195c-.009-.058.001-.118.029-.18a.28.28 0 0 1 .113-.135l.488-.282c.048-.027.091-.029.131-.006s.065.063.073.121l.744 5.195z" class="F"/><path d="M309.605 207.161l-91.783 52.991c-.519.299-1.013.024-1.105-.614l-1.399-9.771c-.091-.639.255-1.399.774-1.699l91.783-52.991c.519-.299 1.013-.024 1.105.614l1.399 9.771c.091.64-.255 1.4-.774 1.699z" class="C"/><g class="F"><path d="M221.061 248.507c.52-.299.943-.381 1.274-.246s.537.493.62 1.073.003 1.107-.24 1.579-.624.857-1.144 1.158l-1.028.594.253 1.766c.008.059-.002.119-.03.18s-.066.107-.113.135l-.521.301c-.046.027-.091.029-.131.006s-.064-.062-.073-.119l-.732-5.116a.33.33 0 0 1 .03-.181c.027-.063.066-.107.112-.133l1.723-.997zm-.659 3.168l.996-.574c.244-.142.431-.314.56-.516s.173-.454.131-.75-.145-.457-.308-.486-.365.025-.61.166l-.996.576.227 1.584zm3.221-2.006c.001-.121.023-.262.067-.424s.115-.334.212-.51a2.63 2.63 0 0 1 .379-.514 2.37 2.37 0 0 1 .561-.439c.219-.126.422-.205.607-.234s.352-.014.498.05a.81.81 0 0 1 .366.351c.1.17.167.389.206.656l.333 2.33c.009.057-.001.117-.03.179s-.064.107-.112.135l-.488.282c-.048.027-.091.029-.132.006s-.064-.063-.072-.119l-.037-.262c-.069.205-.18.41-.334.617a2.01 2.01 0 0 1-.623.535c-.185.106-.354.17-.508.195a.69.69 0 0 1-.403-.047c-.114-.053-.21-.141-.284-.26a1.16 1.16 0 0 1-.151-.449c-.052-.363.012-.709.192-1.037s.441-.63.782-.906l1.017-.826c-.031-.217-.111-.337-.24-.359s-.277.016-.449.114c-.107.062-.188.128-.243.2a1.52 1.52 0 0 0-.152.25c-.032.065-.063.115-.093.148s-.064.063-.104.086l-.598.345c-.043.024-.082.03-.116.017s-.053-.051-.051-.11zm1.394 1.614c.146-.084.271-.184.378-.299a1.66 1.66 0 0 0 .257-.367c.065-.129.11-.258.133-.386a1.09 1.09 0 0 0 .012-.358l-.011-.08-.848.695c-.17.139-.289.266-.356.382s-.092.233-.074.356c.016.111.073.166.174.166s.21-.037.335-.109zm4.374-2.86c-.009-.059-.03-.098-.066-.115s-.092-.025-.172-.014a2.07 2.07 0 0 0-.313.078l-.493.148c-.196.055-.362.08-.497.072a.64.64 0 0 1-.339-.105c-.09-.064-.161-.151-.21-.269s-.085-.256-.107-.414-.016-.331.022-.52a2.11 2.11 0 0 1 .203-.559 2.57 2.57 0 0 1 .372-.527 2.24 2.24 0 0 1 .544-.434c.21-.121.402-.201.575-.238a1.07 1.07 0 0 1 .454-.014.59.59 0 0 1 .318.173c.081.087.136.19.162.313.013.055.004.115-.026.178s-.07.109-.116.136l-.496.286c-.064.037-.114.051-.15.039l-.12-.037c-.044-.015-.101-.018-.169-.01s-.167.049-.295.123-.238.164-.331.269-.129.218-.111.339c.008.059.026.1.057.127s.079.034.15.027a1.72 1.72 0 0 0 .29-.06l.478-.144c.396-.12.688-.117.875.005s.303.345.349.661a1.44 1.44 0 0 1-.03.52 2.08 2.08 0 0 1-.223.564c-.104.189-.241.372-.409.545s-.362.326-.586.455a2.05 2.05 0 0 1-.615.248 1.09 1.09 0 0 1-.478-.004.64.64 0 0 1-.327-.196.66.66 0 0 1-.158-.329c-.014-.055-.004-.114.026-.178s.069-.108.116-.136l.495-.286c.065-.037.115-.047.152-.028l.128.063c.048.024.11.033.188.027s.191-.049.336-.133c.064-.037.13-.081.197-.131a1.59 1.59 0 0 0 .183-.16c.054-.057.098-.117.131-.179.031-.057.044-.119.036-.176zm3.343-1.931c-.008-.057-.03-.096-.066-.115s-.092-.024-.172-.012a2.13 2.13 0 0 0-.313.078l-.493.146c-.197.056-.362.08-.498.073s-.249-.042-.339-.104a.6.6 0 0 1-.209-.268 1.63 1.63 0 0 1-.108-.415c-.022-.158-.015-.33.023-.518s.106-.375.202-.559a2.55 2.55 0 0 1 .373-.529c.152-.168.334-.313.544-.434s.401-.201.574-.237.325-.043.454-.014a.59.59 0 0 1 .318.173.65.65 0 0 1 .163.313c.012.056.003.115-.027.179s-.069.108-.116.136l-.495.286c-.064.037-.115.05-.151.04l-.119-.038c-.045-.015-.101-.019-.17-.011s-.166.051-.295.125a1.26 1.26 0 0 0-.33.268c-.093.104-.13.217-.112.338.009.059.027.102.057.127s.079.035.15.029a2.01 2.01 0 0 0 .291-.061l.477-.143c.395-.121.688-.118.875.004s.303.344.349.66c.022.158.013.332-.03.519s-.116.377-.223.566a2.62 2.62 0 0 1-.408.545 2.64 2.64 0 0 1-.587.454c-.227.132-.432.215-.615.249s-.342.034-.477-.003a.66.66 0 0 1-.328-.197.67.67 0 0 1-.158-.33c-.014-.055-.004-.113.026-.177a.3.3 0 0 1 .117-.136l.494-.285c.064-.037.115-.048.152-.029l.128.063c.048.024.11.034.188.028s.19-.049.336-.133c.064-.037.131-.082.197-.133a1.5 1.5 0 0 0 .183-.16.82.82 0 0 0 .131-.178c.034-.061.046-.122.037-.18zm4.639-3.199l.255-2.6c.007-.05.018-.103.036-.159a.24.24 0 0 1 .116-.135l.489-.282c.046-.027.09-.029.131-.008s.064.063.073.122c.003.021.003.04.001.059l-.448 4.212a.8.8 0 0 1-.038.167c-.021.059-.06.104-.119.139l-.489.282c-.06.034-.105.038-.135.009a.47.47 0 0 1-.08-.1l-.927-1.754-.321 2.475a1.1 1.1 0 0 1-.042.169c-.017.057-.057.103-.115.137l-.489.282c-.059.035-.105.038-.138.01s-.058-.061-.077-.1l-1.494-3.091c-.007-.013-.012-.03-.015-.051-.008-.059.002-.119.03-.181a.28.28 0 0 1 .113-.133l.489-.282c.059-.034.105-.037.134-.01s.054.061.072.097l.903 1.93.294-2.621c.002-.048.017-.102.043-.163s.063-.104.109-.131l.489-.282c.046-.027.09-.028.127-.006s.065.055.079.093l.944 1.906zm3.084-4.525c.236-.136.455-.215.66-.236a1.01 1.01 0 0 1 .548.086 1.07 1.07 0 0 1 .413.362c.113.163.194.362.243.597a2.21 2.21 0 0 1 .032.179l.031.222.031.218.02.182c.018.252 0 .508-.051.766a2.98 2.98 0 0 1-.252.742c-.117.237-.266.454-.442.654a2.53 2.53 0 0 1-.621.504c-.236.136-.455.213-.659.235a1.04 1.04 0 0 1-.548-.082c-.162-.075-.298-.195-.41-.36s-.193-.363-.245-.595a1.99 1.99 0 0 1-.035-.173l-.035-.216-.027-.224-.018-.188c-.021-.25-.006-.505.047-.764a3.18 3.18 0 0 1 .256-.748 2.97 2.97 0 0 1 .441-.658c.179-.2.385-.367.621-.503zm1.033 1.332c-.036-.156-.087-.274-.151-.354s-.139-.129-.22-.151a.49.49 0 0 0-.257.006c-.09.026-.18.065-.27.117a1.56 1.56 0 0 0-.259.188 1.22 1.22 0 0 0-.219.268 1.3 1.3 0 0 0-.146.363c-.033.137-.045.292-.035.462l.013.164.026.2.031.201.032.149c.036.156.087.273.151.354a.43.43 0 0 0 .221.152c.081.02.167.018.256-.007a1.2 1.2 0 0 0 .27-.116 1.56 1.56 0 0 0 .259-.188 1.21 1.21 0 0 0 .219-.267c.064-.106.112-.227.146-.364s.046-.29.035-.461a1.3 1.3 0 0 0-.016-.159l-.029-.202-.028-.198a1.15 1.15 0 0 0-.029-.157zm3.031-2.563c-.258.148-.433.325-.526.531s-.117.467-.072.783l.295 2.06a.32.32 0 0 1-.03.179c-.027.063-.065.107-.112.135l-.489.282c-.047.027-.091.029-.132.006s-.063-.063-.072-.12l-.528-3.69c-.008-.059.001-.118.029-.181s.066-.106.113-.133l.489-.282c.047-.027.091-.029.131-.008s.064.063.073.122l.026.183a2.5 2.5 0 0 1 .314-.5c.117-.142.277-.271.483-.39l.29-.167c.046-.027.09-.029.131-.008s.064.063.073.122l.074.523c.009.058-.001.118-.029.18s-.066.107-.113.134l-.418.239zm2.211-2.392a1.5 1.5 0 0 1 .363-.159c.11-.029.209-.043.294-.041a.69.69 0 0 1 .225.037c.064.023.116.048.157.077l-.241-1.688c-.008-.058.002-.118.029-.18s.066-.108.114-.135l.488-.282c.048-.027.091-.029.131-.006s.065.063.073.121l.744 5.195a.32.32 0 0 1-.03.179c-.027.063-.065.107-.112.135l-.489.282c-.047.027-.091.029-.132.006s-.064-.063-.072-.12l-.026-.183c-.027.068-.064.146-.113.232a1.96 1.96 0 0 1-.18.272c-.072.092-.159.186-.261.278a1.9 1.9 0 0 1-.35.254c-.214.124-.415.184-.604.182a.89.89 0 0 1-.503-.156c-.146-.1-.271-.243-.375-.426a2.04 2.04 0 0 1-.219-.633l-.046-.273-.033-.281c-.026-.247-.021-.504.018-.769a3.28 3.28 0 0 1 .205-.76c.098-.243.226-.465.385-.668a1.96 1.96 0 0 1 .56-.49zm-.323 2.262c.009.155.029.302.063.442.075.328.195.526.362.592s.356.04.567-.082a1.27 1.27 0 0 0 .497-.537 1.49 1.49 0 0 0 .153-.8c-.002-.084-.013-.186-.03-.308l-.056-.294c-.061-.262-.174-.43-.34-.506s-.355-.052-.564.069-.378.299-.503.534-.172.531-.149.89zm56.828-29.794c-2.536 1.464-4.609-.488-4.63-.508l-.07-.067.041-.133c.012-.039 1.245-3.953 3.782-5.418s4.616.537 4.637.557l.07.069-.042.132c-.012.039-1.252 3.904-3.788 5.368zm-4.416-.741c.383.322 2.203 1.674 4.371.423s3.351-4.338 3.591-5.02c-.383-.329-2.209-1.722-4.377-.47s-3.347 4.379-3.585 5.067z"/><path d="M302.461 202.206c-1.05.606-1.752 2.148-1.567 3.441s1.188 1.851 2.238 1.245 1.752-2.148 1.567-3.441-1.187-1.851-2.238-1.245zm.499 3.478c-.504.291-.989.021-1.079-.606-.089-.62.251-1.367.755-1.658s.995-.024 1.083.596c.09.628-.25 1.374-.759 1.668z"/></g><g class="D"><path d="M136.605 358.923l188.654-108.882c.778-.449 1.505-.141 1.624.689l3.194 22.308c.119.83-.416 1.867-1.194 2.316L140.229 384.237c-.778.449-1.505.141-1.624-.689l-3.194-22.308c-.119-.831.416-1.868 1.194-2.317z"/></g><path d="M323.922 255.844L141.131 361.325c-.858.495-1.448 1.638-1.317 2.553l2.834 19.791c.131.915 1.043 1.989 2.036 2.401l3.406 1.42c.993.412 2.493.344 3.351-.151l182.792-105.482c.858-.495 1.447-1.638 1.316-2.553l-2.833-19.789c-.131-.915-1.042-1.99-2.035-2.402l-3.407-1.42c-.994-.412-2.494-.345-3.352.151z" class="B"/><path d="M151.441 387.339c-.827.479-2.45.562-3.354.154l-3.404-1.426c-.99-.406-1.905-1.483-2.036-2.398l-2.834-19.791c-.068-.477.064-1.009.322-1.486l6.972 2.966c-.245.457-.357.975-.292 1.432l2.833 19.786c.122.838.879 1.293 1.793.763z" class="D"/><g class="D C"><path d="M332.655 259.255c-.235-.717-.959-.947-1.734-.502L148.136 364.236c-.43.251-.791.659-1.028 1.122l-6.98-2.965c.24-.443.588-.831 1.005-1.068l182.793-105.483c.854-.495 2.351-.563 3.349-.15l3.403 1.419c.901.375 1.739 1.294 1.977 2.144z"/></g><path d="M330.924 258.754L148.133 364.236c-.858.495-1.447 1.639-1.316 2.553l.573 4.006 2.26 15.783c.131.915.933 1.255 1.791.76l182.792-105.481c.858-.495 1.447-1.638 1.316-2.554l-2.833-19.789c-.132-.915-.934-1.255-1.792-.76z" class="B"/><path d="M231.41 331.787c.094-.055.182-.059.262-.014s.13.125.146.241l.161 1.125a.64.64 0 0 1-.06.36c-.057.123-.132.213-.227.268l-5.635 3.252c-.095.055-.182.06-.262.016s-.13-.125-.146-.241l-1.466-10.234a.63.63 0 0 1 .061-.36.58.58 0 0 1 .226-.268l1.043-.602c.094-.055.182-.059.262-.015s.13.125.146.241l1.243 8.682 4.246-2.451zm3.494-8.963c.471-.272.91-.43 1.318-.471s.773.018 1.097.174a2.13 2.13 0 0 1 .827.723c.227.326.39.725.484 1.195a3.73 3.73 0 0 1 .066.356l.063.443.062.436.038.364c.036.506.002 1.018-.101 1.533a5.87 5.87 0 0 1-.505 1.482 5.84 5.84 0 0 1-.885 1.31 5.04 5.04 0 0 1-1.241 1.009c-.472.272-.912.429-1.319.469a2.07 2.07 0 0 1-1.096-.165 2.01 2.01 0 0 1-.819-.718c-.222-.328-.388-.725-.491-1.191l-.071-.346-.068-.432-.057-.447-.033-.375c-.044-.5-.013-1.01.094-1.529a6.24 6.24 0 0 1 .511-1.496 5.78 5.78 0 0 1 .884-1.316c.356-.4.771-.737 1.242-1.008zm2.067 2.666c-.072-.315-.174-.549-.303-.709s-.277-.262-.441-.303a.94.94 0 0 0-.514.014 2.41 2.41 0 0 0-.537.232 3.19 3.19 0 0 0-.518.377 2.32 2.32 0 0 0-.438.535c-.127.21-.226.453-.292.727a3.05 3.05 0 0 0-.07.924l.025.328.051.398.064.4.063.299c.073.313.174.549.304.709s.276.259.439.302a.96.96 0 0 0 .514-.013c.178-.051.358-.13.538-.234a3.14 3.14 0 0 0 .517-.375 2.28 2.28 0 0 0 .438-.537c.128-.211.226-.452.294-.725s.091-.582.069-.924c-.003-.08-.013-.185-.032-.317l-.058-.404-.057-.395c-.016-.128-.036-.231-.056-.309zm6.99 2.91c.18-.104.359-.246.538-.423a2.82 2.82 0 0 0 .469-.622c.132-.236.232-.498.298-.781a2.36 2.36 0 0 0 .033-.885l-.083-.586a4.91 4.91 0 0 1-.226.465c-.096.174-.217.355-.361.542s-.318.372-.518.558-.435.353-.7.507c-.43.248-.832.368-1.209.362a1.78 1.78 0 0 1-1.006-.31c-.293-.203-.543-.486-.749-.854a4.04 4.04 0 0 1-.438-1.265l-.093-.548-.066-.561c-.053-.496-.04-1.009.037-1.54a6.65 6.65 0 0 1 .408-1.522c.194-.485.451-.929.77-1.335s.69-.733 1.12-.981c.266-.153.508-.259.728-.317a2.13 2.13 0 0 1 .588-.081c.174.004.321.028.449.073s.232.1.314.154l-.052-.364c-.017-.116.004-.237.059-.36s.132-.213.227-.267l.978-.565c.094-.055.183-.06.263-.015s.13.125.146.241l1.064 7.43c.183 1.277.031 2.41-.455 3.392s-1.238 1.77-2.26 2.359c-.436.252-.852.415-1.246.488s-.744.07-1.053-.01-.565-.221-.771-.43a1.49 1.49 0 0 1-.402-.77c-.026-.111-.008-.23.053-.357s.139-.217.233-.271l.874-.505c.12-.069.23-.079.33-.028s.186.102.259.151c.138.115.311.175.521.18s.517-.111.929-.349zm-2.424-5.256c.017.31.059.605.127.887.15.657.393 1.053.727 1.184s.712.078 1.133-.164.752-.6.995-1.072.346-1.006.307-1.601a5.66 5.66 0 0 0-.06-.618l-.112-.585c-.122-.524-.349-.862-.681-1.015s-.709-.105-1.13.138-.755.6-1.003 1.069-.35 1.06-.303 1.777zm7.019-11.289c.095-.055.182-.061.262-.015s.13.125.146.24l.178 1.237c.017.115-.004.236-.06.359a.57.57 0 0 1-.227.268l-1.106.639c-.095.055-.182.061-.262.015s-.13-.125-.146-.24l-.178-1.237c-.017-.115.004-.234.061-.359s.132-.213.227-.268l1.105-.639zm1.832 10.656a.64.64 0 0 1-.06.36c-.057.124-.132.212-.227.267l-.978.564c-.095.055-.183.061-.263.016s-.129-.125-.146-.242l-1.057-7.383c-.017-.115.003-.236.059-.359a.57.57 0 0 1 .227-.268l.978-.564c.095-.055.182-.061.263-.015s.13.125.147.241l1.057 7.383zm8.052-4.648c.017.115-.004.236-.06.359a.57.57 0 0 1-.227.268l-.978.564c-.094.055-.182.06-.263.016s-.128-.126-.145-.242l-.576-4.025c-.091-.633-.284-1.071-.578-1.313s-.69-.219-1.188.068c-.455.263-.785.659-.992 1.19s-.266 1.114-.175 1.747l.576 4.024a.64.64 0 0 1-.06.36c-.057.124-.132.212-.227.267l-.978.564c-.095.055-.183.061-.263.016s-.129-.125-.146-.242l-1.057-7.383c-.017-.115.003-.236.059-.359a.57.57 0 0 1 .226-.268l.978-.565c.095-.055.182-.06.263-.015s.13.125.146.241l.052.364c.183-.403.413-.782.688-1.135a3.52 3.52 0 0 1 1.028-.885c.523-.302.976-.454 1.355-.457s.702.103.965.319.472.518.625.916a6.03 6.03 0 0 1 .339 1.338l.613 4.268z" class="C"/><path d="M136.67 333.434l62.512-36.088-3.953-19.365c-1.548-5.595-4.728-9.413-8.75-11.116l-5.403-2.29c-4.003-1.695-8.838-1.297-13.73 1.527l-21.34 12.318c-9.807 5.662-16.846 19.347-16.511 32.1l1.772 20.624 5.403 2.29z" class="E"/><path d="M195.228 277.98c-1.548-5.595-4.728-9.412-8.75-11.116-4.002-1.695-8.838-1.297-13.73 1.527l-21.34 12.318c-9.807 5.662-16.846 19.347-16.511 32.1l1.773 20.624 62.511-36.088-3.953-19.365z" class="G"/><path d="M168.456 225.938c3.79 1.609 6.519 5.28 7.285 10.632 1.532 10.704-5.362 24.079-15.397 29.873-5.018 2.898-9.872 3.351-13.663 1.742l-5.216-2.211c-3.791-1.609-6.518-5.28-7.285-10.632-1.532-10.705 5.362-24.079 15.398-29.874 5.018-2.898 9.872-3.35 13.662-1.742l5.216 2.212z" class="E"/><path d="M160.343 266.443c-5.018 2.897-9.872 3.351-13.662 1.742s-6.518-5.28-7.284-10.632c-1.532-10.704 5.361-24.079 15.397-29.874 5.018-2.897 9.872-3.351 13.662-1.742s6.518 5.28 7.285 10.632c1.531 10.705-5.362 24.08-15.398 29.874z" class="G"/><path d="M85.285 414.866l-58.082-.012 6.005 25.019h.008c.458 3.017 2.678 5.961 6.677 8.27 9.033 5.215 23.678 5.215 32.711 0 4.304-2.485 6.532-5.706 6.735-8.962l5.946-24.315z" class="L"/><path d="M78.201 432.014c1.316-.76 2.465-1.579 3.486-2.434l3.268-13.366c-1.492 1.681-3.443 3.261-5.876 4.668-12.253 7.073-31.89 7.251-44.56.575l1.476-5.96-.453-.629-8.338-.002 6.003 25.007h.008c.458 3.016 2.678 5.961 6.677 8.27 6.435 3.715 15.71 4.769 23.783 3.192-14.471 1.078-24.4-5.249-25.889-11.081-.594-2.327-1.631-7.477-1.631-7.477 12.088 6.138 30.499 5.897 42.046-.763z" class="E"/><path d="M88.305 407.465c-.3 1.536-.946 3.053-1.939 4.515-1.564 2.36-3.999 4.571-7.287 6.472-12.607 7.278-33.055 7.278-45.662 0-3.288-1.901-5.723-4.112-7.287-6.472-.984-1.461-1.63-2.979-1.929-4.515h-.01c-1.124-5.47 1.958-11.174 9.226-15.371 12.607-7.287 33.055-7.287 45.662 0 7.268 4.197 10.35 9.901 9.226 15.371z" class="G"/><path d="M86.366 411.98c-1.564 2.36-3.999 4.571-7.287 6.472-12.607 7.278-33.055 7.278-45.662 0-3.288-1.901-5.723-4.112-7.287-6.472-.984-1.461-1.63-2.979-1.929-4.515h-.01l1.433 9.844c.656 3.962 3.606 7.821 8.87 10.856 12.017 6.931 31.49 6.931 43.508 0 5.189-2.997 8.14-6.809 8.842-10.715l.075-.506 1.386-9.479c-.3 1.536-.946 3.054-1.939 4.515z" class="L"/><path d="M75.276 394.286c-10.509-6.07-27.547-6.07-38.047 0-5.948 3.437-8.524 8.074-7.746 12.551.599 3.438 3.185 6.781 7.746 9.413 10.5 6.07 27.538 6.07 38.047 0 4.552-2.632 7.137-5.976 7.737-9.404.787-4.486-1.789-9.122-7.737-12.56z" class="E"/><path d="M31.258 410.998c1.314 1.912 3.292 3.707 5.971 5.253 10.5 6.07 27.538 6.07 38.047 0 2.675-1.546 4.652-3.343 5.964-5.253-.078-3.634-2.511-7.25-7.312-10.025-9.765-5.64-25.596-5.64-35.352 0-4.804 2.776-7.237 6.394-7.318 10.025z" class="J"/><use href="#G" class="B"/><use href="#G" class="M"/><path d="M60.613 365.889c.864 1.367 1.398 3.683 3.427 3.692 1.629.007 2.48-1.718 3.946-2.113 1.18-.318 2.298.307 3.24.972l-.054-1.258c-.834-.55-1.779-1.016-2.8-.987-.912.026-1.643.517-2.34 1.057-.754.583-1.672 1.468-2.711 1.039-1.173-.483-1.509-1.958-2.11-2.943-.333-.546-.754-1.008-1.287-1.324l-.391.891c.43.222.808.544 1.08.974zm5.727-4.318c.695-.329 1.094-1.018 1.63-1.535.68-.655 1.608-.796 2.487-.481.031.011.055.032.085.045l-.14-1.098c-.15-.046-.302-.089-.459-.112-.699-.103-1.437.022-2.018.439-.667.478-1.037 1.3-1.741 1.722-1.261.756-2.265-.62-2.642-1.654l-.456-1.407-.386.738.27.979c.43 1.359 1.715 3.148 3.37 2.364zm-.159 13.97c-.881.536-1.623 1.436-2.64 1.727-2.489.712-3.062-3.132-4.646-4.267-.671-.481-1.475-.66-2.259-.589l-.288.881c.413-.073.838-.088 1.262.012 1.063.251 1.668 1.017 2.177 1.933.794 1.428 1.805 3.468 3.796 3.075.888-.175 1.598-.792 2.312-1.304 1.007-.723 2.107-1.169 3.366-.907.751.157 1.328.561 1.893 1.009l.06-1.139c-.689-.516-1.428-.916-2.301-1.021a4.26 4.26 0 0 0-2.732.59zm1.515 8.44c-1.101-.274-2.287-.063-3.294.433-1.153.568-1.985 1.68-3.192 2.137-2.629.996-3.036-2.813-4.962-3.748-.634-.308-1.322-.431-1.991-.384l-.121.893c.255-.016.511-.019.762.015 1.318.18 2.108.975 2.712 2.1.932 1.735 2.155 3.142 4.282 2.105 1.137-.554 1.952-1.594 3.122-2.093 1.272-.543 2.828-.59 3.922.359.201.175.453.51.739.907l.278-1.148c-.595-.74-1.306-1.339-2.257-1.576z" opacity=".5" class="B"/><path d="M58.261 399.704c4.829 1.308 11.147-5.877 12.671-19.88.398-3.653.446-7.898.271-12.009-3.945 3.24-7.899 9.851-7.899 9.851s-2.585-6.763-4.689-10.561c-1.37 3.365-2.56 6.788-3.295 9.792-2.706 11.039-1.888 21.499 2.941 22.807z" opacity=".1"/><use href="#H" class="B"/><use href="#H" class="D"/><path d="M40.617 363.222c1.994.982 3.581.99 5.137-.694 1.447-1.566 2.513-3.539 4.768-3.285l-.659-1.496a3.56 3.56 0 0 0-1.098.112c-1.97.527-2.854 2.578-4.236 3.873-2.13 1.996-4.402-.626-6.818-.479-.074.005-.145.021-.218.029l-.06 1.314c1.058-.085 2.166.124 3.184.626zm17.458 19.686c-.335-.122-.679-.232-1.046-.302-1.049-.202-2.139.049-2.997.68-1.923 1.413-2.01 4.546-5.118 3.726-2.366-.624-4.138-2.182-6.62-.938-.846.424-1.603 1.024-2.281 1.719l.361 1.089c.902-.886 1.911-1.616 3.091-1.919 2.676-.688 4.694 2.017 7.357 1.574 2.172-.361 2.406-2.743 3.914-3.921 1.118-.874 2.316-.662 3.524-.221l-.185-1.487zm-17.347-30.073c.744 1.023 1.787 2.152 3.165 1.444 1.473-.756 1.585-2.547 2.533-3.713l-.516-.983c-.92 1.231-1.377 3.906-3.14 3.811-1.379-.074-1.92-2.119-3.074-2.709a2.02 2.02 0 0 0-1.15-.222l-.128.841c.09-.009.18-.021.275-.018.962.031 1.524.845 2.035 1.549zm4.786 21.717c2.507.542 3.732-2.444 4.862-4.102.839-1.23 2.102-2.501 3.481-2.944l-.509-1.348c-.465.102-.914.263-1.308.487-1.144.65-1.996 1.684-2.719 2.761-.757 1.129-1.382 2.643-2.554 3.403-1.341.87-2.913-.49-4.304-.746-1.291-.238-2.632-.124-3.867.316a6.63 6.63 0 0 0-1.173.568l.097 1.837c1.05-.985 2.675-1.399 4.072-1.37 1.464.03 2.551.842 3.922 1.138z" class="B"/><path d="M54.282 368.665c-3.367 4.035-5.145 8.428-5.145 8.428s-6.897-9.353-11.739-13.592c-.267 7.768.118 15.874 1.493 20.636 3.158 10.944 9.081 25.444 15.434 21.367 5.051-3.241 4.996-16.453 3.29-25.476-.598-3.159-1.814-7.164-3.333-11.363z" opacity=".1"/><use href="#I" class="B"/><use href="#I" class="M"/><path d="M28.537 383.867c.679-1.095.292-2.413.143-3.592-.109-.867.064-1.62.47-2.253l-1.311-.929c-.567.974-.635 2.035-.475 3.148.192 1.339.515 3.009-1.278 3.254-1.954.268-4.658-1.479-6.223.455-.757.936-.469 2.133-.496 3.232-.012.459-.167.965-.419 1.413l.643 1.314c.456-.559.777-1.259.865-1.969.167-1.35-.362-3.094 1.459-3.382 1.262-.2 2.477.383 3.722.471 1.111.078 2.273-.151 2.9-1.162zm-6.48-9.698c.143-.221.32-.396.512-.552l-1.044-.638c-.854 1.119-.853 2.658-1.715 3.772-.576.744-1.322.8-2.192.623-.839-.17-1.612-.287-2.419.082a3.31 3.31 0 0 0-.486.278l.265.844a2.58 2.58 0 0 1 1.219-.339c.879-.025 1.695.437 2.581.377.615-.042 1.128-.341 1.539-.79.954-1.042.998-2.506 1.74-3.657zm12.868 15.565c.907-.748 1.468-1.87 1.762-2.99.207-.793.197-1.649.302-2.464l-1.1-.975c-.238 1.362-.109 2.733-.812 4.014-.806 1.467-2.011 1.895-3.615 1.893-1.157-.001-2.286.069-3.107.991-.759.853-.998 2.022-1.158 3.115-.236 1.616-.483 3.112-1.988 4.027a4.66 4.66 0 0 1-.8.379l.839 1.009a4.64 4.64 0 0 0 1.667-1.24c1.945-2.304.368-6.884 4.497-6.879 1.303.001 2.46-.012 3.513-.88zm6.246 1.17c.23-.449.536-.847.872-1.218l-1.006-1.248c-.996 1.02-1.53 2.273-1.861 3.65-.356 1.48-.549 3.089-1.512 4.329-1.01 1.298-2.618 1.16-3.954 1.906-1.142.638-2.01 1.673-2.476 2.889-.361.942-.472 1.939-.62 2.928l1.229 1.013.032-.178c.263-1.647.457-3.333 1.739-4.54 1.229-1.156 2.918-.982 4.231-1.907 2.501-1.764 2.065-5.16 3.326-7.624zm5.033 4.84c-.334.267-.654.55-.941.866-1.982 2.178-1.737 5.005-2.464 7.669-.372 1.363-1.097 2.749-2.47 3.317-1.107.457-2.359.014-3.321.884-.036.032-.059.074-.093.108l1.74.934c.311-.079.643-.092.968-.111.65-.039 1.221-.136 1.806-.434.999-.509 1.73-1.419 2.209-2.412 1.204-2.495.668-5.528 2.169-7.9.357-.564.784-1.044 1.259-1.453l-.862-1.468z" class="B"/><path d="M27.732 377.018c1.093 9.615 6.224 35.49 26.158 35.942 0 0-3.864-13.879-13.092-24.813-2.984-3.536-8.073-7.648-13.066-11.129z" class="D"/><path d="M53.89 412.96c-9.138-1.333-16.975-7.116-21.006-24.326s-4.644-24.98-1.873-26.69c3.19-1.969 15.657 15.38 19.667 23.009 10.076 19.171 3.212 28.007 3.212 28.007z" class="B"/><path d="M36.939 381.16c2.275.715 5.241 1.475 6.947-.772.836-1.101 1.064-2.59 1.644-3.751l-1.225-1.758c-1.003 1.622-.978 4.016-2.739 4.945-1.323.698-2.892.24-4.229-.164-1.372-.414-2.75-.826-4.198-.631-.802.108-1.533.381-2.188.769l.321 1.564c.295-.167.599-.317.914-.435 1.616-.608 3.16-.267 4.753.233zm-2.698-8.907c.689.279 1.365.561 2.122.404 1.386-.287 2.112-1.628 2.821-2.713.208-.319.435-.633.701-.902l-.859-1.036-.175.178c-.864 1.045-1.59 3.179-3.2 3.206-.78.013-1.524-.499-2.278-.663-.653-.142-1.31-.147-1.97-.042-.665.106-1.278.352-1.826.697l.154 1.233c.752-.43 1.584-.717 2.451-.751.721-.027 1.394.12 2.059.389zm9.969 19.115c.873-1.274 1.503-2.715 2.791-3.64 1.504-1.081 3.019-1.015 4.656-.829l-.978-1.941c-1.052-.112-2.083-.132-3.156.201-1.427.443-2.618 1.335-3.486 2.546-.79 1.103-1.323 2.447-2.338 3.373-1.86 1.698-4.374.212-6.452-.201a7.68 7.68 0 0 0-1.822-.142l.496 1.759a7.79 7.79 0 0 1 2.403.368c3.102.966 5.811 1.537 7.886-1.494zm10.522 3.346l-.46.131c-1.234.471-2.29 1.285-3.095 2.325-.886 1.144-1.354 2.531-2.191 3.703-.978 1.37-2.067 1.709-3.636 1.211-1.374-.436-2.609-.754-4.015-.296-.967.315-1.818.88-2.544 1.59l.953 1.315c.573-.497 1.242-.926 1.963-1.145 1.152-.349 2.085-.042 3.148.393 2.624 1.073 4.856.389 6.465-1.966.781-1.144 1.235-2.503 2.113-3.581a5.13 5.13 0 0 1 1.887-1.446l-.588-2.234z" class="C D"/><path d="M50.678 384.954l-2.905-4.926c-3.95 12.216-5.222 30.034 6.117 32.932 0 0 6.864-8.836-3.212-28.006z" class="K"/><use href="#J" class="B"/><use href="#J" class="M"/><path d="M86.861 385.028c1.245-.088 2.46-.671 3.722-.471 1.821.288 1.292 2.032 1.459 3.382.088.71.409 1.41.865 1.969l.643-1.314c-.252-.448-.408-.954-.419-1.413-.028-1.098.261-2.295-.497-3.232-1.565-1.934-4.268-.187-6.223-.455-1.793-.246-1.47-1.915-1.278-3.254.16-1.114.092-2.174-.475-3.148l-1.311.929c.406.633.579 1.386.47 2.253-.149 1.179-.536 2.497.143 3.592.629 1.012 1.79 1.241 2.901 1.162zm5.321-7.202c.411.449.924.748 1.539.79.886.06 1.703-.401 2.581-.377a2.58 2.58 0 0 1 1.219.339l.265-.844a3.31 3.31 0 0 0-.486-.278c-.807-.369-1.58-.253-2.419-.082-.87.177-1.616.121-2.192-.623-.862-1.114-.861-2.653-1.715-3.772l-1.044.638c.191.156.369.331.512.552.741 1.151.786 2.615 1.74 3.657zm-11.096 12.787c4.129-.005 2.552 4.575 4.497 6.879.471.558 1.042.957 1.668 1.24l.839-1.009c-.273-.102-.541-.221-.8-.379-1.505-.915-1.751-2.411-1.988-4.027-.16-1.093-.399-2.263-1.158-3.115-.821-.922-1.95-.992-3.107-.991-1.605.001-2.81-.426-3.615-1.893-.703-1.281-.574-2.652-.812-4.014l-1.1.975c.105.815.095 1.671.303 2.464.293 1.12.854 2.242 1.762 2.99 1.052.869 2.209.882 3.511.88zm-6.432 7.915c1.312.925 3.002.751 4.23 1.907 1.282 1.207 1.476 2.893 1.739 4.54l.032.178 1.229-1.013c-.148-.989-.259-1.986-.621-2.928-.467-1.216-1.334-2.251-2.476-2.889-1.335-.746-2.944-.608-3.954-1.906-.964-1.24-1.157-2.848-1.512-4.329-.331-1.378-.864-2.63-1.861-3.65l-1.006 1.248c.336.371.642.769.872 1.218 1.263 2.464.827 5.86 3.328 7.624zm-9.221-1.318a6.47 6.47 0 0 1 1.259 1.453c1.501 2.372.965 5.405 2.169 7.9.479.993 1.21 1.903 2.209 2.412.585.298 1.156.395 1.806.434.326.02.657.033.968.111l1.739-.934c-.034-.034-.057-.076-.093-.108-.962-.869-2.215-.426-3.322-.884-1.373-.568-2.098-1.954-2.47-3.317-.727-2.665-.482-5.492-2.464-7.669a8.13 8.13 0 0 0-.941-.866l-.86 1.468z" class="B"/><path d="M84.767 377.018c-1.093 9.615-6.225 35.49-26.158 35.942 0 0 3.864-13.879 13.091-24.813 2.985-3.536 8.073-7.648 13.067-11.129z" class="D"/><path d="M58.609 412.96c9.138-1.333 16.975-7.116 21.006-24.326s4.644-24.98 1.874-26.69c-3.19-1.969-15.657 15.38-19.667 23.009-10.078 19.171-3.213 28.007-3.213 28.007z" class="B"/><path d="M80.311 380.927c.315.118.619.269.914.435l.321-1.564a5.78 5.78 0 0 0-2.188-.769c-1.447-.195-2.825.217-4.198.631-1.337.404-2.906.862-4.229.164-1.761-.929-1.736-3.323-2.739-4.945l-1.225 1.758c.58 1.161.808 2.65 1.644 3.751 1.706 2.247 4.672 1.487 6.947.772 1.594-.5 3.138-.841 4.753-.233zm.005-9.062c.867.034 1.699.321 2.451.751l.154-1.233c-.548-.344-1.16-.591-1.826-.697-.659-.105-1.317-.1-1.969.042-.755.164-1.498.677-2.278.663-1.61-.027-2.335-2.161-3.2-3.206-.055-.067-.117-.118-.175-.178l-.859 1.036c.266.269.493.582.701.902.709 1.085 1.434 2.427 2.82 2.713.758.156 1.433-.125 2.122-.404.666-.27 1.338-.417 2.059-.389zm-4.143 20.997a7.82 7.82 0 0 1 2.403-.368l.496-1.759a7.63 7.63 0 0 0-1.822.142c-2.078.413-4.592 1.899-6.452.201-1.015-.926-1.548-2.27-2.338-3.373-.867-1.211-2.058-2.103-3.485-2.546-1.073-.333-2.104-.313-3.156-.201l-.977 1.941c1.637-.186 3.152-.252 4.656.829 1.288.925 1.918 2.366 2.791 3.64 2.075 3.031 4.783 2.46 7.884 1.494zM57.18 396.95a5.13 5.13 0 0 1 1.887 1.446c.878 1.078 1.331 2.437 2.113 3.581 1.609 2.355 3.841 3.039 6.465 1.966 1.063-.435 1.996-.742 3.148-.393.721.219 1.391.648 1.963 1.145l.953-1.315c-.727-.71-1.577-1.274-2.544-1.59-1.406-.459-2.641-.14-4.015.296-1.569.497-2.658.158-3.636-1.211-.836-1.171-1.305-2.559-2.191-3.703-.805-1.04-1.862-1.854-3.095-2.325-.154-.059-.307-.087-.46-.131l-.588 2.234z" class="C D"/><path d="M61.821 384.954l2.905-4.926c3.95 12.216 5.222 30.034-6.117 32.932 0 0-6.865-8.836 3.212-28.006z" class="K"/><use href="#K" class="B"/><g class="C"><use href="#K" opacity=".3"/><path d="M56.203 382.408c1.228-.243 2.01-1.244 2.871-2.052.7-.658 1.521-1.045 2.379-1.232l-.598-1.457c-1.198.319-2.27 1.01-3.252 2-.469.473-.965.983-1.611 1.208-.932.326-1.5-.178-2.112-.787-.733-.729-1.502-1.291-2.535-1.514-.026-.006-.051-.006-.077-.011l-.477 1.217c.967.172 1.897.661 2.686 1.509.734.787 1.611 1.34 2.726 1.119zm-5.751 9.249c2.568 2.013 4.691-.843 6.332-2.539 1.373-1.419 2.821-1.71 4.383-.401.93.78 1.762 1.707 2.934 2.127a4.73 4.73 0 0 0 .884.218l-.316-1.456c-1.199-.302-2.077-1.223-3.127-2.084-2.295-1.882-4.362-1.093-6.177.992-1.045 1.201-2.741 3.266-4.467 1.976-1.014-.757-1.495-2.047-2.555-2.783-.013-.009-.028-.013-.042-.022l-.314 1.263c1.001.672 1.511 1.961 2.465 2.709zm2.881 9.237c1.456 1.927 3.271 2.402 5.242.748.961-.806 1.596-1.952 2.643-2.662 1.463-.992 3.143-.475 4.656.118l-.02-1.37c-.694-.28-1.395-.54-2.14-.667-1.18-.202-2.33-.027-3.316.673-1.092.775-1.76 1.983-2.813 2.796-.571.441-1.476.987-2.224.711-.881-.325-1.409-1.425-2.052-2.076-.814-.824-1.853-1.426-2.978-1.704a5.46 5.46 0 0 0-3.687.368l-.02 1.312c2.319-1.018 4.993-.518 6.709 1.753zm7.311 7.852c-1.236.956-2.777 1.477-4.349 1.305-.834-.091-1.599-.349-2.192-.957-.427-.439-.735-.978-1.169-1.412-.783-.782-1.805-1.281-2.9-1.437a5.64 5.64 0 0 0-2.417.203l.444 1.384c1.265-.41 2.584-.399 3.839.53.925.685 1.368 1.814 2.348 2.456.883.578 1.966.776 3.006.777 1.106.001 2.215-.274 3.195-.79 1.106-.582 1.894-1.585 2.97-2.205a5.36 5.36 0 0 1 .888-.403l.576-1.746c-.35.039-.707.106-1.077.229-1.276.421-2.128 1.267-3.162 2.066z" class="D"/></g><use href="#L" class="B"/><use href="#L" class="D"/><use href="#M" class="B"/><use href="#M" opacity=".3" class="C"/><g class="C D"><path d="M261.806 405.588l36.448-5.75c-.982-2.027-.102-4.296 2.657-5.902 4.08-2.375 10.708-2.399 14.805-.053 1.382.791 2.288 1.753 2.741 2.769l13.304-2.099c-1.751-2.04-4.094-3.952-7.048-5.643-.42-.24-.871-.449-1.306-.675l-59.962 9.46c-1.407 2.56-1.945 5.239-1.639 7.893zm71.725 5.455c2.706-4.49 2.737-9.389.109-13.877l-15.137 2.388c-.43 1.052-1.341 2.052-2.757 2.876-4.08 2.375-10.708 2.399-14.805.054-.072-.041-.132-.086-.201-.128l-38.292 6.041c.725 2.075 1.969 4.101 3.77 5.998l-17.12 9.967 84.433-13.319z"/></g><path d="M298.698 421.177c-9.135.033-17.668-1.953-24.027-5.593-5.54-3.173-8.725-7.319-8.74-11.376s3.141-8.225 8.658-11.438c6.333-3.686 14.852-5.734 23.986-5.767s17.667 1.953 24.027 5.593c5.54 3.173 8.726 7.32 8.741 11.375s-3.142 8.226-8.659 11.439c-6.333 3.686-14.852 5.734-23.986 5.767zm-.119-32.845c-8.904.032-17.187 2.016-23.322 5.585-5.096 2.968-8.01 6.717-7.997 10.286s2.954 7.298 8.071 10.229c6.159 3.525 14.456 5.448 23.362 5.416s17.189-2.015 23.322-5.584c5.096-2.968 8.011-6.717 7.998-10.287s-2.955-7.297-8.072-10.228c-6.16-3.525-14.458-5.449-23.362-5.417z" class="B"/><path d="M312.008 423.942l.017 4.701c-8.821 1.998-18.698 1.968-27.469-.097l-.017-4.701c8.771 2.065 18.648 2.095 27.469.097zm-39.888 7.133l.017 4.703-9.57-2.127-.017-4.703zm-16.083 1.664l.017 4.703-.327 7.89-.017-4.703zm-3.836 9.932l.017 4.703-8.828.808-.017-4.703zm-43.359 13.528l20.252-.073.017 4.703-20.252.073z" opacity=".1"/><path d="M201.582 452.026l.017 4.703 7.275 4.162-.017-4.703-3.188-1.825.007 2.03-1.759-1.007-.008-2.051z" class="K"/><use href="#N" class="B"/><use href="#N" opacity=".3" class="C"/><path d="M203.909 453.335l.008 2.051 66.286-38.595-1.76-1.028z" class="B"/><path d="M268.443 415.763l.007 2.051 1.753-1.023z" class="K"/><path d="M387.142 321.721c-.396 11.313.626 22.069.001 28.676-.058.616 4.084 3.716 8.206 3.293s5.307-1.812 5.338-2.253c.106-1.525 1.661-3.609 1.842-5.126 1.135-9.483 2.687-16.755 4.29-23.505l-19.677-1.085zm65.649 5.877l-18.662-1.615 5.503 26.204c.932 4.18 1.677 5.919 1.677 5.919.89 4.322 10.987 4.845 13.004-2.063l-.437-5.891-1.085-22.554z" class="N"/><path d="M365.376 370.164c-.258 0-.648 2.925.753 4.169 1.617 1.435 6.363 3.792 12.635 2.958s8.023-2.125 10.534-4.286 4.815-4.427 7.652-5.071c2.635-.598 6.649-1.684 7.492-2.523s.727-4.565.727-4.565l-39.793 9.318z" class="E"/><path d="M402.77 344.699s.898.026 1.06.888l.815 5.699c.575 2.343.752 8.935.406 10.845s-5.794 3.093-8.539 4.169c-2.804 1.099-4.835 2.582-7.683 4.997-2.947 2.5-7.502 4.396-11.59 4.365-4.837-.037-10.282-1.649-11.529-3.957-1.543-2.855-1.77-5.595 5.402-9.013 1.358-.647 5.543-3.173 7.168-4.226a31.12 31.12 0 0 0 4.993-3.907c.639-.619 1.263-1.257 1.835-1.941.467-.559.777-1.382.996-2.084.424-1.358.245-2.834.469-4.242.021-.129.047-.263.127-.365s.201-.154.319-.198c1.155-.431 2.324-.264 3.516-.184 1.202.081 2.391.423 3.537.822.621.216 1.272.497 1.623 1.066.249.403.311.898.319 1.376s-.032.958.039 1.43c.026.17.07.347.187.47.241.255.631.048.84-.145.751-.692 1.301-1.579 1.934-2.387.339-.433 1.859-.706 2.287-1.048.388-.311.884-.466 1.228-.819.435-.446.22-1.017.241-1.611z" class="L"/><path d="M388.829 371.296l3.329-2.626v-.007s-7.642 3.106-11.05.711c-2.195-1.543-1.151-3.418-1.098-4.016s-5.362-3.165-7.494-3.426h0l-1.404.759c-7.172 3.418-6.946 6.158-5.402 9.013 1.247 2.308 5.192 4.108 11.443 4.11 4.088 0 8.728-2.018 11.676-4.518z" class="G"/><path d="M380.6 363.612c-4.46 1.834-2.557 2.691-1.309 2.875s7.543-3.544 12.121-7.27c4.776-3.887 8.939-7.994 10.713-9.421.661-.532 1.373-1.186 2.007-1.797-.117-1.01-.212-1.93-.303-2.413-.162-.863-1.153-1.112-1.153-1.112l-.148 1.836c-.345.353-.84.514-1.303.685-.981.362-1.873.749-2.212 1.182-.632.808-1.183 1.695-1.934 2.387-3.895 5.084-12.019 11.213-16.479 13.048z" class="E"/><path d="M379.608 365.813a.43.43 0 0 0 .28-.103c.189-.158.217-.444.062-.639-1.259-1.586-4.888-3.687-8.169-3.317a.45.45 0 0 0-.391.5c.025.249.219.422.486.403 3.064-.338 6.394 1.732 7.391 2.989.086.11.213.166.341.167zm3.898-2.258a.43.43 0 0 0 .281-.096c.193-.154.226-.439.077-.637-1.221-1.615-4.8-3.798-8.091-3.509a.45.45 0 0 0-.403.49c.02.249.228.434.477.414 3.072-.261 6.353 1.883 7.322 3.163.083.111.209.171.337.175zm3.602-2.569c.098 0 .197-.033.279-.103.189-.158.216-.445.062-.639-1.259-1.586-4.887-3.689-8.169-3.315a.45.45 0 0 0-.392.5.44.44 0 0 0 .486.403c3.065-.338 6.394 1.73 7.391 2.988.087.108.214.165.343.166zm3.179-2.323a.43.43 0 0 0 .283-.09c.196-.15.234-.435.089-.636-1.191-1.64-4.743-3.897-8.024-3.67a.45.45 0 0 0-.412.482c.016.25.217.438.469.424 3.072-.201 6.317 2.009 7.26 3.308.082.113.206.176.335.182zm3.422-2.738c.096.004.194-.025.278-.088.197-.148.239-.433.095-.634-1.645-2.315-5.499-3.948-8.79-3.708a.45.45 0 0 0-.41.484c.016.25.22.431.47.422 2.963-.214 6.557 1.287 8.017 3.339.084.116.211.179.34.185z" class="O"/><path d="M441.429 381.631c.313 4.462 1.027 7.413 2.603 10.01s4.492 3.378 7.425 2.569 6.675-2.912 7.467-6.776.586-6.502-.138-10.634l-17.357 4.831z" class="E"/><path d="M453.877 350.151c1.031.325 1.368 6.432 2.148 12.426.836 6.425 1.964 8.351 2.704 13.617.846 6.017.462 8.039-1.543 11.713s-9.225 7.352-12.878 2.184c-2.978-4.214-3.049-8.256-2.864-14.279.192-6.226.076-9.621-.234-14.34-.297-4.51-2.626-8.769-1.579-9.286-.193.095.691 3.116.768 3.376.162.548.326 1.185.655 1.658.583.836.841-.542.833-1.063-.013-.89-.309-1.6.357-2.35.461-.52 1.181-.824 1.799-1.093.706-.307 1.447-.528 2.199-.68 1.535-.311 3.11-.345 4.674-.332.619.005 1.433.179 1.814.749.093.14.144.306.18.471.126.588.069 1.199.194 1.786.035.165.106.594.259.688.055.034.407.051.414-.066.004-.05.228-4.13.1-5.179z" class="L"/><path d="M458.454 374.134c.129.868.787 6.289-.723 7.348-1.635 1.146-2.601-3.366-2.601-3.366s-3.886-1.164-9.484 1.451c.302.93-.526 4.023-2.08 3.394-1.544-.624-2.126-6.544-2.135-6.629-.157 5.774-.013 9.668 2.878 13.759 3.652 5.169 10.874 1.491 12.878-2.184s2.389-5.696 1.543-11.713c-.085-.602-.164-1.517-.276-2.06z" class="G"/><path d="M454.694 378.508c.054 2.178 1.936 1.403 2.185-1.665.373-4.599-.798-8.972-.854-14.266-.78-5.994-.935-12.345-2.148-12.426.058 1.043-.099 5.182-.099 5.182.438 4.486 1.655 9.721 1.542 14.353-.1 4.08-.679 6.644-.626 8.822zm-8.395.99c-.427-2.135-1.109-2.734-1.585-6.786-.473-4.022-2.745-11.289-3.632-15.668-.244-1.358-1.443-4.812-1.449-4.857-.755.387-.001 2.899.633 5.605s1.053 4.367 1.471 6.972c1.11 5.17 1.337 10.677 2.062 13.663s2.926 3.205 2.5 1.071z" class="E"/><path d="M445.819 379.61c.056-.007.111-.024.163-.052.043-.025 4.414-2.402 9.328-1.129a.45.45 0 0 0 .545-.336c.061-.248-.086-.498-.327-.561-5.258-1.362-9.783 1.106-9.975 1.213-.218.121-.3.401-.181.626a.45.45 0 0 0 .447.239zm-1.281-4.31c.051-.006.1-.02.149-.045s5.405-2.649 10.884-1.426c.242.05.481-.105.535-.355s-.103-.496-.345-.55c-5.795-1.289-11.261 1.395-11.473 1.501a.47.47 0 0 0-.204.62c.086.18.271.276.454.255zm11.606-5.019c.17-.02.321-.139.377-.316.076-.243-.053-.505-.289-.584-5.462-1.816-12.574.902-12.8 1.028-.219.121-.3.401-.181.626a.45.45 0 0 0 .609.186c.051-.028 7.011-2.657 12.093-.959.064.021.128.027.191.019zm-.932-3.891c.167-.02.316-.135.374-.309.081-.243-.044-.506-.279-.588-6.009-2.118-12.106 1.337-12.316 1.473a.47.47 0 0 0-.142.638c.132.216.415.283.62.146.047-.031 5.954-3.352 11.546-1.383.065.024.133.03.197.023z" class="O"/><path d="M454.779 361.635c.164-.019.312-.132.372-.303.084-.241-.037-.505-.271-.592-5.633-2.079-12.166 1.461-12.395 1.603-.214.129-.283.414-.156.633s.401.296.616.161c.053-.032 6.401-3.459 11.631-1.528a.41.41 0 0 0 .203.026z" class="H"/><path d="M414.779 250.545l-4.636 28.858s1.418 8.629 1.015 16.958-5.256 33.104-7.026 41.941c-9.209 5.598-17.648-.418-17.648-.418l-3.134-60.11c-.721-11.686.988-59.072 1.538-77.603l59.126.172s1.092 9.968 2.073 24.853l3.234 54.794c5.987 17.712 3.486 29.335 4.538 62.422-8.413 6.057-16.375 1.961-16.375 1.961l-12.053-45.677c-1.6-6.29-7.41-33.639-10.652-48.151" class="G"/><path d="M391.727 229.082l-1.591 22.723c-.097 3.629-.882 11.575-.945 15.201-.064 3.62-.175 7.262-.02 10.837.169 3.59 1.852 33.014 1.572 40.296-1.048-8.072-2.768-32.914-3.204-40.222-.176-7.351.643-15.662 1.588-26.208s1.705-15.411 2.6-22.627zm32.745-3.889c2.769 11.921 7.32 42.719 8.354 50.962 1.075 8.235 8.672 40.735 9.452 49.043-1.41-8.224-9.961-40.534-11.073-48.831l-6.733-51.174zm-14.422 2.783l4.729 22.569-4.636 28.858 1.916-24.14-5.138-24.678s-9.65-2.941-12.167-13.04c4.919 8.122 15.296 10.431 15.296 10.431z" class="L"/><path d="M394.763 128.017c-5.438.888-10.767 3.647-14.882 11.837-3.385 6.738-4.16 12.58-9.496 23.223l-22.301-.359 3.966 14.248s13.302 2.369 20.181 2.914c5.146.408 7.222-.971 10.345-5.164 4.085-5.484 9.788-18.349 9.788-18.349l2.399-28.35z" class="N"/><path d="M395.093 127.687c-3.23.528-8.306 2.142-11.174 5.571s-5.439 8.207-8.009 15.821l-3.065 9.126s2.557 3.126 8.53 5.174 8.742 1.257 8.742 1.257l4.977-17.238v-19.711z" class="B"/><path d="M416.331 212.11c-3.086 0-6.291-.167-9.525-.499-18.086-1.852-21.407-8.232-21.738-8.989.081-1.93 1.197-28.764 1.057-42.809-.189-18.903 6.954-28.952 9.279-31.711.979-.331 8.983-1.608 13.918-2.351l16.009.356 16.87 3.836c.857 1.896 6.826 15.888 3.338 30.195-.644 2.638-1.063 8.989-1.469 15.13l-.485 6.945c-.499 6.336.021 15.249.668 23.973-1.633.941-11.085 5.924-27.922 5.924z" class="J"/><path d="M409.311 126.265l15.958.348 16.572 3.767c1.12 2.549 6.54 15.961 3.206 29.639-.654 2.682-1.075 9.056-1.482 15.221l-.485 6.934c-.495 6.298.007 15.091.644 23.73-2.194 1.205-11.449 5.7-27.392 5.7a93.56 93.56 0 0 1-9.474-.496c-17.247-1.766-20.815-7.643-21.279-8.584.114-2.715 1.19-28.896 1.052-42.716-.185-18.463 6.664-28.37 9.058-31.257 1.307-.348 7.803-1.409 13.622-2.286m-.065-1.013s-13.446 2.025-14.153 2.436c-2.232 2.616-9.67 12.644-9.475 32.131.147 14.655-1.061 42.889-1.061 42.889s2.382 7.378 22.197 9.407c3.423.35 6.613.502 9.577.502 18.89 0 28.448-6.154 28.448-6.154-.67-8.984-1.188-17.9-.692-24.208.604-7.679 1.062-18.387 1.941-21.995 3.822-15.677-3.473-30.751-3.473-30.751l-17.164-3.904-16.145-.353h0z" class="F"/><path d="M432.726 90.67c-1.199-2.715-2.784-4.028-3.803-4.405-.206-4.867-3.375-9.078-7.983-10.696-3.075-1.08-6.42-1.102-9.668-.828-3.138.264-6.551.733-9.222-.934-.104-.065-.218-.136-.34-.122-.081.009-.152.055-.217.104-.612.471-.774 1.368-.553 2.109s.754 1.347 1.329 1.864c-2.053-.036-4.024.824-5.756 1.927-1.884 1.199-3.633 2.788-4.42 4.878-.664 1.764-.582 3.719-.318 5.585a3.14 3.14 0 0 1 2.342-2.268c-.329.07-.553 1.89-.586 2.183a7.78 7.78 0 0 0 .114 2.421c.212 1.028.771 3.222 1.714 3.83.895.577 2.363.225 3.343.149l5.815-.453 12.589-.981 3.259-.254c-.204 1.124-.303 2.507-.125 4.135.405 3.702 4.611 7.425 4.611 7.425l-.211 5.161-.099 7.405s1.853-.506 2.737-2.242 2.884-4.465 4.499-10.685c2.51-9.663 2.149-12.593.949-15.308z" class="E"/><path d="M431.434 111.928c-3.814 1.913-5.601-1.1-5.601-1.1l-.384 16.628c-7.24 9.947-26.936 6.227-18.969-1.255l-.028-4.683s-1.287-.014-3.326-.316c-3.402-.493-5.567-2.882-6.625-6.547-1.561-5.422-2.259-14.124-.324-23.412.373-1.793 1.121-3.755 2.753-4.587 4.051-2.066 7.857.792 13.562 2.935 2.363.887 8.071 1.219 9.567.494-1.954 2.212-.739 7.863-.19 9.649.792 2.577 1.899 3.823 2.44 3.93 2.332.46 2.577-1.54 3.607-2.645 1.04-1.096 4.942-2.121 6.673 1.448 1.751 3.635.379 7.689-3.155 9.461z" class="N"/><path d="M420.9 116.944c-.753 3.769-5.809 6.307-14.434 6.621l-.014-2.046s2.645 0 6.319-.652c4.029-.716 8.129-3.923 8.129-3.923z" class="P"/><path d="M412.328 95.635l3.768 1.583c.416-1.078-.091-2.307-1.132-2.744s-2.221.083-2.636 1.161zm-14.191 1.057l3.941-1.194c-.291-1.11-1.41-1.742-2.498-1.412s-1.734 1.496-1.443 2.606zm16.595 2.978c-.021.92-.784 1.647-1.703 1.626s-1.648-.784-1.626-1.704.784-1.647 1.704-1.626 1.646.784 1.625 1.704zm-12.554-.159c-.021.919-.784 1.647-1.703 1.626s-1.647-.784-1.626-1.703.784-1.647 1.703-1.626c1.057.025 1.651.646 1.626 1.703z" class="E"/><path d="M407.408 97.621l-1.574 9.896-5.123-1.22c1.946-4.448 4.066-6.693 6.697-8.676zm3.955 11.126l-5.741 2.224c.588 1.646 2.349 2.483 3.935 1.869s2.394-2.447 1.806-4.093z" class="P"/><path d="M410.8 109.83c.248-.067.494-.096.738-.108.052 1.339-.705 2.622-1.98 3.116-.32.124-.646.174-.969.185-.31-1.353.656-2.769 2.211-3.193z" fill="#f28f8f"/><use href="#O" class="B"/><use href="#O" opacity=".7" class="C"/><g class="B"><path d="M383.417 158.732c.671.677 1.21 1.562 1.388 2.376l6.646 30.827c.14.691.012 1.203-.324 1.466l1.409-.938-.012-.015c.375-.258.53-.768.38-1.486l-6.644-30.84c-.158-.759-.653-1.573-1.272-2.243l-1.571.853z"/><use href="#P"/></g><use href="#P" class="C M"/><path d="M384.027 167.307l-1.243-5.771a.99.99 0 0 0-.531-.633l-2.578-1.051c-.239-.097-.389.028-.334.28l1.243 5.771a.99.99 0 0 0 .531.633l2.578 1.051c.239.097.389-.028.334-.28z" class="G"/><path d="M382.492 162.843c-.133-.614-.741-1.316-1.358-1.567s-1.011.042-.877.656.741 1.316 1.358 1.568 1.01-.043.877-.657zm.592 2.908c-.133-.614-.741-1.316-1.358-1.568s-1.011.043-.877.656.741 1.316 1.358 1.568 1.01-.042.877-.656z" class="E"/><path d="M344.024 162.067c-1.212-1.896-1.079-2.132-.322-3.027s2.422-2.348 4.806-2.152c1.603.132 3.227.186 4.033.657s.009 2.176-2.108 2.536c-3.337.567-3.363 1.464-3.363 1.464l4.296-.523c1.223-.004 3.419.693 4.798.985s1.56 2.101-.83 2.595l2.527.542c1.769.379 2.326 1.36.867 2.391-.347.245-.824.524-1.647.522 0 0 1.9.098 1.906.732.018 1.818-1.182 2.231-5.08 3.144-3.717.871-4.574 2.803-3.918 4.2l-2.695-1.912c-.927-.715-1.703-1.505-1.191-2.984 0 0-2.094-.069-2.154-1.37s.651-2.747.651-2.747-1.197-.67-1.04-2.207.881-2.234.881-2.234l-.417-.612z" class="N"/><path d="M355.336 164.601c-.762-.156-1.475-.362-2.3-.372-.848.031-1.566.341-2.279.593-1.421.553-2.826 1.156-4.15 1.949 1.52-.295 2.96-.78 4.384-1.314.71-.269 1.41-.587 2.086-.703l2.259-.153zm1.747 3.454a5.1 5.1 0 0 0-2.5-.207c-.838.116-1.64.362-2.424.627-1.557.56-3.066 1.227-4.482 2.103 1.619-.381 3.164-.931 4.706-1.465s3.03-1.113 4.7-1.058zm59.439-12.947c-3.074-2.603-4.639-3.633-6.115-4.152s-6.611-3.039-8.601-3.668c-1.262-.399-1.908 1.607-.363 3.111 1.19 1.158 4.37 2.777 5.754 3.651s3.987 4.469 3.987 4.469l5.338-3.411z" class="P"/><path d="M455.385 141.26c-2.772-7.008-5.485-9.097-12.7-11.445-7.715 6.641-3.396 25.046-3.396 25.046l6.739 19.178s-15.412-5.145-17.505-6.674-7.552-8.182-9.397-10.187c-2.511-2.729-3.857-2.468-5.227-2.348-4.485.391-5.484.704-6.461 1.243s-.972 1.676-.972 1.676c-1.189.074-2.953-.073-3.301 1.852-.229 1.27-.167 1.549-.167 1.549s-.427.016-.794.392c-1.053 1.076.387 5.119 1.397 6.145.709.721 1.775.872 3.193.768 1.206-.088.725-1.339.725-1.339l1.667.203c3.455 2.791 3.322 7.89 8.029 9.308.994.3 3.07.399 5.765 1.495 10.073 4.094 22.958 15.611 32.076 16.969 8.899 1.325 10.054-3.874 9.992-9.367-.098-8.767-6.899-37.476-9.663-44.464z" class="N"/><path d="M406.467 157.749l5.663-.18-5.515-.536c-.097.244-.143.477-.148.716zm-3.468 3.401l6.123-.411-6.087-.294a3.23 3.23 0 0 0-.036.705zm5.071 5.114c-.663-.778-.682-1.215-.682-1.215l-2.108-.273c-.27-.077-.539-.171-.796-.285-.313-.153-.627-.328-.85-.615.165.324.457.579.773.76a3.77 3.77 0 0 0 .892.377l.3.767c-.232.009-.455.079-.645.205-.28.186-.462.47-.579.76a1.91 1.91 0 0 1 .66-.623c.258-.127.566-.168.825-.1 1.32.396 1.66 1.094 1.66 1.094l1.666.203c0 .002-.762-.639-1.116-1.055zm37.958 7.775c3.851 1.037 8.711 5.294 9.651 7.45-1.107-4.72-4.018-8.655-10.609-10.17l.958 2.72z" class="P"/><g class="B"><path d="M442.556 129.508c6.307 1.574 10.031 3.349 12.513 9.84s7.448 27.423 7.448 27.423-.414 1.274-7.448 2.929-11.585 0-11.585 0l-4.965-15.171c-1.242-3.448-4.399-19.87 4.037-25.021z"/><use href="#Q"/></g><use href="#Q" class="C D"/><use href="#R" class="B"/><use href="#R" class="C D"/><use href="#S" class="B"/><g class="C"><use href="#S" class="M"/><path d="M130.959 46.639c-.182-1.165-1.133-1.582-2.288-.919L60.217 85.215c-.641.374-1.218 1.005-1.635 1.732l-8.847-5.107c.417-.695.973-1.294 1.593-1.646l68.464-39.496c1.272-.738 3.346-.748 4.639-.021l4.23 2.392c1.165.662 2.137 2.19 2.298 3.57z" opacity=".7"/></g><path d="M106.557 92.408l-2.243 1.295V83.93c0-7.254-4.426-10.6-9.866-7.459s-9.866 11.597-9.866 18.852v9.773l-2.243 1.295c-1.967 1.136-3.564 4.187-3.564 6.8v26.942c0 2.212 1.15 3.461 2.762 3.024 8.494-2.281 17.328-7.381 25.823-14.909.803-.71 1.497-1.708 1.983-2.811.486-1.093.771-2.297.771-3.398V95.097c0-2.613-1.59-3.825-3.557-2.689zM97.6 125.762l-6.303 3.639 1.103-9.998c-1.111-.284-1.859-1.478-1.859-3.35 0-2.88 1.751-6.227 3.904-7.469 2.16-1.247 3.911.077 3.911 2.957 0 1.872-.748 3.93-1.859 5.497l1.103 8.724zm2.664-29.721l-11.632 6.716v-9.773c0-4.276 2.609-9.261 5.816-11.112s5.816.121 5.816 4.397v9.772z" class="J"/><defs ><path id="B" d="M305.843 253.587l5.066-2.925 29.412-92.866c2.505-5.087-2.024-7.682-6.869-4.885L80.869 298.552c-4.845 2.798-6.368 6.645-10.677 15.015s-28.608 89.027-28.608 89.027c-.359 1.878.509 3.778 2.164 4.736l57.51 33.309L365.45 288.115l-59.607-34.528z"/><path id="C" d="M73.362 315.593c-3.276 6.345-28.577 88.716-28.577 88.716l269.322-155.493 29.384-88.993c2.672-5.274-2.024-7.682-6.869-4.885L84.039 300.577c-4.845 2.798-7.401 8.671-10.677 15.016z"/><path id="D" d="M327.375 59.419L72.842 206.107c-5.581 3.222-7.323 8.439-6.339 15.312l30.117 211.39c.984 6.874 6.46 10.896 12.041 7.673l252.28-145.593c5.581-3.222 9.308-11.407 8.324-18.281L339.263 66.031c-.984-6.874-6.307-9.834-11.888-6.612z"/><path id="E" d="M202.741 197.73l102.931-59.404c.873-.504 1.689-.158 1.822.773l13.961 97.458c.133.931-.466 2.095-1.34 2.599l-102.93 59.404c-.873.504-1.689.158-1.822-.773l-13.961-97.458c-.134-.931.466-2.095 1.339-2.599z"/><path id="F" d="M201.696 198.87l-3.421-1.452c-.244.471-.362.996-.295 1.462l13.961 97.457c.066.459.301.775.621.918l3.4 1.442c-.314-.15-.533-.467-.597-.912l-13.961-97.457c-.066-.465.051-.988.292-1.458z"/><path id="G" d="M58.261 399.704c-4.829-1.309-5.647-11.768-2.942-22.808 2.631-10.739 11.054-26.842 12.846-26.489s4.026 17.857 2.767 29.417c-1.525 14.003-7.843 21.189-12.671 19.88z"/><path id="H" d="M54.325 405.504c-6.354 4.077-12.276-10.423-15.434-21.367s-1.095-39.553 2.105-41.118c2.265-1.108 14.259 24.53 16.619 37.009 1.706 9.024 1.761 22.235-3.29 25.476z"/><path id="I" d="M53.89 412.96c-11.615.627-22.471-6.403-29.51-15.272s-12.538-27.182-10.947-28.307 20.33 10.43 27.366 18.766c9.227 10.934 13.091 24.813 13.091 24.813z"/><path id="J" d="M58.609 412.96c11.615.627 22.471-6.403 29.51-15.272s12.537-27.182 10.947-28.307-20.331 10.43-27.366 18.766c-9.228 10.934-13.091 24.813-13.091 24.813z"/><path id="K" d="M56.249 414.855c7.706 0 10.268-10.489 9.497-18.93s-6.104-24.501-9.497-24.501-8.725 16.06-9.496 24.501 1.79 18.93 9.496 18.93z"/><path id="L" d="M324.73 393.612c-14.462-8.28-37.86-8.195-52.262.189-6.035 3.513-9.815 5.873-10.772 10.423l.017 4.709c.019 3.508 1.529 7.011 4.523 10.166l-64.654 32.927.017 4.703 7.274 4.162 20.252-.073 7.947-4.627-.016-4.446 6.333-3.564 8.828-.808 3.508-2.043.328-7.889 6.512-3.792 9.57 2.127 12.42-7.23c13.412 3.16 29.409 1.568 40.282-4.762 7.22-4.203 10.808-9.695 10.769-15.17l-.017-4.659c-.67-4.894-4.357-6.62-10.859-10.343zm-8.966 13.521c-4.08 2.375-10.708 2.399-14.805.053s-4.111-6.172-.031-8.547 10.708-2.399 14.805-.053 4.111 6.172.031 8.547z"/><path id="M" d="M324.713 388.909c-14.462-8.28-37.86-8.195-52.262.189-11.833 6.889-13.89 17.233-6.232 25.298l-64.637 37.63 7.274 4.162 20.252-.073 7.947-4.627-.554-4.143 6.871-3.866 8.828-.808 3.508-2.043.328-7.889 6.512-3.791 9.57 2.127 12.42-7.23c13.412 3.16 29.409 1.568 40.282-4.763 14.403-8.384 14.354-21.893-.107-30.173zm-8.966 13.521c-4.08 2.375-10.708 2.399-14.805.053s-4.111-6.173-.031-8.548 10.708-2.399 14.805-.053 4.111 6.173.031 8.548z"/><path id="N" d="M203.909 453.335l1.76 1.028.007 2.03-1.759-1.007z"/><path id="O" d="M343.181 142.345l-.027-.001 1.454-.973-.001.017c.326-.203.796-.22 1.371.014l37.447 15.344c1.276.521 2.546 2.035 2.836 3.383l6.642 30.836c.154.715-.005 1.231-.374 1.488l.011.005-1.499 1.003.003-.017c-.326.211-.802.232-1.385-.006l-37.447-15.343c-1.277-.52-2.547-2.035-2.836-3.383l-6.642-30.837c-.164-.759.028-1.292.447-1.53z"/><path id="P" d="M391.445 191.94l-6.641-30.836c-.29-1.348-1.56-2.863-2.837-3.383l-37.447-15.343c-1.277-.521-2.077.15-1.787 1.498l6.641 30.836c.29 1.348 1.56 2.863 2.837 3.383l37.447 15.343c1.277.521 2.077-.15 1.787-1.498z"/><path id="Q" d="M96.873 144.785l1.75-5.464c.943-4.414-17.066 5.983-18.008 10.397l5.803 15.619c.222.509.567.887.973 1.137 1.275.785 5.966 3.43 6.374 3.68 1.285.786 3.174.294 3.71-1.378l7.517-25.778c.465-2.178-3.684-.748-8.119 1.787z"/><path id="R" d="M119.787 40.701L51.325 80.195c-1.278.738-2.314 2.532-2.314 4.008v81.121c0 1.476 1.042 3.26 2.327 3.986l4.234 2.394c1.286.725 3.363.715 4.641-.023l68.462-39.493c1.278-.738 2.314-2.533 2.314-4.009V47.058c0-1.476-1.042-3.26-2.327-3.986l-4.234-2.394c-1.285-.725-3.363-.715-4.641.023z"/><path id="S" d="M128.676 45.722L60.213 85.216c-1.278.738-2.314 2.533-2.314 4.008v81.121c0 1.476 1.036 2.074 2.314 1.336l27.761-16.015 4.813 13.348c.925 2.12 3.983 1.965 4.688-.238l6.517-22.351 24.684-14.238c1.278-.738 2.314-2.533 2.314-4.009v-81.12c0-1.476-1.036-2.074-2.314-1.336z"/></defs></svg>