<svg xmlns="http://www.w3.org/2000/svg" viewBox="0 0 500 500" xmlns:v="https://vecta.io/nano"><style><![CDATA[.B{fill:#fff}.C{opacity:.2}.D{fill:#ba68c8}.E{fill:#e0e0e0}.F{fill:#455a64}.G{opacity:.1}.H{fill:#f0f0f0}.I{fill:#263238}.J{fill:#f5f5f5}.K{fill:#c48281}.L{opacity:.3}.M{fill:#ab6160}.N{fill:#ebebeb}.O{fill:#ffa8a7}]]></style><path d="M413.319 247.809c-90.802-52.425-237.542-52.424-327.754.001-90.218 52.429-89.74 137.426 1.063 189.851 90.808 52.428 237.548 52.427 327.766-.002 90.212-52.425 89.733-137.422-1.075-189.85z" class="J"/><path d="M446.11 340.025c6.698-3.867 17.522-3.867 24.177 0s6.62 10.137-.078 14.004-17.523 3.867-24.178 0-6.62-10.137.079-14.004zm-190.489 5.622l-12.39-16.842a14.66 14.66 0 0 0-10.686-5.93l-18.262-1.404-29.024-17.634 10.848-6.265a.98.98 0 0 0-.006-1.696l-4.514-2.566c-1.81-1.029-4.031-1.021-5.834.021l-106.32 61.465a.98.98 0 0 0 0 1.693l4.399 2.54c1.815 1.048 4.051 1.048 5.865 0l46.16-26.659 28.615 16.416 3.742 10.522a16.62 16.62 0 0 0 15.656 11.048h26.702l18.117 10.46 43.779-25.441-16.847-9.728zm162.902-15.532c-28.941-16.709-75.712-16.709-104.465.001-25.407 14.765-28.23 37.629-8.583 54.28-15.852-.982-32.28 2.039-44.386 9.074-21.249 12.349-21.137 32.369.25 44.716s55.951 12.349 77.2 0c16.906-9.824 20.274-24.501 10.179-36.311 24.363 3.523 51.176-.223 70.148-11.248 28.753-16.711 28.601-43.802-.343-60.512zM82.585 376.231c-7.622-4.401-19.94-4.401-27.513 0s-7.533 11.536.089 15.937 19.94 4.401 27.513 0 7.533-11.536-.089-15.937z" class="E"/><path d="M156.769 31.936l5.349-3.055.336 116.94-.014.008-43.123 24.623-.017-6.125-.318-110.815z" class="H"/><path d="M157.087 142.75l-.318-110.814 5.349-3.055.336 116.94-.014.008-5.372-3.068z" class="G"/><path d="M119.3 164.327l37.768-21.566 5.372 3.068-43.123 24.623z" class="C"/><path d="M97.76 65.627l5.349-3.054.336 116.94-.014.008-43.123 24.622-.017-6.125-.318-110.814z" class="H"/><path d="M98.078 176.442L97.76 65.627l5.349-3.054.336 116.94-.014.008-5.372-3.068z" class="G"/><path d="M60.291 198.018l37.768-21.565 5.372 3.068-43.123 24.622z" class="C"/><path d="M281.447 97.566l-.97-1.074h0l-.21-.246-1.536-1.87-.161-.212-1.159-1.572-.167-.234h0l-1.057-1.578-.245-.386-.813-1.33-.169-.283-.866-1.555h0l-.205-.391-.635-1.252-.205-.42-.734-1.604-.098-.233-.595-1.456-.169-.437-.624-1.74-.045-.142-.549-1.8-.098-.346-.512-2.09-.098-.457-.157-.815-.093-.521-.009-.049-.127-.843-.07-.501-.176-1.793-.023-.379-.058-1.815.031-1.216.032-.445.052-.726.054-.45.081-.673.08-.467.106-.607.106-.465.129-.561.131-.452.153-.523.155-.436.175-.488.177-.414.198-.459.197-.388.223-.434.216-.361.246-.407.237-.339.266-.376.259-.317.284-.344.279-.292.303-.313.301-.269.318-.28.32-.243.336-.251.336-.214c1.011-.64 2.131-1.097 3.344-1.355-2.251 2.533-3.573 6.385-3.587 11.346-.002.599.022 1.206.058 1.815l.023.379c.042.594.1 1.191.176 1.792l.07.503.127.841.101.57.157.816.098.457a40.19 40.19 0 0 0 .512 2.089l.099.349c.17.599.351 1.198.548 1.796.016.047.03.095.045.142.194.581.405 1.161.624 1.739l.169.438a47.81 47.81 0 0 0 .595 1.456l.098.232c.234.538.48 1.073.735 1.605l.204.418c.206.422.419.841.638 1.258l.202.385c.28.523.568 1.042.866 1.555l.17.286a48.68 48.68 0 0 0 .813 1.33l.243.383a50.02 50.02 0 0 0 1.059 1.581l.165.231c.378.535.766 1.06 1.163 1.576l.159.209c.498.641 1.012 1.264 1.537 1.872l.209.244c.322.367.647.729.978 1.083.02.021.039.043.058.064a42.55 42.55 0 0 0 1.068 1.095l.23.222a39.43 39.43 0 0 0 1.427 1.33l.133.12c.501.439 1.01.857 1.525 1.262l.295.231c.507.39 1.02.764 1.539 1.118l.278.185a29.79 29.79 0 0 0 1.647 1.032c.445.257.886.49 1.325.712l.379.185c.334.162.666.313.995.454l.353.152c.31.127.617.242.922.351l.23.085a19.57 19.57 0 0 0 1.128.348c.22.061.438.112.655.163.1.024.201.052.301.073.318.068.634.128.945.175.475.073.939.114 1.397.14l.278.015a12.83 12.83 0 0 0 1.211-.01c.069-.004.136-.013.205-.018.32-.024.635-.062.945-.111l.289-.048c.103-.019.201-.049.304-.07a10.26 10.26 0 0 1-2.593 2.119c-.043.025-.08.041-.115.06-.021.01-.043.02-.063.031-.251.137-.509.262-.772.377-.106.047-.195.084-.286.12a10.72 10.72 0 0 1-.841.297c-.053.016-.104.035-.157.051a10.87 10.87 0 0 1-1.016.234c-.007.001-.014.003-.022.005-.089.016-.18.029-.27.043-.304.048-.612.084-.926.108l-.242.02c-.389.022-.787.024-1.19.01-.103-.003-.19-.01-.275-.015a16.67 16.67 0 0 1-.668-.05 14.5 14.5 0 0 1-.754-.094c-.16-.025-.323-.059-.484-.09-.153-.029-.305-.053-.46-.087-.093-.021-.187-.046-.28-.068l-.083-.02-.586-.147c-.368-.101-.739-.215-1.114-.343-.076-.026-.154-.058-.23-.085-.305-.109-.612-.224-.922-.351-.122-.05-.236-.101-.348-.15a23.32 23.32 0 0 1-1-.457l-.218-.107-.161-.079c-.438-.221-.879-.454-1.324-.711a29.79 29.79 0 0 1-1.647-1.032l-.074-.049-.203-.135a33.14 33.14 0 0 1-1.539-1.118l-.192-.151-.102-.08c-.515-.405-1.024-.823-1.525-1.262-.028-.024-.055-.049-.082-.074l-.052-.047a39.29 39.29 0 0 1-1.424-1.328l-.232-.224a42.39 42.39 0 0 1-1.066-1.093c-.026-.02-.048-.045-.07-.07z" class="N"/><path d="M306.702 86.161l-.004 1.286 3.628 2.094.004-1.286zm-29.354-27.123l-.56.786 3.14 3.903.56-.791z" class="B"/><path d="M313.398 90.674c-.038 13.266-9.431 18.613-20.976 11.948s-20.878-22.824-20.84-36.09c.038-13.272 9.431-18.619 20.976-11.954s20.878 22.824 20.84 36.096zm-30.354-12.818c.09.294.295.557.511.682a.55.55 0 0 0 .221.076l8.88.696c.139.029.262-.013.331-.131l5.813-9.846c.136-.239.027-.689-.248-1.01-.08-.091-.164-.161-.247-.209-.204-.118-.401-.102-.501.066l-5.716 9.693-8.748-.691c-.284-.018-.415.281-.296.674m17.072-8.693l1.826-2.566-.966-1.199-1.827 2.566.967 1.199m.758 32.378l.97-.081-1.806-4.664-.97.081 1.806 4.664m-23.587-20.894l3.152-.271-.554-1.434-3.152.271.554 1.434m30.346 17.521l.56-.791-3.14-3.903-.56.791 3.14 3.903m-30.285-39.13l-.56.785 3.14 3.903.56-.791-3.14-3.897m27.748 19.22l3.152-.271-.554-1.429-3.152.265.554 1.435m-20.994-22.603l-.965.084 1.806 4.664.965-.084-1.806-4.664M284 91.799l1.827-2.566-.962-1.196-1.827 2.566.962 1.196m-5.721-20.76l.004-1.286-3.633-2.097-.004 1.286 3.633 2.097m32.051 17.216l-3.628-2.094-.004 1.286 3.628 2.094.004-1.286m-18.454 10.522l1.114.643.012-4.174-1.114-.643-.012 4.174m1.23-40.355l-1.114-.643-.012 4.174 1.114.643.012-4.174" class="E"/><path d="M291.992 57.779l-.012 4.174 1.114.644.012-4.175zm8.984 7.619l-1.826 2.566.966 1.199 1.827-2.566zm6.718 11.16l-3.152.265.554 1.435 3.152-.271zm-2.641 16.915l-.56.791 3.14 3.904.56-.792zm-5.015 3.324l-.97.081 1.806 4.663.97-.08zm-8.151-2.194l-.011 4.174 1.114.644.011-4.175zm-7.022-6.566l-1.827 2.566.962 1.196 1.827-2.566zm-4.98-9.095l-3.152.271.554 1.434 3.152-.27zm-5.235-11.286l-.003 1.286 3.632 2.097.004-1.286zm9.452-12.001l-.965.084 1.806 4.664.966-.084zm8.393 22.306c-.075-.043-.15-.069-.223-.074l-.185-.014-8.748-.691c-.281-.018-.413.281-.293.674.09.294.295.557.511.682a.55.55 0 0 0 .221.076l8.88.695.054.004c.281.024.413-.276.294-.674-.095-.293-.298-.555-.511-.678z" class="B"/><path d="M298.303 68.114c-.204-.118-.401-.102-.501.066l-5.716 9.693.185.014a.52.52 0 0 1 .223.074c.213.123.416.385.508.678.119.398-.012.698-.294.674l-.054-.004c.138.029.262-.013.331-.13l5.813-9.846c.136-.239.027-.689-.248-1.01a.95.95 0 0 0-.247-.209z" class="J"/><path d="M306.805 107.028l.337-.255.349-.308.32-.286.327-.339.302-.316.306-.37.282-.344.283-.4.261-.372.262-.433.237-.397.239-.466.214-.422.215-.499.19-.445.192-.535.165-.465.165-.565.141-.489.137-.595.117-.513.112-.647.089-.514.09-.745.056-.467.061-.851.03-.414.033-1.315-.063-1.965h0l-.008-.125-.208-2.222-.034-.246-.179-1.208-.108-.613-.17-.887-.032-.148a45.24 45.24 0 0 0-1.332-4.94h0c-.712-2.153-1.587-4.289-2.601-6.375l-.066-.134-1.842-3.455-.187-.313-.915-1.498-.223-.352-2.717-3.843-.033-.043-2.956-3.47-1.204-1.238-.194-.188-1.6-1.493-.061-.055-1.728-1.436-.317-.248-1.664-1.208h0l-.068-.045-1.074-.701-.938-.569-1.432-.769-.04-.019c-1.467-.738-2.898-1.299-4.276-1.679l-.408-.102-.618-.152-.021-.005-.431-.08-.573-.107c-.007-.001-.013-.003-.02-.004s-.022-.003-.034-.004l-.422-.051-.742-.078-.056-.004-.229-.012a14.02 14.02 0 0 0-1.613-.007h-.022l-.222.02-1.019.119c-.495.079-.962.176-1.413.305-.01.003-.02.004-.03.007l-.051.017-.085.03-.913.322c-.007.003-.013.004-.02.007l-.138.059c-.417.175-.824.368-1.214.593l-.04.021 5.539-3.219.124-.071c.047-.027.099-.046.146-.072l.833-.407.155-.076c.043-.018.09-.03.134-.047l1.017-.359c.015-.004.028-.011.043-.015.375-.108.753-.191 1.137-.262l.132-.03c.059-.01.122-.012.181-.021l1.021-.119.163-.019c.019-.001.039 0 .059 0 .428-.025.865-.027 1.309-.011l.128-.001.426.031.303.022.918.111c.011.002.022.003.034.004l1.024.19.323.079.646.157.063.019 1.219.376.251.093.996.379.133.05.248.113 1.076.492.409.2 1.432.77 1.78 1.116.301.2 1.663 1.208.318.249 1.649 1.365.14.126 1.545 1.44.155.144.094.096 1.153 1.183.057.062 1.064 1.177.101.111.124.151 1.663 2.024.047.058.12.163 1.256 1.703.128.173.056.084 1.142 1.705.109.163.154.253.875 1.432.138.226.049.088.936 1.68.075.135.143.282.688 1.358.143.282.079.173.796 1.738.023.051.074.181.651 1.591.105.256.078.217.675 1.882.013.035.033.109.596 1.951.074.244.033.135.554 2.26.049.2.057.294.171.886.109.614.138.913.065.428.011.112.19 1.941.025.408.063 1.965c-.02 7.124-2.535 12.138-6.592 14.495l-5.539 3.219c.12-.07.234-.15.352-.224s.239-.146.354-.226l.367-.284z" class="N"/><path d="M267.116 67.163c-.04 14.339 10.047 31.811 22.53 39.018 6.465 3.733 12.299 3.972 16.431 1.351.118-.075.239-.146.354-.226.127-.088.249-.185.373-.278.112-.085.227-.166.337-.255.12-.098.233-.205.349-.308.107-.095.217-.187.32-.286.112-.108.219-.225.327-.339.101-.105.204-.206.302-.316.105-.118.204-.246.306-.37.094-.115.191-.225.282-.344.098-.129.189-.266.283-.4.087-.124.177-.244.261-.372.091-.14.175-.288.262-.433.079-.132.162-.26.237-.397.083-.15.16-.31.239-.466l.214-.422c.076-.162.144-.332.215-.499.063-.148.13-.292.19-.445.068-.174.128-.356.192-.535.055-.155.114-.306.165-.465.059-.184.11-.376.165-.565.047-.163.098-.322.141-.489.05-.194.092-.396.137-.595l.117-.513c.042-.211.076-.431.112-.647l.089-.514c.036-.243.061-.496.09-.745l.056-.467c.027-.278.043-.565.061-.851l.03-.414a29.7 29.7 0 0 0 .033-1.315c.002-.648-.024-1.305-.063-1.965l-.008-.125a34.7 34.7 0 0 0-.208-2.222c-.01-.082-.023-.164-.034-.247-.053-.402-.112-.804-.179-1.208l-.109-.614-.17-.886-.032-.148a45.24 45.24 0 0 0-1.332-4.94c-.712-2.153-1.587-4.289-2.601-6.375l-.066-.135c-.573-1.17-1.186-2.325-1.842-3.455l-.188-.314c-.297-.504-.603-1.003-.915-1.497l-.223-.352c-.854-1.326-1.761-2.611-2.717-3.843l-.033-.043a50.22 50.22 0 0 0-2.956-3.47 44.44 44.44 0 0 0-1.204-1.238c-.064-.064-.13-.125-.194-.188-.525-.514-1.058-1.014-1.6-1.493l-.061-.055c-.567-.5-1.144-.977-1.728-1.436l-.318-.249c-.548-.422-1.102-.825-1.663-1.208l-.068-.045a33.39 33.39 0 0 0-1.074-.701l-.938-.569c-.481-.278-.958-.53-1.432-.769-.013-.007-.027-.013-.04-.02-1.467-.738-2.898-1.299-4.276-1.679-.137-.038-.272-.068-.408-.102l-.618-.152c-.152-.033-.301-.056-.451-.085l-.573-.107c-.161-.025-.318-.039-.476-.059-.249-.031-.497-.059-.742-.078l-.285-.017a14.02 14.02 0 0 0-1.613-.007c-.087.005-.172.015-.259.022a12.57 12.57 0 0 0-1.004.117l-.02.003a11.89 11.89 0 0 0-1.394.302c-.056.016-.11.037-.166.054-.311.094-.615.202-.913.322-.053.021-.105.044-.158.066-.417.175-.824.368-1.214.593-4.08 2.348-6.613 7.37-6.634 14.519zm14.397 30.477l-.067-.073c-.328-.351-.651-.709-.97-1.074l-.21-.246c-.525-.607-1.038-1.23-1.536-1.87l-.161-.212c-.396-.515-.782-1.039-1.16-1.573l-.167-.234a48.75 48.75 0 0 1-1.057-1.579l-.245-.386-.813-1.33-.169-.283c-.298-.513-.587-1.032-.867-1.555l-.205-.391-.635-1.252-.205-.42a50.15 50.15 0 0 1-.734-1.604c-.034-.077-.065-.156-.098-.233a47.81 47.81 0 0 1-.595-1.456l-.169-.437a46.41 46.41 0 0 1-.624-1.74c-.016-.047-.03-.095-.045-.142-.198-.599-.379-1.2-.549-1.8l-.098-.345a41.55 41.55 0 0 1-.513-2.09l-.098-.457-.157-.815-.093-.521c-.05-.298-.094-.595-.136-.892l-.07-.501c-.076-.602-.134-1.199-.176-1.793l-.023-.379c-.036-.609-.06-1.216-.058-1.815a25.42 25.42 0 0 1 .031-1.216c.007-.151.022-.296.032-.445l.052-.726c.015-.153.037-.299.054-.45l.081-.673c.023-.159.054-.311.08-.467l.106-.607c.032-.158.071-.309.106-.465l.129-.561c.04-.154.087-.301.131-.452l.153-.523c.048-.149.103-.291.155-.436.058-.163.113-.33.175-.488.056-.142.118-.276.177-.414l.198-.459c.063-.133.131-.258.197-.388.074-.145.145-.294.223-.434.069-.124.144-.241.216-.361.082-.136.161-.276.246-.407.076-.117.158-.226.237-.339.088-.126.174-.255.266-.376.083-.11.173-.212.259-.317.095-.115.186-.234.284-.344.09-.101.186-.195.279-.292.101-.105.199-.213.303-.313.098-.094.201-.18.301-.269.106-.094.209-.191.318-.28s.213-.162.32-.243c.112-.084.221-.172.336-.251s.224-.143.336-.214c1.011-.64 2.131-1.097 3.344-1.355 3.374-.719 7.455.073 11.85 2.611 11.545 6.666 20.877 22.824 20.84 36.096-.014 4.949-1.331 8.795-3.575 11.327a10.26 10.26 0 0 1-2.593 2.119c-.043.025-.08.041-.115.06a10.02 10.02 0 0 1-.852.417 8 8 0 0 1-.269.112c-.275.11-.555.21-.841.297-.053.016-.104.035-.157.051-.338.097-.685.175-1.038.239-.089.016-.18.029-.27.043-.304.048-.612.084-.926.108l-.242.02a13.11 13.11 0 0 1-1.208.01c-.085-.003-.172-.01-.257-.015a14.02 14.02 0 0 1-.668-.05 14.5 14.5 0 0 1-.754-.094c-.16-.025-.323-.06-.484-.09-.153-.029-.305-.053-.46-.087-.12-.026-.243-.059-.364-.089l-.586-.147c-.743-.205-1.503-.467-2.276-.783-.112-.046-.226-.097-.338-.146a24.76 24.76 0 0 1-1.219-.564l-.161-.079c-.438-.221-.879-.454-1.324-.711a29.79 29.79 0 0 1-1.647-1.032l-.074-.049a33.7 33.7 0 0 1-1.934-1.403l-.102-.08c-.543-.427-1.079-.871-1.607-1.336l-.052-.047a39.29 39.29 0 0 1-1.424-1.328l-.232-.224-1.063-1.093z" class="B"/><path d="M426.094 143.344l-.066 23.359-2.831 1.645.075-26.633z" class="H"/><path d="M456.591 184.349l-.009 3.274-33.385-19.275 2.831-1.645z" class="J"/><path d="M419.765 170.305l40.227 23.225.098-34.49-40.227-23.225-.098 34.49zm3.432-1.957l.076-26.633 2.822 1.629 30.564 17.646-.066 23.359-.009 3.274-33.387-19.275z" class="E"/><path d="M419.862 135.814l2.831-1.645 40.228 23.226-2.831 1.645z" class="J"/><path d="M462.921 157.395l-.098 34.49-2.831 1.645.098-34.49z" class="H"/><path d="M435.805 152.213l-8.335 6.563-.018 6.411 27.722 16.006.019-6.411-5.284-10.494-4.744 3.683 1.677 5.212-2.434-4.628zm9.106 3.232c-1.305-.753-2.366-.148-2.37 1.351s1.051 3.326 2.355 4.079 2.366.148 2.371-1.351-1.051-3.326-2.356-4.079z" class="E"/><path d="M427.292 96.01l-.066 23.359-2.831 1.645.075-26.633z" class="H"/><path d="M457.789 137.015l-.009 3.274-33.385-19.275 2.831-1.645z" class="J"/><path d="M420.962 122.97l40.227 23.225.098-34.49L421.06 88.48l-.098 34.49zm3.433-1.956l.076-26.634 2.822 1.629 30.563 17.646-.066 23.359-.009 3.274-33.386-19.274z" class="E"/><path d="M421.06 88.48l2.831-1.645 40.227 23.226-2.831 1.645z" class="J"/><path d="M464.118 110.061l-.097 34.489-2.831 1.645.097-34.489z" class="H"/><path d="M437.003 104.879l-8.335 6.563-.019 6.411 27.723 16.006.018-6.411-5.283-10.494-4.744 3.683 1.677 5.212-2.434-4.628zm9.106 3.232c-1.305-.753-2.366-.148-2.371 1.351s1.051 3.326 2.355 4.079 2.366.148 2.37-1.351-1.049-3.326-2.354-4.079z" class="E"/><path d="M342.499 69.107l59.87 34.624c1.059.607 1.9 1.486 2.479 2.513.551.979.864 2.094.864 3.257v60.203c0 4.465-5.055 8.263-10.049 5.41l-25.042-14.841-.536.867c-.022.037-.057.053-.088.079l.005.012c-.02.013-.045.028-.065.042-.006.003-.011.008-.017.011-.975.645-2.69 1.565-3.075 1.764l.009-.025c-.177.05-.382-.023-.453-.223l-2.181-6.183h0l-28.42-16.046c-2.073-1.185-3.352-3.389-3.352-5.776v-60.28c-.001-4.799 7.066-7.121 10.051-5.408z" class="D"/><g class="B"><path d="M370.085 161.141c-.022.037-.057.053-.087.079l.005.012-.065.042c-.006.003-.01.008-.017.011-.975.645-2.69 1.565-3.075 1.764l.009-.025c.083-.024.162-.066.215-.151l2.112-3.421-.418-.239h0l1.858 1.062-.537.866z" class="C"/><path d="M398.231 110.003c-.432-.855-1.027-1.623-1.781-2.232-.256-.207-.525-.392-.811-.556l-59.87-34.624a2.22 2.22 0 0 0-3.321 1.924c0-4.799 7.066-7.121 10.052-5.408l59.87 34.624c1.059.607 1.9 1.486 2.479 2.513l-6.618 3.759z" opacity=".4"/><path d="M398.98 173.189v-60.203a6.01 6.01 0 0 0-.052-.786 6.9 6.9 0 0 0-.697-2.196l6.617-3.759c.551.979.864 2.094.864 3.257v60.203c0 4.465-5.055 8.263-10.049 5.41a2.22 2.22 0 0 0 3.317-1.926z" class="C"/><path d="M347.113 97.317l34.746 20.061-2.086 23.817c-.125 1.453-1.24 1.972-2.57 1.204l-26.624-15.372c-.5-.289-.973-.727-1.37-1.244l.049.674c.215 2.881 2.192 6.108 4.601 7.499l1.168.674c.399.086.816.247 1.251.499s.857.575 1.251.946l12.51 7.223c.399.086.816.247 1.252.499s.857.575 1.25.946l2.65 1.53c.565.326 1.027 1.121 1.025 1.776s-.467.914-1.032.588l-.204-.118c.295.831.464 1.676.462 2.469-.007 2.646-1.876 3.711-4.179 2.382s-4.159-4.545-4.152-7.191c.002-.793.176-1.44.474-1.929l-7.617-4.398c.299.834.464 1.676.462 2.469-.008 2.646-1.876 3.711-4.179 2.382s-4.159-4.545-4.152-7.191c.002-.846.199-1.522.535-2.022-2.904-2.284-5.152-6.329-5.425-9.996l-2.36-31.989c-.094-1.281-.976-2.718-2.047-3.336l-4.305-2.485c-.57-.329-1.027-1.121-1.025-1.776s.462-.917 1.032-.588l4.304 2.485c2.141 1.236 3.901 4.103 4.093 6.667l.212 2.845zm18.185 33.911l.054-19.077c.003-.889-.621-1.964-1.39-2.408s-1.397-.092-1.399.797l-.054 19.077c-.003.884.621 1.964 1.39 2.408s1.397.087 1.399-.797m6.028 3.48l.054-19.077c.003-.889-.621-1.964-1.39-2.408s-1.397-.092-1.399.797l-.054 19.077c-.003.884.621 1.964 1.39 2.408s1.397.087 1.399-.797m6.028 3.481l.054-19.077c.003-.889-.621-1.964-1.39-2.408s-1.397-.092-1.399.797l-.054 19.077c-.002.884.621 1.964 1.39 2.408s1.397.087 1.399-.797m-18.084-10.441l.054-19.077c.003-.889-.621-1.964-1.39-2.408s-1.397-.092-1.399.797l-.054 19.077c-.003.884.621 1.964 1.39 2.408s1.396.086 1.399-.797m-6.028-3.481l.054-19.077c.003-.889-.621-1.964-1.39-2.408s-1.397-.092-1.399.797l-.054 19.077c-.002.884.621 1.964 1.39 2.408s1.396.087 1.399-.797m3.028 13.855c-.862-.498-1.564-.098-1.567.893s.695 2.198 1.556 2.696 1.564.098 1.566-.893-.688-2.196-1.555-2.696m15.013 8.667c-.862-.498-1.564-.098-1.567.893s.695 2.198 1.557 2.696 1.564.098 1.566-.893-.694-2.198-1.556-2.696"/><path d="M391.812 117.886c.387.223.773.617 1.065 1.127.591 1.017.588 2.118-.007 2.45l-8.831 5.038c-.295.168-.682.114-1.068-.109s-.772-.615-1.07-1.125l-4.327-7.501c-.591-1.024-.588-2.118.007-2.457.295-.168.682-.114 1.068.11s.774.616 1.07 1.125l3.264 5.654 7.755-4.42c.299-.169.687-.115 1.074.108z"/></g><use href="#B" class="D"/><use href="#B" class="B L"/><path d="M193.313 79.64l.007-.007c-.704-2.472-5.722-7.171-10.716-7.073-.18-.001-1.078.09-1.402.275l-97.005 55.189c-1.649.938-2.922 2.348-3.729 3.995-.612 1.249-.962 2.631-.962 4.07v209.829c0 5.345 6.163 10.446 11.95 7.992.015-.006.024-.021.039-.027.125-.045.251-.081.372-.15l97.009-55.281a9.28 9.28 0 0 0 4.685-8.062V80.651c-.001-.373-.1-.708-.248-1.011z" class="F"/><use href="#C" class="D"/><use href="#C" class="C"/><use href="#C" class="B G"/><path d="M79.506 136.09v209.829c0 5.345 6.163 10.446 11.95 7.992.015-.006.024-.021.039-.027-1.466.531-3.096-.525-3.096-2.166V141.89c0-1.859.572-3.628 1.567-5.124l-9.497-4.745c-.613 1.249-.963 2.63-.963 4.069z" class="L"/><path d="M182.603 72.561c-.18-.001-1.078.09-1.402.275l-97.005 55.189c-1.649.938-2.922 2.348-3.729 3.995l9.497 4.745c.79-1.189 1.84-2.21 3.124-2.941l97.005-55.19c1.222-.695 2.662-.134 3.219 1.005l.007-.007c-.703-2.47-5.722-7.17-10.716-7.071z" class="B G"/><path d="M152.935 113.284c.681-.393 1.246-.089 1.248.694s-.559 1.755-1.24 2.148l-19.032 10.988c-.681.393-1.231.063-1.233-.72s.544-1.729 1.225-2.122l19.032-10.988zm-23.92 13.81c.681-.393 1.231-.08 1.233.703s-.544 1.746-1.225 2.139-1.246.072-1.248-.711.559-1.737 1.24-2.131zm12.182-15.408c1.361-.786 2.46-.16 2.464 1.404s-1.087 3.488-2.448 4.274-2.489.143-2.493-1.421 1.116-3.471 2.477-4.257zm.007 197.536c2.772-1.6 5.009-.326 5.018 2.859s-2.213 7.105-4.986 8.705-5.07.291-5.079-2.894 2.275-7.069 5.047-8.67z" class="I"/><path d="M188.624 100.342l32.755 27.191-11.939 6.896-32.752-27.189zm-23.872 13.796l32.749 27.188-11.939 6.896-32.745-27.186z" class="D"/><path d="M152.817 121.036l32.745 27.186-11.94 6.897-32.741-27.184zm23.871-13.796l32.752 27.189-11.939 6.897-32.749-27.188z" class="B"/><path d="M117.01 141.732l32.734 27.18-11.94 6.896-32.73-27.178zm23.871-13.797l32.741 27.184-11.939 6.896-32.738-27.182z" class="D"/><path d="M92.905 155.663l12.169-7.033 32.73 27.178-12.198 7.046zm36.04-20.83l32.738 27.182-11.939 6.897-32.734-27.18z" class="B"/><use href="#D" class="D"/><use href="#D" x="-11.939" y="6.896" class="E"/><use href="#D" x="-23.878" y="13.793" class="D"/><use href="#D" x="-35.818" y="20.689" class="E"/><use href="#D" x="-47.757" y="27.585" class="D"/><use href="#D" x="-59.696" y="34.482" class="E"/><use href="#D" x="-71.635" y="41.378" class="D"/><use href="#D" class="C"/><use href="#D" x="-23.878" y="13.793" class="C"/><use href="#D" x="-47.757" y="27.585" class="C"/><use href="#D" x="-71.635" y="41.378" class="C"/><path d="M137.804 175.808l-12.199 7.046h0c0 3.544 3.837 5.759 6.906 3.986h0a10.59 10.59 0 0 0 5.292-9.169v-1.863z" class="E"/><path d="M151.72 211.013c-3.096.339-6.66 1.329-10.14 3.129-3.48 1.785-6.862 4.375-9.614 7.544a32.64 32.64 0 0 0-6.122 10.577c-1.294 3.698-1.775 7.365-1.677 10.478.723-3.034 1.792-6.414 3.393-9.777 1.592-3.364 3.709-6.702 6.272-9.657s5.576-5.516 8.683-7.564c3.105-2.057 6.303-3.589 9.205-4.73zm-9.342 52.349c-1.757-.034-3.737-.311-5.705-.993-1.966-.674-3.912-1.748-5.549-3.181s-2.952-3.225-3.877-5.087c-.933-1.862-1.465-3.789-1.729-5.527-.203 1.743-.009 3.852.769 5.94a14.26 14.26 0 0 0 3.918 5.721c1.804 1.582 4.015 2.651 6.183 3.139 2.172.5 4.288.417 5.99-.012zm15.503-32.166c.167 2.413.193 5.159-.119 8.037-.305 2.876-.943 5.879-1.918 8.772a41.47 41.47 0 0 1-3.809 8.132c-1.501 2.475-3.191 4.639-4.79 6.454 2.015-1.329 4.136-3.238 5.975-5.641a29.26 29.26 0 0 0 4.438-8.33c1.033-3.06 1.547-6.289 1.539-9.312 0-3.027-.524-5.832-1.316-8.112zm-31.354-11.035c-2.129 2.014-4.24 4.779-5.831 8.103a30.84 30.84 0 0 0-2.947 11.113c-.275 3.939.251 7.91 1.375 11.414 1.114 3.513 2.82 6.545 4.649 8.834-1.165-2.693-2.268-5.841-2.962-9.276-.702-3.43-.997-7.138-.743-10.81s1.065-7.303 2.237-10.603c1.166-3.306 2.694-6.27 4.222-8.775zm38.201 1.177c-.184-2.36-1.083-5.108-2.834-7.572-1.731-2.465-4.306-4.633-7.335-5.863s-6.388-1.466-9.347-.902c-2.973.549-5.532 1.895-7.308 3.46 2.129-1.044 4.706-1.853 7.495-2.063 2.78-.22 5.755.157 8.453 1.247 2.695 1.097 5.092 2.899 6.934 4.993 1.855 2.093 3.141 4.468 3.942 6.7z" class="D"/><path d="M207.616 190.03h0a12.63 12.63 0 0 1 13.712 10.345l4.646 26.018 29.1 20.346-6.503 7.909-27.685-14.538c-3.292-1.729-5.745-4.715-6.802-8.28l-8.919-30.088 2.451-11.712z" class="O"/><g class="F"><use href="#E"/><use href="#F"/></g><g class="B"><use href="#E" class="C"/><use href="#F" opacity=".5"/></g><path d="M214.058 201.187s-1.155-8.846-6.442-11.157c0 0-12.631 3.786-23.119 7.765-5.112 1.939-8.27 3.24-12.153 5.17-2.384 2.065-9.21 8.193-12.422 9.848-1.56.803-3.255 1.262-4.994 1.497l-.023.003c-1.93.265-4.023 1.006-6.211 2.269-9.623 5.556-17.392 19.018-17.361 30.07.02 7.245 3.4 11.633 8.429 12.248-.001.009-.001.018-.001.027l.207-.002c.763.077 1.558.074 2.389-.025 8.749-.079 22.781-.146 28.298-1.725 25.761-7.533 46.002-26.137 43.403-55.988z" class="F"/><path d="M189.525 197.557l3.779-6.84 15.161 10.223-5.998 8.061c-2.605 1.116-5.56 1.499-8.14.327s-4.627-3.466-5.499-6.162c-.606-1.874-.225-3.766.697-5.609z" class="O"/><path d="M194.724 191.674c0 8.232 6.55 12.1 10.55 13.556l3.192-4.29-13.742-9.266z" class="C"/><path d="M187.87 183.451c-.564-3.292-1.127-6.671-.487-9.95s2.754-6.484 5.954-7.441c1.151-2.767 3.923-5.007 6.774-5.931s5.896-1.009 8.892-1.077c3.313-.076 6.66-.138 9.901.553s6.411 2.214 8.477 4.805c2.381 2.986 3.03 7.085 2.459 10.861s-2.242 7.296-4.108 10.629l-19.208 1.633c-3.247.232-6.516.464-9.749.084s-6.377-2.116-8.905-4.166z" class="I"/><path d="M226.809 168.203a54.37 54.37 0 0 1-3.12 29.052c-.852 2.129-1.955 4.333-3.946 5.469-2.088 1.192-4.67.943-7.047.585-3.828-.577-7.684-1.364-11.128-3.131s-6.472-4.63-7.703-8.3c-2.533.606-5.179-.564-6.745-2.645s-2.129-4.764-2.186-7.368c-.036-1.667.306-3.635 1.804-4.369 1.393-.683 3.065.083 4.27 1.06a12.68 12.68 0 0 1 4.157 6.24c1.102-4.061 2.816-7.979 3.918-12.04.433-1.596.968-3.338 2.362-4.229 1.705-1.091 3.926-.465 5.891.022 5.993 1.482 13.579 1.489 19.473-.346z" class="O"/><g fill="#f28f8f"><path d="M214.971 180.529l4.749 7.994-5.662 1.063z"/><use href="#G"/></g><use href="#G" class="L"/><path d="M211.135 195.501c-.517.091-1.05.058-1.494-.141-.831-.373-1.186-1.332-1.151-2.268.611.003 1.223.202 1.696.59.545.446.879 1.119.949 1.819z" fill="#f28f8f"/><g class="I"><use href="#H"/><use href="#H" x="13.637" y="0.845"/><path d="M222.631 175.411l3.337 2.842c.44-.815.21-1.954-.445-2.609s-2.076-.672-2.892-.233zm-13.297-.221l-3.836 2.119c-.269-.887.184-1.957.956-2.468s2.168-.244 2.88.349z"/></g><g class="F"><path d="M229.848 171.493c-13.554 2.234-28.47 2.245-42.028.031.653-17.018 8.302-22.578 21.501-22.578s20.628 7.008 20.527 22.547z"/><use href="#I"/></g><use href="#I" opacity=".29" class="B"/><use href="#J" class="F"/><use href="#J" class="C"/><use href="#K" class="D"/><g class="L B"><use href="#K"/></g><use href="#L" class="D"/><g class="G B"><use href="#L"/></g><path d="M236.488 269.72l-.107 37.924-37.523-21.664.108-37.924z" class="D"/><path d="M242.984 245.28l12.616-7.712-6.44-3.719-12.672 7.557z" class="E"/><path d="M242.984 245.28l-6.496-3.874-12.871-7.676-6.417 3.73 12.792 7.82 6.496 3.972 17.165 10.493 6.881-3.999z" class="B"/><path d="M229.992 245.28l-17.627 10.512 6.904 3.987 17.219-10.527zm30.542 10.466l-6.881 3.999.054.034.107 37.733 6.957-4.043-.106-37.645z" class="E"/><use href="#M" class="B"/><use href="#M" class="C"/><path d="M236.473 256.741l-7.805 4.772 7.805 4.507 7.781-4.522z" class="B"/><path d="M162.673 255.43l3.512-44.97c2.336-10.072 16.938-9.353 18.326.892.566 4.178-6.104 44.769-6.104 44.769l24.162 25.56 4.895 4.491 4.354-.885 9.943.94a1.22 1.22 0 0 1 1.079.965h0a1.22 1.22 0 0 1-.905 1.433l-6.562 1.603 4.736 3.24a5.81 5.81 0 0 0 2.208.916l7.434 1.404a1.37 1.37 0 0 1 1.113 1.431h0a1.37 1.37 0 0 1-.888 1.198l-3.99 1.491c-5.229 1.953-11.05 1.539-15.949-1.136l-8.661-4.729a22.29 22.29 0 0 1-3.541-2.4l-30.854-25.545a12.05 12.05 0 0 1-4.308-10.668z" class="O"/><use href="#N" class="F"/><use href="#N" class="B C"/><use href="#O" class="F"/><g class="B"><use href="#O" opacity=".5"/><path d="M441.941 317.773l16.217.473 16.217-.473c.699 10.952-1.44 22.113-4.388 27.564l-.012-.002c-.528 1.196-1.589 2.331-3.21 3.267-4.785 2.763-12.518 2.763-17.272 0-1.648-.958-2.708-2.124-3.208-3.351-2.924-5.481-5.039-16.58-4.344-27.478z"/></g><path d="M446.729 311.131c-6.354 3.669-6.388 9.616-.075 13.284s16.581 3.669 22.935 0 6.387-9.616.074-13.284-16.58-3.668-22.934 0z" class="N"/><use href="#P" class="E"/><g opacity=".15"><use href="#P"/></g><use href="#Q" class="D"/><use href="#Q" class="B C"/><path d="M451.853 311.695a.39.39 0 0 0 .312-.362c.309-7.092 2.614-31.298 19.296-45.031.165-.135.188-.38.053-.544s-.379-.188-.544-.053c-16.928 13.937-19.264 38.422-19.577 45.594-.009.213.157.394.37.403a.39.39 0 0 0 .09-.007z" class="H"/><use href="#R" class="D"/><use href="#R" class="C"/><use href="#R" class="B C"/><path d="M456.888 319.587c.02-.099.993-4.815 3.79-10.985a.38.38 0 0 1 .133-.289l.265-.574c-.803-7.379-3.725-12.526-3.754-12.577-.107-.185-.043-.421.142-.528a.39.39 0 0 1 .528.142c.029.049 2.717 4.784 3.701 11.691 3.209-6.434 8.327-13.96 16.228-19.459.176-.121.416-.079.538.096s.078.416-.096.538c-8.15 5.672-13.293 13.534-16.418 20.059 6.368-3.1 13.133-1.875 13.434-1.818.209.039.347.242.307.452-.03.16-.155.277-.305.307-.047.009-.097.01-.147.001-.074-.014-7.45-1.355-13.827 2.211-2.776 6.108-3.742 10.784-3.761 10.882a.39.39 0 0 1-.305.305c-.048.009-.099.01-.149 0-.209-.042-.345-.245-.304-.454z" class="H"/><path d="M87.328 350.909l-18.455.538-18.454-.538c-.795 12.463 1.638 25.163 4.993 31.367l.013-.002c.601 1.361 1.808 2.652 3.653 3.717 5.445 3.144 14.245 3.144 19.655 0 1.876-1.09 3.082-2.417 3.651-3.814 3.328-6.236 5.735-18.867 4.944-31.268z" class="B"/><path d="M81.879 343.351c7.231 4.174 7.269 10.942.086 15.117s-18.868 4.175-26.099 0-7.268-10.942-.084-15.117 18.867-4.175 26.097 0z" class="N"/><use href="#S" class="E"/><g opacity=".15"><use href="#S"/></g><use href="#T" class="D"/><use href="#T" class="C"/><g class="B"><use href="#T" class="C"/><path d="M87.452 279.118c-21.931 16.646-23.911 35.729-17.716 55.652-2.191-17.543-4.56-35.281 17.716-55.652z"/></g><use href="#U" class="D"/><use href="#U" class="B C"/><use href="#U" class="G"/><path d="M40.886 304.948c23.19 11.858 28.205 29.302 25.745 48.886-.873-16.702-1.615-33.615-25.745-48.886z" class="B"/><use href="#V" class="D"/><g class="B"><path d="M99.791 312.832c-22.229 8.092-28.701 23.253-28.676 41.18 2.657-14.956 5.218-30.116 28.676-41.18z"/><use href="#V" class="C"/></g><use href="#W" class="D"/><use href="#W" class="C"/><use href="#W" class="B G"/><path d="M332.061 373.107l.069-.491c1.57-10.997 10.143-19.551 21.052-21.645 9.503-1.824 18.686-5.321 26.967-10.328 5.893-3.564 11.461-7.932 18.071-9.863 6.1-1.783 13.696-1.507 19.477 1.131-5.556-5.833-15.079-8.401-22.692-5.763 5.269-8.064 9.904-16.751 11.72-26.211s.526-19.841-5.179-27.603c-4.844-6.591-12.728-10.849-20.896-11.286s-16.461 2.957-21.98 8.993c-5.649 6.18-8.834 14.876-12.544 22.382-2.665 5.391-5.421 10.908-9.813 15.016-6.629 6.2-16.16 8.435-23.031 14.365-7.792 6.724-11.152 17.476-11.187 27.768-.024 6.945 1.284 13.781 3.015 20.531 7.891 7.677 17.653 13.47 28.18 17.231-1.589-4.477-1.88-9.482-1.229-14.227z" class="G"/><path d="M438.645 306.529c-.404-20.585-10.189-40.62-26.174-53.593-9.779-7.937-21.668-13.053-34.055-14.955-2.299.226-4.574.608-6.811 1.142 14.373.841 28.461 6.142 39.692 15.258 15.565 12.633 25.093 32.141 25.486 52.184.442 22.514-10.571 45.462-29.46 61.385-14.803 12.481-34.466 20.755-56.079 23.733l1.383.18c1.943.229 3.894.39 5.848.495 19.202-3.725 36.592-11.64 50.048-22.985 19.314-16.281 30.574-39.775 30.122-62.844z" class="B"/><path d="M323.345 389.664l2.473 4.902c3.496-3.234 4.13-5.845 4.13-5.845-1.132-4.003-2.451-8.073-3.105-10.051-.337 2.756-2.219 5.13-3.012 7.819-.305 1.038-.439 2.1-.486 3.175z" fill="#37474f"/><path d="M323.462 394.685l2.356-.119-2.473-4.902c-.073 1.656.064 3.344.117 5.021z" class="I"/><use href="#X" class="F"/><use href="#X" class="G"/><path d="M309.598 401.121c3.407-.695 6.42-3.098 7.854-6.266 1.474-3.255 1.29-6.997 2.099-10.478.665-2.859 1.998-5.525 2.733-8.367.552-2.134.719-4.494.045-6.549l-.848-.835c-4.218 2.185-9.015 3.984-12.856 6.78-.047 4.922-.096 9.87-.938 14.719-.548 3.155-1.459 6.281-2.852 9.155.184.554.543 1.068 1.027 1.391 1.073.716 2.474.707 3.736.45z" class="M"/><path d="M295.275 388.137c-.698 4.073-3.816 12.363-3.816 12.363s14.616.595 14.938-.078l4.297-6.642-15.419-5.643z" class="K"/><path d="M339.03 291.257l-37.281 20.771c-6.929 3.86-10.62 11.712-9.172 19.511l7.236 38.968-5.935 18.852c5.12 6.866 16.874 7.215 16.874 7.215 6.556-13.15 11.366-18.736 15.09-29.752l6.207-18.619 30.962-8.462c14.474-3.956 25.147-16.306 26.828-31.216.528-4.682.552-7.879.552-7.879l-51.361-9.389z" class="F"/><path d="M336.5 303.532c-.009 4.12 1.497 8.226 4.169 11.362l-23.494 14.665a18.91 18.91 0 0 0-8.051 10.5l-9.311 30.447 8.398-33.909c.966-3.9 3.421-7.267 6.839-9.38l21.478-13.212c-2.483-6.206-.028-10.473-.028-10.473z" class="C"/><path d="M299.387 419.397l.346 5.48c4.486-1.599 6.096-3.75 6.096-3.75.533-4.125.921-8.386 1.098-10.462-1.393 2.401-4.057 3.844-5.844 6.005-.689.832-1.23 1.756-1.696 2.727z" fill="#37474f"/><path d="M297.52 424.06l2.213.817-.346-5.48c-.718 1.494-1.256 3.099-1.867 4.663z" class="I"/><path d="M307.744 404.714c-.268-1.479-.784-2.895-1.347-4.291-.188 2.154-1.27 4.259-2.616 6.004-1.793 2.324-4.067 4.251-5.803 6.618-2.113 2.882-3.415 6.395-6.05 8.808-2.564 2.348-6.28 3.374-9.685 2.673-1.261-.26-2.554-.803-3.257-1.881-.318-.488-.447-1.101-.398-1.683-1.295 1.125-2.684 2.134-4.187 2.97-1.665.927-3.646 1.878-4.094 3.731-.37 1.532.547 3.149 1.84 4.05s2.891 1.231 4.447 1.482c3.341.539 6.774.81 10.097.169s6.548-2.277 8.582-4.981c.98-1.303 1.649-2.793 2.246-4.323.611-1.564 1.148-3.169 1.866-4.663.466-.971 1.007-1.894 1.696-2.728 1.787-2.161 4.451-3.604 5.844-6.005.075-.129.162-.248.229-.383.847-1.7.929-3.699.59-5.567z" class="F"/><path d="M282.242 424.525a11.23 11.23 0 0 0 9.685-2.673c2.635-2.413 3.937-5.926 6.05-8.808 1.735-2.368 4.009-4.294 5.803-6.618 1.347-1.745 2.428-3.85 2.616-6.004l-.451-1.101c-4.738.351-9.856.119-14.487 1.179-1.978 4.507-3.969 9.037-6.65 13.165-1.744 2.686-3.811 5.201-6.222 7.296-.049.582.079 1.195.398 1.683.705 1.078 1.997 1.622 3.258 1.881z" class="K"/><path d="M377.241 236.188c6.082-13.912 6.464-30.217 1.039-44.398-1.738-4.543-4.2-9.047-8.232-11.769-5.154-3.48-11.831-3.428-18.048-3.249-3.301.095-6.67.202-9.77 1.342s-5.644 3.588-6.454 6.789c-4.063-.756-8.168 2.46-9.264 6.444s.34 8.338 2.866 11.608 6.029 5.633 9.557 7.784c-2.131 1.118-3.713 3.705-4.46 5.992a9.46 9.46 0 0 0 .497 7.024c-3.749-.096-7.569 2.656-8.732 6.221s-.178 7.632 2.108 10.605 5.735 4.914 9.364 5.859 7.443.958 11.176.6c3.86 3.74 10.935 3.661 15.78 1.335s10.42-7.263 12.573-12.187z" class="I"/><path d="M342.688 226.802l-.948.01c-6.354.071-14.39 4.393-18.317 15.48l-15.261 29.556 17.422 7.724 9.529-27.898 7.575-24.872z" class="K"/><path d="M330.454 246.417c-1.217 3.49-1.293 7.257-1.484 10.948s-.62 8.149-2.311 11.436a10.58 10.58 0 0 0-6.354-1.857 10.59 10.59 0 0 0-6.202 2.314c-1.258 1.013-2.192 2.406-2.825 3.971l14.306 6.343 9.529-27.898 4.685-15.383c-4.283 1.967-7.788 5.665-9.344 10.126z" class="M"/><path d="M325.745 274.238a10.41 10.41 0 0 0-7.88-6.371c-3.49-.564-7.447 1.259-9.702 3.982-1.901 2.296-1.602 5.401-.404 8.13 1.88 4.28 7.119 6.763 11.622 5.506s8.059-6.89 6.364-11.247z" class="K"/><use href="#Y" class="D"/><use href="#Y" opacity=".4"/><path d="M344.139 302.155l-.003-.02-.006-.04-.014-.059-.018-.057-.021-.057-.025-.058-.028-.058-.031-.06-11.406-21.233-.033-.059-.037-.064-.04-.065-.043-.066-.047-.068-.049-.069-.052-.069-.051-.066-.05-.063-.047-.057-.041-.049-.041-.049-.034-.039-.03-.034-.031-.034-.031-.035-.025-.027-.023-.025-.023-.025-.024-.025-.024-.025-.022-.023-.021-.022-.021-.021-.021-.022-.021-.021-.021-.021-.022-.022-.024-.023-.024-.023-.024-.023-.024-.023-.024-.023-.038-.036-.043-.04-.043-.04-.165-.148-.036-.031-.036-.031-.036-.031-.036-.03-.024-.02-.024-.02-.023-.019-.024-.019-.024-.019-.024-.019-.023-.019-.023-.018-.023-.018-.023-.018-.023-.018-.023-.018c-.008-.007-.017-.013-.025-.019l-.028-.021-.028-.021-.028-.021-.029-.021-.029-.021-.039-.028-.039-.028-.039-.027-.043-.029-.056-.037-.055-.036-.063-.041-.069-.043-.071-.043-.075-.044-.044-.025-13.11-7.375-.031-.017-.076-.041-.074-.038-.072-.035-.071-.033-.069-.03-.07-.028-.068-.025-.071-.023-.072-.02-.048-.01-.025-.005-.078-.011c-.033-.003-.064-.004-.092-.002-.089.005-.155.032-.198.081l-1.564 1.79c.009-.011.042 0 .053-.009-.13.097-.139.308.049.656l11.404 21.229c.411.764 1.527 1.83 2.513 2.384l13.11 7.375c.677.381 1.081.389 1.14.112-.009.041-.002.094-.026.121h0 0l1.564-1.79c.02-.023.035-.051.044-.083a.32.32 0 0 0 .011-.072.45.45 0 0 0-.002-.062zm-29.562-29.91c.038.002.047-.024.091-.015.016.003.038.017.05.02-.058-.014-.092-.002-.141-.005zm15.032 8.465l.361.307h0c-.114-.108-.24-.204-.361-.307zm.82.797l.159.169c-.046-.056-.109-.113-.159-.169zm12.136 22.449c-.007-.112-.044-.249-.138-.424.082.154.129.283.144.388.003.019-.007.023-.006.036z" class="F"/><g class="B"><path d="M344.139 302.155l-.003-.02-.006-.04-.014-.059-.018-.057-.021-.057-.025-.058-.028-.058-.031-.06-11.406-21.233-1.564 1.79 11.404 21.229c.082.154.129.283.144.388s-.003.188-.05.242h0 0 0l1.564-1.79c.02-.023.035-.051.044-.083a.32.32 0 0 0 .011-.072c.002-.018.001-.039-.001-.062z" opacity=".15"/><path d="M332.554 280.454l-.037-.064-.04-.065-.043-.066-.047-.068-.049-.069-.052-.069-.051-.066-.05-.063-.047-.057-.041-.049-.041-.049-.034-.039-.03-.034-.031-.034-.031-.035-.025-.027-.023-.025-.023-.025-.024-.025-.024-.025-.022-.023-.021-.022-.021-.021-.021-.022-.021-.021-.021-.021-.022-.022-.024-.023-.024-.023-.024-.023-.024-.023-.024-.023-.038-.036-.043-.04-.043-.04-.165-.148-.036-.031-.036-.031-.036-.031-.036-.03-.024-.02-.024-.02-.023-.019-.024-.019-.024-.019-.024-.019-.023-.019-.023-.018-.023-.018-.023-.018-.023-.018-.023-.018c-.008-.007-.017-.013-.025-.019l-.028-.021-.028-.021-.028-.021-.029-.021-.029-.021-.039-.028-.039-.028-.039-.027-.043-.029-.056-.037-.055-.036-.063-.041-.069-.043-.071-.043-.075-.044-.044-.025-13.11-7.375-.031-.017-.076-.041-.074-.038-.072-.035-.071-.033-.069-.03-.07-.028-.068-.025-.071-.023-.072-.02-.048-.01-.025-.005-.078-.011c-.033-.003-.064-.004-.092-.002-.089.005-.155.032-.198.081l-1.564 1.79c.069-.079.202-.101.389-.063s.435.138.725.301l13.11 7.375c.242.137.495.306.744.495s.496.399.723.616a7.63 7.63 0 0 1 .619.659c.182.221.33.433.434.627l1.564-1.79-.033-.06z" class="C"/></g><path d="M388.921 236.123c-1.857-3.191-4.296-5.642-7.978-5.92 0 0-6.041 3.117-6.041 17.28l.396 35.426.007.002-2.599 1.08c-7.171 2.978-15.126 5.628-22.788 6.886-3.849-3.247-9.337-4.933-14.372-4.877l1.934 3.601c-3.664 2.346-11.94-1.883-11.94-1.883-.608 5.164 2.737 10.525 7.174 13.237s46.785-1.27 55.766-7.086c5.904-3.823 4.509-40.348 4.509-40.348.412-6.076-1.005-12.135-4.068-17.398zm-72.332 40.905c-.122 1.119-.609 3.117-.482 4.236.38 3.351 1.732 6.641 4.085 9.057.505.519 1.072 1.007 1.756 1.241s1.511.168 2.041-.325c.563-.523.666-1.365.712-2.132.068-1.148.084-2.313-.189-3.43s-.865-2.191-1.808-2.848c-.688-.479-1.513-.708-2.294-1.011s-1.427-.821-2.045-1.48l-1.776-3.308zm34.319-57.696v13.381c-1.312 1.238-2.565 2.657-2.688 4.425-.117 1.687.921 3.337 2.389 4.175s3.289.927 4.918.477 3.085-1.4 4.349-2.523c3.442-3.055 5.802-8.169 5.802-12.696V213.02l-14.77 6.312z" class="K"/><path d="M365.105 213.02c-1.394 7.364-4.264 13.741-14.198 16.032v-9.72l14.198-6.312z" class="M"/><path d="M361.643 205.258c-.116.891-.202 2.674-.02 3.554s.596 1.73 1.272 2.321 1.547.826 2.418.607c-.56-2.293.946-4.892 3.214-5.546s4.927.744 5.674 2.983c.536 1.607.137 3.425-.771 4.854s-2.277 2.512-3.732 3.379c-1.734.715-3.743-.051-4.741-1.64-4.265 5.888-11.936 10.487-19.311 10.173-2.003-.085-4.037-.581-5.671-1.743-2.867-2.039-3.206-5.276-3.69-8.466-.612-4.039-.892-8.158-.405-12.226.673-5.623 2.935-11.215 7.123-15.026 3.017 12.043 14.34 16.056 18.64 16.776z" class="K"/><g class="M"><path d="M346.28 204.502l-4.778 6.41 4.746 1.417z"/><use href="#Z"/></g><use href="#Z" class="L"/><path d="M348.217 217.65c.434.125.893.144 1.29.014.744-.245 1.134-1.033 1.188-1.836-.523-.052-1.064.063-1.503.352a2.32 2.32 0 0 0-.975 1.47z" class="M"/><path d="M353.264 205.51a1.4 1.4 0 0 1-1.404 1.392 1.4 1.4 0 0 1-1.393-1.404 1.4 1.4 0 0 1 1.404-1.392 1.4 1.4 0 0 1 1.393 1.404zm-11.738-.502a1.4 1.4 0 0 1-1.404 1.393 1.4 1.4 0 0 1-1.393-1.404 1.4 1.4 0 0 1 1.404-1.393 1.4 1.4 0 0 1 1.393 1.404zm-1.337-5.57l-3.108 2.13c-.304-.736-.004-1.69.615-2.191s1.835-.388 2.493.061zm11.974-.118l3.091 2.156c.309-.734.018-1.69-.596-2.197s-1.834-.403-2.495.041z" class="I"/><defs ><path id="B" d="M385.251 108.643c5.886 3.398 10.641 11.635 10.622 18.392-.019 6.764-4.806 9.485-10.691 6.087s-10.636-11.625-10.617-18.389c.019-6.757 4.806-9.485 10.686-6.09zm-1.211 17.859l8.831-5.038c.595-.333.598-1.433.007-2.45-.293-.51-.678-.904-1.065-1.127s-.775-.277-1.073-.107l-7.755 4.42-3.264-5.654c-.296-.509-.683-.901-1.07-1.125s-.774-.278-1.068-.11c-.595.339-.598 1.433-.007 2.457l4.327 7.501c.298.51.684.902 1.07 1.125s.772.276 1.067.108"/><path id="C" d="M93.038 158.269a4.64 4.64 0 0 1 2.345-4.033l90.07-51.243c1.547-.88 3.467.237 3.467 2.016v169.197c0 1.663-.898 3.208-2.344 4.033l-90.071 51.326c-1.546.881-3.468-.235-3.468-2.016v-169.28z"/><path id="D" d="M221.379 127.533l-11.939 6.896h0c0 3.544 3.837 5.759 6.906 3.986h0a10.07 10.07 0 0 0 5.033-8.72v-2.162z"/><path id="E" d="M218.417 217.936c2.565-1.338 4.639-3.559 5.877-6.17l-2.613-11.922a12.63 12.63 0 0 0-13.616-9.86l-.449.046-2.452 11.711 3.87 17.277c3.125.765 6.527.408 9.383-1.082z"/><path id="F" d="M218.417 217.936c-2.856 1.49-6.258 1.847-9.382 1.082l.953 4.256c3.617.804 12.861.536 15.273-7.1l-.966-4.407c-1.24 2.611-3.313 4.831-5.878 6.169z"/><path id="G" d="M208.6 192.341l4.303 2.092c-.626.977-2.203 1.403-3.262.928s-1.355-1.903-1.041-3.02z"/><path id="H" d="M206.771 180.847c-.09.894.561 1.691 1.455 1.781s1.691-.561 1.781-1.455-.561-1.691-1.455-1.781-1.691.561-1.781 1.455z"/><path id="I" d="M229.848 171.493c.042-6.517-1.256-11.514-3.733-15.142l-5.52-1.547c-2.589-.725-5.306-.871-7.957-.426l-5.27.884a8.4 8.4 0 0 0-6.952 7.306l-1.202 10.258h0c10.236.723 20.792.289 30.634-1.333z"/><path id="J" d="M231.504 157.177h-2.441l-2.353.094c-7.133.52-13.92 3.38-19.277 8.184l-8.219 7.371c10.236.723 20.792.289 30.634-1.333l5.35-6.453c2.594-3.129.369-7.863-3.694-7.863z"/><path id="K" d="M273.767 248.056l-37.279 21.664-37.522-21.664 37.278-21.664z"/><path id="L" d="M273.767 248.056l-.108 37.924-37.278 21.664.107-37.924z"/><path id="M" d="M219.269 259.779l-6.904-3.987-.054.032-.107 37.861 6.958 4.017.107-37.923z"/><path id="N" d="M184.118 239.198l3.089-22.973c.899-6.688-3.88-12.805-10.586-13.551-6.606-.735-12.556 4.03-13.281 10.638l-2.576 23.47c3.362 1.92 7.101 3.182 10.946 3.643 4.16.5 8.422.062 12.408-1.227z"/><path id="O" d="M171.71 240.425c-3.844-.462-7.584-1.723-10.946-3.643l-.594 5.41c10.387 7.981 23.133 3.061 23.133 3.061l.814-6.055c-3.985 1.289-8.247 1.727-12.407 1.227z"/><path id="P" d="M449.242 312.591c-4.957 2.862-4.983 7.502-.059 10.364s12.935 2.862 17.893 0 4.983-7.502.058-10.364-12.936-2.862-17.892 0z"/><path id="Q" d="M466.43 284.586c2.637-3.279 5.701-6.216 8.119-9.66 1.65-2.349 3.029-5.225 2.336-8.011-.644-2.585-3.059-4.507-5.678-4.997s-5.36.293-7.621 1.7-4.1 3.399-5.76 5.483c-9.074 11.387-13.494 26.376-12.051 40.865.165 1.661.444 3.408 1.505 4.696 1.138 1.382 3.132 1.991 4.848 1.482 4.418-1.311 3.832-7.279 4.554-10.79.99-4.811 2.708-9.472 5.074-13.777 1.351-2.461 2.915-4.804 4.674-6.991z"/><path id="R" d="M449.415 312.463c.505 2.783 2.896 6.229 5.417 7.511 2.499 1.272 5.4 1.612 8.197 1.372 2.847-.245 5.612-1.061 8.32-1.973 1.337-.45 2.824-1.058 2.967-2.715.075-.874-.317-1.721-.946-2.333-.264-.257-.554-.507-.863-.743-.63-.481-.334-1.481.456-1.536.796-.055 1.587-.144 2.371-.293 1.811-.346 3.593-1.036 4.979-2.252 1.04-.913 1.828-2.104 2.299-3.406.403-1.114.515-2.512-.328-3.344-.484-.477-1.18-.658-1.844-.802l-1.784-.33c-.792-.124-.924-1.204-.184-1.513l2.516-1.048c.699-.291 1.426-.603 1.909-1.186.77-.929.715-2.281.484-3.466-.307-1.575-.851-3.094-1.222-4.655s-.565-3.209-.166-4.763c-4.698-.476-9.524-.252-14.093.941-1.365.356-2.745.803-3.846 1.684-1.569 1.255-1.977 3.139-1.811 5.18.031.387-.5.534-.685.192l-1.608-2.965c-.484-.893-1.58-1.23-2.5-.799-1.387.651-2.625 1.694-3.676 2.891-1.133 1.291-1.712 2.993-1.573 4.705a41.19 41.19 0 0 0 1.172 6.908.64.64 0 0 1-1 .676l-.077-.055c-.439-.318-.978-.508-1.516-.441-1.421.176-1.784 1.616-1.879 2.842-.135 1.777.179 3.868.514 5.716z"/><path id="S" d="M79.02 345.012c5.641 3.257 5.671 8.537.067 11.794s-14.72 3.257-20.361 0-5.671-8.537-.066-11.794 14.72-3.257 20.36 0z"/><path id="T" d="M99.215 272.16c-41.588 13.617-41.965 41.44-32.589 61.252 2.364 4.011 9.52 6.164 15.749-18.477l-10.924 1.401 12.73-6.452L87.487 300l-10.614.788 13.472-5.666c4.965-15.014 8.87-22.962 8.87-22.962z"/><path id="U" d="M28.775 300.423c40.994 5.772 45.968 31.621 40.528 51.63-1.536 4.128-7.842 7.323-17.737-14.591l10.406-.511-12.927-3.894-4.722-8.655 10.016-1.03-13.489-3.039c-7.117-13.158-12.075-19.91-12.075-19.91z"/><path id="V" d="M111.213 310.109c-37.595.615-44.97 23.356-42.307 42 .922 3.893 6.249 7.478 17.619-11.166l-9.322-1.625 12.088-2.063 5.224-7.273-8.912-2.049 12.497-1.229c7.889-11.063 13.113-16.595 13.113-16.595z"/><path id="W" d="M328.041 272.542c-9.871 6.854-20.987 11.595-29.23 20.785-15.396 17.164-15.755 44.78-3.663 64.411s34.58 31.427 57.479 34.126c24.025 2.832 49.235-3.806 68.084-18.97s30.84-38.856 30.831-63.047-12.4-48.279-32.663-61.494c-18.486-12.056-45.049-15.495-63.596-1.7-9.378 6.975-15.629 17.268-24.983 24.263a79.08 79.08 0 0 1-2.259 1.626z"/><path id="X" d="M325.256 372.878c-.828-1.254-1.859-2.354-2.926-3.416.674 2.054.507 4.415-.045 6.549-.735 2.842-2.068 5.507-2.733 8.367-.81 3.481-.625 7.222-2.099 10.478-1.434 3.167-4.447 5.571-7.854 6.266-1.262.257-2.664.266-3.735-.449-.484-.323-.844-.837-1.027-1.391-.748 1.543-1.629 3.017-2.682 4.377-1.167 1.507-2.614 3.161-2.297 5.04.262 1.554 1.741 2.68 3.285 3.001s3.142-.005 4.672-.386c3.283-.818 6.547-1.919 9.35-3.815s5.125-4.669 5.933-7.954c.389-1.584.418-3.216.365-4.859-.053-1.678-.19-3.365-.118-5.021.047-1.075.181-2.138.487-3.175.794-2.689 2.675-5.063 3.012-7.819.018-.148.051-.292.059-.442.11-1.896-.601-3.766-1.647-5.351z"/><path id="Y" d="M344.295 226.26c-6.728 1.067-10.895 18.074-13.078 24.527-2.258 6.671.811 11.512 4.23 15.544h0c1.254 1.478 1.826 3.417 1.575 5.339l-7.072 26.271c19.304 14.332 51.666 7.385 60.44 2.705 0-11.996-3.023-21.005-5.674-26.599-2.559-5.399-4.068-11.235-4.274-17.206l-.332-9.646 2.331-16.636-16.763-3.988-14.77-.658c0 0-4.424 0-6.613.347z"/><path id="Z" d="M350.668 215.175l-3.867 1.402c.448.892 1.758 1.397 2.706 1.086s1.329-1.504 1.161-2.488z"/></defs></svg>